<?xml version="1.0" encoding="UTF-8"?><svg id="Layer_1" xmlns="http://www.w3.org/2000/svg" xmlns:xlink="http://www.w3.org/1999/xlink" viewBox="0 0 398.01 252"><defs><style>.cls-1{fill:none;}.cls-2{letter-spacing:.02em;}.cls-3{letter-spacing:.02em;}.cls-4{letter-spacing:-.02em;}.cls-5{letter-spacing:-.01em;}.cls-6{clip-path:url(#clippath);}.cls-7{letter-spacing:-.03em;}.cls-8{fill:#a6bc09;}.cls-9{fill:#166b8c;}.cls-10{letter-spacing:-.01em;}.cls-11{letter-spacing:-.12em;}.cls-12{letter-spacing:-.02em;}.cls-13{clip-path:url(#clippath-1);}.cls-14{fill:#0a3b4c;font-family:Helvetica, Helvetica;font-size:9px;}.cls-15{letter-spacing:0em;}.cls-16{letter-spacing:0em;}.cls-17{fill:#ebebeb;stroke:#0a3b4c;stroke-linejoin:round;stroke-width:.5px;}.cls-18{letter-spacing:-.03em;}.cls-19{letter-spacing:-.05em;}.cls-20{letter-spacing:.01em;}.cls-21{letter-spacing:.04em;}</style><clipPath id="clippath"><rect class="cls-1" width="396" height="252"/></clipPath><clipPath id="clippath-1"><rect class="cls-1" x="114.6" y="5.48" width="275.92" height="188.47"/></clipPath></defs><g class="cls-6"><g class="cls-13"><line class="cls-17" x1="159.88" y1="193.95" x2="159.88" y2="5.48"/><line class="cls-17" x1="225.34" y1="193.95" x2="225.34" y2="5.48"/><line class="cls-17" x1="290.81" y1="193.95" x2="290.81" y2="5.48"/><line class="cls-17" x1="356.27" y1="193.95" x2="356.27" y2="5.48"/><line class="cls-17" x1="114.6" y1="181.66" x2="390.52" y2="181.66"/><line class="cls-17" x1="114.6" y1="161.17" x2="390.52" y2="161.17"/><line class="cls-17" x1="114.6" y1="140.69" x2="390.52" y2="140.69"/><line class="cls-17" x1="114.6" y1="120.2" x2="390.52" y2="120.2"/><line class="cls-17" x1="114.6" y1="99.71" x2="390.52" y2="99.71"/><line class="cls-17" x1="114.6" y1="79.23" x2="390.52" y2="79.23"/><line class="cls-17" x1="114.6" y1="58.74" x2="390.52" y2="58.74"/><line class="cls-17" x1="114.6" y1="38.26" x2="390.52" y2="38.26"/><line class="cls-17" x1="114.6" y1="17.77" x2="390.52" y2="17.77"/><line class="cls-17" x1="127.15" y1="193.95" x2="127.15" y2="5.48"/><line class="cls-17" x1="192.61" y1="193.95" x2="192.61" y2="5.48"/><line class="cls-17" x1="258.08" y1="193.95" x2="258.08" y2="5.48"/><line class="cls-17" x1="323.54" y1="193.95" x2="323.54" y2="5.48"/><line class="cls-17" x1="389" y1="193.95" x2="389" y2="5.48"/><rect class="cls-9" x="127.15" y="172.44" width="218.45" height="18.44"/><rect class="cls-9" x="127.15" y="151.95" width="133.69" height="18.44"/><rect class="cls-9" x="127.15" y="131.46" width="127.48" height="18.44"/><rect class="cls-9" x="127.15" y="110.98" width="125.42" height="18.44"/><rect class="cls-9" x="127.15" y="90.49" width="31.7" height="18.44"/><rect class="cls-8" x="127.15" y="70.01" width="250.83" height="18.44"/><rect class="cls-8" x="127.15" y="49.52" width="138.51" height="18.44"/><rect class="cls-8" x="127.15" y="29.04" width="61.33" height="18.44"/><rect class="cls-8" x="127.15" y="8.55" width="37.9" height="18.44"/></g><text class="cls-14" transform="translate(55.15 184.89)"><tspan x="0" y="0">I Lack Capital</tspan></text><text class="cls-14" transform="translate(13.26 164.4)"><tspan x="0" y="0">Agent Lacks Kn</tspan><tspan class="cls-10" x="63.04" y="0">o</tspan><tspan x="67.91" y="0">wledge</tspan></text><text class="cls-14" transform="translate(15.3 143.92)"><tspan class="cls-11" x="0" y="0">T</tspan><tspan x="4.43" y="0">echnology Un</tspan><tspan class="cls-4" x="59.46" y="0">a</tspan><tspan class="cls-12" x="64.29" y="0">v</tspan><tspan x="68.57" y="0">aila</tspan><tspan class="cls-4" x="82.58" y="0">b</tspan><tspan x="87.41" y="0">le</tspan></text><text class="cls-14" transform="translate(24.62 123.43)"><tspan x="0" y="0">Not Enough Seasons</tspan></text><text class="cls-14" transform="translate(47.26 102.95)"><tspan x="0" y="0">Ulte</tspan><tspan class="cls-20" x="16" y="0">r</tspan><tspan x="19.13" y="0">ior Moti</tspan><tspan class="cls-12" x="48.63" y="0">v</tspan><tspan x="52.92" y="0">es</tspan></text><text class="cls-14" transform="translate(26.31 82.46)"><tspan x="0" y="0">I Lack Equal </tspan><tspan class="cls-11" x="52.03" y="0">T</tspan><tspan class="cls-5" x="56.46" y="0">r</tspan><tspan x="59.36" y="0">aining</tspan></text><text class="cls-14" transform="translate(5.48 61.97)"><tspan x="0" y="0">Dif</tspan><tspan class="cls-18" x="11" y="0">f</tspan><tspan x="13.24" y="0">erent Access </tspan><tspan class="cls-11" x="67.76" y="0">T</tspan><tspan x="72.19" y="0">o Inputs</tspan></text><text class="cls-14" transform="translate(58.43 41.49)"><tspan x="0" y="0">Dif</tspan><tspan class="cls-18" x="11" y="0">f</tspan><tspan x="13.24" y="0">erent Soil</tspan></text><text class="cls-14" transform="translate(53.68 21)"><tspan class="cls-19" x="0" y="0">P</tspan><tspan x="5.55" y="0">oor </tspan><tspan class="cls-11" x="21.06" y="0">T</tspan><tspan x="25.49" y="0">ech QC</tspan></text><text class="cls-14" transform="translate(120.64 205.34)"><tspan x="0" y="0">0%</tspan></text><text class="cls-14" transform="translate(183.61 205.34)"><tspan x="0" y="0">10%</tspan></text><text class="cls-14" transform="translate(249.07 205.34)"><tspan x="0" y="0">20%</tspan></text><text class="cls-14" transform="translate(314.54 205.34)"><tspan x="0" y="0">30%</tspan></text><text class="cls-14" transform="translate(380 205.34)"><tspan x="0" y="0">40%</tspan></text><rect class="cls-8" x="138.46" y="224.47" width="15.86" height="15.86"/><rect class="cls-9" x="287.06" y="224.47" width="15.86" height="15.86"/><text class="cls-14" transform="translate(160.51 235.63)"><tspan x="0" y="0">Cont</tspan><tspan class="cls-7" x="19.01" y="0">e</tspan><tspan x="23.75" y="0">xt Unce</tspan><tspan class="cls-21" x="54.26" y="0">r</tspan><tspan class="cls-16" x="57.61" y="0">tainty Conce</tspan><tspan class="cls-3" x="107.63" y="0">r</tspan><tspan class="cls-15" x="110.85" y="0">ns</tspan></text><text class="cls-14" transform="translate(309.11 235.63)"><tspan x="0" y="0">Other Conce</tspan><tspan class="cls-2" x="51.02" y="0">r</tspan><tspan x="54.24" y="0">ns</tspan></text></g></svg>