<svg xmlns="http://www.w3.org/2000/svg" xmlns:xlink="http://www.w3.org/1999/xlink" width="816" height="1056" viewBox="0 0 612 792"><clipPath id="a"><path transform="matrix(1 0 0 -1 0 792)" d="M12 352.765h588v86.47H12z"/></clipPath><g clip-path="url(#a)"><symbol id="b"><path d="M0 .364C0 .157.162 0 .348 0c.163 0 .261.139.261.255 0 .01 0 .017-.013.017C.585.272.585.266.584.256.576.113.469.031.36.031.299.031.103.065.103.363c0 .299.195.333.256.333.109 0 .198-.091.218-.237C.579.445.579.442.593.442c.016 0 .016.003.016.024v.237c0 .017 0 .024-.011.024-.004 0-.008 0-.016-.012L.532.641C.495.677.444.727.348.727A.357.357 0 0 1 0 .364z"/></symbol><symbol id="c"><path d="M.443.225c0 .128-.1.234-.221.234C.097.459 0 .35 0 .225 0 .096.104 0 .221 0c.121 0 .222.098.222.225m-.221-.2a.13.13 0 0 0-.114.067C.083.136.083.197.083.233c0 .039 0 .093.024.137a.134.134 0 0 0 .114.067.131.131 0 0 0 .113-.065C.36.329.36.271.36.233c0-.036 0-.09-.022-.134A.129.129 0 0 0 .222.025z"/></symbol><symbol id="d"><path d="M.078.344V.076C.078.031.067.031 0 .031V0l.113.003L.225 0v.031c-.067 0-.078 0-.078.045V.26c0 .104.071.16.135.16C.345.42.356.366.356.309V.076C.356.031.345.031.278.031V0l.113.003L.503 0v.031c-.052 0-.077 0-.078.03v.191c0 .086 0 .117-.031.153C.38.422.347.442.289.442.216.442.169.399.141.337v.105L0 .431V.4C.07.4.078.393.078.344z"/></symbol><symbol id="e"><path d="M.154.411h.143v.031H.154v.184H.129C.128.544.098.437 0 .433V.411h.085V.135C.085.012.178 0 .214 0c.071 0 .099.071.099.135v.057H.288V.137C.288.063.258.025.221.025.154.025.154.116.154.133v.278z"/></symbol><symbol id="f"><path d="M.084.263c.006.149.09.174.124.174.103 0 .113-.135.113-.174H.084M.083.242h.279c.022 0 .025 0 .025.021 0 .099-.054.196-.179.196C.092.459 0 .356 0 .231 0 .097.105 0 .22 0a.17.17 0 0 1 .167.13c0 .01-.008.012-.013.012C.365.142.363.136.361.128.326.025.236.025.226.025c-.05 0-.09.03-.113.067-.03.048-.03.114-.03.15z"/></symbol><symbol id="g"><path d="M.275.235c.03.038.068.087.092.113A.153.153 0 0 0 .486.4v.031a1.123 1.123 0 0 0-.178 0V.4C.329.398.337.385.337.369A.057.057 0 0 0 .322.334L.26.256.182.357C.173.367.173.369.173.375.173.39.188.399.208.4v.031a1.66 1.66 0 0 0-.203 0V.4C.075.4.076.399.123.339L.222.21.128.091A.16.16 0 0 0 0 .031V0c.026.002.057.003.083.003L.178 0v.031C.156.034.149.047.149.062c0 .022.029.055.09.127l.076-.1C.323.078.336.062.336.056.336.047.327.032.3.031V0l.108.003C.435.003.474.002.504 0v.031C.45.031.432.033.409.062L.275.235z"/></symbol><symbol id="h"><path d="M.549.253C.549.111.452.031.357.031.31.031.192.056.192.246v.381c0 .036.002.047.079.047h.024v.031C.26.702.186.702.148.702.11.702.035.702 0 .705V.674h.024C.101.674.103.663.103.627V.25C.103.109.219 0 .355 0 .47 0 .56.093.577.207.58.227.58.236.58.276v.32c0 .033 0 .078.103.078v.031L.565.702.446.705V.674C.549.674.549.627.549.6V.253z"/></symbol><symbol id="i"><path d="M.083.229c0 .163.082.205.135.205C.227.434.29.433.325.397.284.394.278.364.278.351c0-.026.018-.046.046-.046C.35.305.37.322.37.352.37.42.294.459.217.459.092.459 0 .351 0 .227 0 .099.099 0 .215 0c.134 0 .166.12.166.13 0 .01-.01.01-.013.01C.359.14.357.136.355.13.326.037.261.025.224.025.171.025.083.068.083.229z"/></symbol><symbol id="j"><path d="M.139.332v.11L0 .431V.4C.07.4.078.393.078.344V.076C.078.031.067.031 0 .031V0l.114.003c.04 0 .087 0 .127-.003v.031H.22C.146.031.144.042.144.078v.154c0 .099.042.188.118.188L.273.419A.043.043 0 0 1 .25.38C.25.352.271.337.293.337c.018 0 .043.012.043.044S.305.442.262.442C.189.442.153.375.139.332z"/></symbol><symbol id="k"><path d="M.291.087C.295.047.322.005.369.005.39.005.451.019.451.1v.056H.426V.1C.426.042.401.036.39.036c-.033 0-.037.045-.037.05v.2c0 .042 0 .081-.036.118A.191.191 0 0 1 .18.459C.098.459.029.412.029.346c0-.03.02-.047.046-.047.028 0 .046.02.046.046C.121.357.116.39.07.391c.027.035.076.046.108.046.049 0 .106-.039.106-.128V.272C.233.269.163.266.1.236.025.202 0 .15 0 .106 0 .025.097 0 .16 0c.066 0 .112.04.131.087M.284.251v-.1C.284.056.212.022.167.022c-.049 0-.09.035-.09.085 0 .055.042.138.207.144z"/></symbol><symbol id="l"><path d="M.144.442.004.431V.4C.069.4.078.394.078.345V.076C.078.031.067.031 0 .031V0l.11.003C.145.003.18.001.214 0v.031c-.066 0-.07.005-.07.044v.367m.004.174a.052.052 0 0 1-.053.053.054.054 0 0 1-.053-.053c0-.027.022-.053.053-.053.028 0 .053.021.053.053z"/></symbol><symbol id="m"><path d="M.396.541a.094.094 0 0 0 .093.064v.031a.94.94 0 0 0-.162 0V.605C.358.604.374.587.374.562.374.552.373.55.368.538L.267.292.156.561C.152.571.15.575.15.579c0 .026.037.026.056.026v.031a1.646 1.646 0 0 0-.206 0V.605c.048 0 .067 0 .081-.035l.15-.365A1.487 1.487 0 0 0 .206.146C.184.091.156.022.092.022c-.005 0-.028 0-.047.018.031.004.039.026.039.042a.04.04 0 0 1-.042.042C.022.124 0 .111 0 .081 0 .036.042 0 .092 0 .155 0 .196.057.22.114l.176.427z"/></symbol><use xlink:href="#b" transform="matrix(14.41174 0 0 -14.41174 241.73 365.187)" fill="#0a3b4c"/><use xlink:href="#c" transform="matrix(14.41174 0 0 -14.41174 251.735 365.028)" fill="#0a3b4c"/><use xlink:href="#d" transform="matrix(14.41174 0 0 -14.41174 258.998 364.87)" fill="#0a3b4c"/><use xlink:href="#e" transform="matrix(14.41174 0 0 -14.41174 266.415 365.028)" fill="#0a3b4c"/><use xlink:href="#f" transform="matrix(14.41174 0 0 -14.41174 272.15 365.028)" fill="#0a3b4c"/><use xlink:href="#g" transform="matrix(14.41174 0 0 -14.41174 278.323 364.87)" fill="#0a3b4c"/><use xlink:href="#e" transform="matrix(14.41174 0 0 -14.41174 286.03 365.028)" fill="#0a3b4c"/><use xlink:href="#h" transform="matrix(14.41174 0 0 -14.41174 296.65 365.187)" fill="#0a3b4c"/><use xlink:href="#d" transform="matrix(14.41174 0 0 -14.41174 307.445 364.87)" fill="#0a3b4c"/><use xlink:href="#i" transform="matrix(14.41174 0 0 -14.41174 315.48 365.028)" fill="#0a3b4c"/><use xlink:href="#f" transform="matrix(14.41174 0 0 -14.41174 321.799 365.028)" fill="#0a3b4c"/><use xlink:href="#j" transform="matrix(14.41174 0 0 -14.41174 328.204 364.87)" fill="#0a3b4c"/><use xlink:href="#e" transform="matrix(14.41174 0 0 -14.41174 333.719 365.028)" fill="#0a3b4c"/><use xlink:href="#k" transform="matrix(14.41174 0 0 -14.41174 339.655 365.028)" fill="#0a3b4c"/><use xlink:href="#l" transform="matrix(14.41174 0 0 -14.41174 346.731 364.87)" fill="#0a3b4c"/><use xlink:href="#d" transform="matrix(14.41174 0 0 -14.41174 350.72 364.87)" fill="#0a3b4c"/><use xlink:href="#e" transform="matrix(14.41174 0 0 -14.41174 358.137 365.028)" fill="#0a3b4c"/><use xlink:href="#m" transform="matrix(14.41174 0 0 -14.41174 363.338 367.824)" fill="#0a3b4c"/><path stroke-width=".57573884" stroke-miterlimit="10" fill="none" stroke="#0a3b4c" d="M216.91 387.353v-17.294"/><symbol id="n"><path d="M.549.258H.524C.513.156.499.031.323.031H.241c-.047 0-.049.007-.049.04v.533c0 .034 0 .048.095.048H.32v.031C.284.68.193.68.152.68.113.68.035.68 0 .683V.652h.024C.101.652.103.641.103.605V.078C.103.042.101.031.024.031H0V0h.521l.028.258z"/></symbol><symbol id="o"><path d="M.601.347C.619.397.65.41.685.411v.031a.89.89 0 0 0-.166 0V.411C.555.41.577.392.577.363c0-.006 0-.008-.005-.021L.481.086.382.365C.378.377.377.379.377.384c0 .027.039.027.059.027v.031L.332.439C.302.439.273.44.243.442V.411C.28.411.296.409.306.396.311.39.322.36.329.341L.243.099.148.366C.143.378.143.38.143.384c0 .027.039.027.059.027v.031L.093.439 0 .442V.411C.05.411.062.408.074.376L.2.022C.205.008.208 0 .221 0c.013 0 .015.006.02.02l.101.283.102-.284C.448.008.451 0 .464 0c.013 0 .016.009.02.019l.117.328z"/></symbol><use xlink:href="#n" transform="matrix(14.41174 0 0 -14.41174 247.567 382.164)" fill="#0a3b4c"/><use xlink:href="#c" transform="matrix(14.41174 0 0 -14.41174 256.502 382.322)" fill="#0a3b4c"/><use xlink:href="#o" transform="matrix(14.41174 0 0 -14.41174 263.16 382.322)" fill="#0a3b4c"/><path stroke-width=".57573884" stroke-miterlimit="10" fill="none" stroke="#0a3b4c" d="M303.494 387.353v-17.294"/><symbol id="p"><path d="M.58.605c0 .036.002.047.079.047h.024v.031C.648.68.574.68.536.68.498.68.423.68.388.683V.652h.024C.489.652.491.641.491.605V.371H.192v.234c0 .036.002.047.079.047h.024v.031C.26.68.186.68.148.68.11.68.035.68 0 .683V.652h.024C.101.652.103.641.103.605V.078C.103.042.101.031.024.031H0V0c.035.003.109.003.147.003C.185.003.26.003.295 0v.031H.271C.194.031.192.042.192.078V.34h.299V.078C.491.042.489.031.412.031H.388V0c.035.003.109.003.147.003.038 0 .113 0 .148-.003v.031H.659C.582.031.58.042.58.078v.527z"/></symbol><symbol id="q"><path d="M.194.378c-.087 0-.087.1-.087.123 0 .027.001.059.016.084.008.012.031.04.071.04.087 0 .087-.1.087-.123A.164.164 0 0 0 .265.418a.086.086 0 0 0-.071-.04M.078.339c0 .004 0 .027.017.047A.17.17 0 0 1 .194.355c.093 0 .162.069.162.146a.135.135 0 0 1-.041.097.131.131 0 0 0 .09.039l.01-.001C.404.632.399.621.399.609.399.592.412.58.428.58c.01 0 .029.007.029.03a.049.049 0 0 1-.051.049A.154.154 0 0 1 .3.612a.167.167 0 0 1-.106.036C.101.648.032.579.032.502.032.458.054.42.079.399A.138.138 0 0 1 .048.316c0-.031.013-.069.044-.089C.032.21 0 .167 0 .127 0 .055.099 0 .221 0c.118 0 .222.051.222.129a.128.128 0 0 1-.065.114C.325.271.267.271.206.271L.131.272C.099.276.078.307.078.339M.222.023c-.101 0-.17.051-.17.104 0 .046.038.083.082.086h.059c.086 0 .198 0 .198-.086C.391.073.32.023.222.023z"/></symbol><symbol id="r"><path d="M.078.076C.078.031.067.031 0 .031V0l.113.003L.225 0v.031c-.067 0-.078 0-.078.045V.26c0 .104.071.16.135.16C.345.42.356.366.356.309V.076C.356.031.345.031.278.031V0l.113.003L.503 0v.031c-.052 0-.077 0-.078.03v.191c0 .086 0 .117-.031.153C.38.422.347.442.289.442A.158.158 0 0 1 .144.344v.35L0 .683V.652C.07.652.078.645.078.596v-.52z"/></symbol><use xlink:href="#p" transform="matrix(14.41174 0 0 -14.41174 334.551 382.164)" fill="#0a3b4c"/><use xlink:href="#l" transform="matrix(14.41174 0 0 -14.41174 345.36 382.164)" fill="#0a3b4c"/><use xlink:href="#q" transform="matrix(14.41174 0 0 -14.41174 349.292 385.132)" fill="#0a3b4c"/><use xlink:href="#r" transform="matrix(14.41174 0 0 -14.41174 356.555 382.164)" fill="#0a3b4c"/><path stroke-width=".57573884" stroke-miterlimit="10" fill="none" stroke="#0a3b4c" d="M394.683 387.353v-17.294"/><symbol id="s"><path d="M0 .683V.652h.024C.101.652.103.641.103.605V.078C.103.042.101.031.024.031H0V0h.366c.168 0 .306.148.306.336 0 .19-.135.347-.306.347H0M.238.031c-.047 0-.049.007-.049.04v.541c0 .033.002.04.049.04h.1A.216.216 0 0 0 .52.559C.563.5.572.414.572.336.572.225.553.165.517.116A.22.22 0 0 0 .339.031H.238z"/></symbol><use xlink:href="#s" transform="matrix(14.41174 0 0 -14.41174 464.099 382.164)" fill="#0a3b4c"/><use xlink:href="#l" transform="matrix(14.41174 0 0 -14.41174 475.08 382.164)" fill="#0a3b4c"/><symbol id="t"><path d="M.421.4h.115v.031H.418v.116c0 .089.048.136.093.136.003 0 .018 0 .033-.007a.044.044 0 0 1-.03-.042C.514.611.53.591.557.591c.029 0 .044.02.044.044 0 .036-.035.07-.091.07C.451.705.407.667.402.663.373.7.317.705.29.705.195.705.079.653.079.545V.431H0V.4h.079V.076C.079.031.068.031.001.031V0l.111.003L.223 0v.031c-.067 0-.078 0-.078.045V.4h.21V.076C.355.031.344.031.277.031V0l.114.003c.04 0 .087 0 .127-.003v.031H.497C.423.031.421.042.421.078V.4M.142.431v.113c0 .097.082.139.147.139.049 0 .077-.019.078-.019V.663A.041.041 0 0 1 .33.62.04.04 0 0 1 .358.58C.355.567.355.558.355.546V.431H.142z"/></symbol><use xlink:href="#t" transform="matrix(14.41174 0 0 -14.41174 478.998 382.164)" fill="#0a3b4c"/><use xlink:href="#f" transform="matrix(14.41174 0 0 -14.41174 487.413 382.322)" fill="#0a3b4c"/><use xlink:href="#j" transform="matrix(14.41174 0 0 -14.41174 493.81 382.164)" fill="#0a3b4c"/><use xlink:href="#f" transform="matrix(14.41174 0 0 -14.41174 499.458 382.322)" fill="#0a3b4c"/><use xlink:href="#d" transform="matrix(14.41174 0 0 -14.41174 505.913 382.164)" fill="#0a3b4c"/><use xlink:href="#i" transform="matrix(14.41174 0 0 -14.41174 513.953 382.322)" fill="#0a3b4c"/><use xlink:href="#f" transform="matrix(14.41174 0 0 -14.41174 520.264 382.322)" fill="#0a3b4c"/><path stroke-width=".57573884" stroke-miterlimit="10" fill="none" stroke="#0a3b4c" d="M136.925 387.64h458.27"/><symbol id="u"><path d="M.293.41.165.441a.13.13 0 0 0 .031.258C.363.699.385.535.391.49.392.484.392.478.403.478c.013 0 .013.005.013.024v.201c0 .017 0 .024-.011.024C.398.727.397.726.39.714L.355.657c-.03.029-.071.07-.16.07A.193.193 0 0 1 .131.35C.142.346.193.334.263.317.29.31.32.303.348.266A.146.146 0 0 0 .379.174C.379.103.329.031.245.031a.241.241 0 0 0-.158.054.202.202 0 0 0-.062.154c-.001.01-.009.01-.012.01C0 .249 0 .242 0 .224v-.2C0 .007 0 0 .011 0c.007 0 .008.002.015.013L.062.07A.25.25 0 0 1 .246 0c.117 0 .197.098.197.208 0 .1-.066.182-.15.202z"/></symbol><symbol id="v"><path d="M.078.344V.076C.078.031.067.031 0 .031V0l.113.003L.225 0v.031c-.067 0-.078 0-.078.045V.26c0 .104.071.16.135.16C.345.42.356.366.356.309V.076C.356.031.345.031.278.031V0l.113.003L.503 0v.031c-.067 0-.078 0-.078.045V.26c0 .104.071.16.135.16C.623.42.634.366.634.309V.076C.634.031.623.031.556.031V0l.113.003L.781 0v.031c-.052 0-.077 0-.078.03v.191c0 .086 0 .117-.031.153C.658.422.625.442.567.442A.158.158 0 0 1 .422.344C.408.431.334.442.289.442.216.442.169.399.141.337v.105L0 .431V.4C.07.4.078.393.078.344z"/></symbol><symbol id="w"><path d="M.144.57v.066L0 .625V.594c.071 0 .078-.006.078-.05V.076C.078.031.067.031 0 .031V0l.112.003L.225 0v.031c-.067 0-.078 0-.078.045V.253C.152.237.194.183.27.183c.119 0 .223.098.223.227 0 .127-.097.226-.209.226A.18.18 0 0 1 .144.57M.147.308v.223a.15.15 0 0 0 .129.08C.349.611.41.523.41.41.41.289.34.205.266.205c-.04 0-.078.02-.105.061C.147.287.147.288.147.308z"/></symbol><symbol id="x"><path d="M.144.694 0 .683V.652C.07.652.078.645.078.596v-.52C.078.031.067.031 0 .031V0l.111.003L.222 0v.031c-.067 0-.078 0-.078.045v.618z"/></symbol><symbol id="y"><path d="M.103.078C.103.042.101.031.024.031H0V0h.577l.042.258H.594C.569.104.546.031.374.031H.241c-.047 0-.049.007-.049.04v.267h.09C.379.338.39.306.39.221h.025v.265H.39C.39.4.379.369.282.369h-.09v.24c0 .033.002.04.049.04H.37C.523.649.55.594.566.455h.025L.563.68H0V.649h.024C.101.649.103.638.103.602V.078z"/></symbol><use xlink:href="#u" transform="matrix(14.41174 0 0 -14.41174 31.884 408.422)" fill="#0a3b4c"/><use xlink:href="#k" transform="matrix(14.41174 0 0 -14.41174 39.69 408.264)" fill="#0a3b4c"/><use xlink:href="#v" transform="matrix(14.41174 0 0 -14.41174 46.752 408.105)" fill="#0a3b4c"/><use xlink:href="#w" transform="matrix(14.41174 0 0 -14.41174 58.703 410.901)" fill="#0a3b4c"/><use xlink:href="#x" transform="matrix(14.41174 0 0 -14.41174 66.782 408.105)" fill="#0a3b4c"/><use xlink:href="#l" transform="matrix(14.41174 0 0 -14.41174 70.786 408.105)" fill="#0a3b4c"/><use xlink:href="#d" transform="matrix(14.41174 0 0 -14.41174 74.775 408.105)" fill="#0a3b4c"/><use xlink:href="#q" transform="matrix(14.41174 0 0 -14.41174 82.725 411.074)" fill="#0a3b4c"/><use xlink:href="#y" transform="matrix(14.41174 0 0 -14.41174 94.802 408.105)" fill="#0a3b4c"/><use xlink:href="#j" transform="matrix(14.41174 0 0 -14.41174 104.538 408.105)" fill="#0a3b4c"/><use xlink:href="#j" transform="matrix(14.41174 0 0 -14.41174 110.183 408.105)" fill="#0a3b4c"/><use xlink:href="#c" transform="matrix(14.41174 0 0 -14.41174 115.828 408.264)" fill="#0a3b4c"/><use xlink:href="#j" transform="matrix(14.41174 0 0 -14.41174 123.034 408.105)" fill="#0a3b4c"/><use xlink:href="#n" transform="matrix(14.41174 0 0 -14.41174 164.283 399.46)" fill="#0a3b4c"/><use xlink:href="#c" transform="matrix(14.41174 0 0 -14.41174 173.218 399.618)" fill="#0a3b4c"/><use xlink:href="#o" transform="matrix(14.41174 0 0 -14.41174 179.876 399.618)" fill="#0a3b4c"/><path stroke-width=".57573884" stroke-miterlimit="10" fill="none" stroke="#0a3b4c" d="M216.91 404.647v-17.294"/><symbol id="z"><path d="M.546.763A.133.133 0 0 1 .41.9.175.175 0 0 1 .289.858.427.427 0 0 1 .16.645L.001.01C0 .006.005 0 .013 0s.011.002.012.005l.07.276C.114.221.158.184.231.184c.073 0 .148.035.193.079.048.046.08.11.08.184a.18.18 0 0 1-.073.149c.058.033.115.095.115.167M.366.597A.118.118 0 0 0 .318.59C.304.59.284.589.274.594c.002.01.038.008.049.008.021 0 .03 0 .043-.005M.49.786A.21.21 0 0 0 .4.613a.198.198 0 0 1-.077.012C.302.625.246.626.246.593.245.565.297.568.315.568a.18.18 0 0 1 .082.013C.435.545.44.514.441.468a.32.32 0 0 0-.05-.172.217.217 0 0 0-.163-.09C.152.206.114.264.114.335c0 .01 0 .025.005.044l.064.253c.022.086.094.245.214.245C.455.877.49.846.49.786z"/></symbol><use xlink:href="#z" transform="matrix(14.41174 0 0 -14.41174 248.277 402.255)" fill="#0a3b4c"/><symbol id="A"><path d="M.343.601c.009.036.012.046.104.046.031 0 .041 0 .041.022C.488.67.487.683.471.683L.397.68.317.679.248.68.183.683c-.006 0-.021 0-.021-.022 0-.014.012-.014.032-.014.001 0 .02 0 .038-.002C.253.643.255.641.255.631c0-.002 0-.007-.004-.022L.118.078C.109.044.107.036.03.036c-.017 0-.03 0-.03-.021C0 0 .012 0 .03 0h.503c.025 0 .026.001.034.02.01.027.085.221.085.229C.652.252.65.263.635.263.623.263.621.258.615.242.577.147.533.036.35.036H.237c-.031 0-.032.001-.032.01 0 .001 0 .006.004.021l.134.534z"/></symbol><use xlink:href="#A" transform="matrix(10.08819 0 0 -10.08819 256.707 401.62)" fill="#0a3b4c"/><use xlink:href="#A" transform="matrix(10.08819 0 0 -10.08819 264.613 401.62)" fill="#0a3b4c"/><path stroke-width=".57573884" stroke-miterlimit="10" fill="none" stroke="#0a3b4c" d="M303.494 404.647v-17.294"/><use xlink:href="#z" transform="matrix(14.41174 0 0 -14.41174 336.011 402.255)" fill="#0a3b4c"/><symbol id="B"><path d="M.772.602c.009.037.011.045.085.045.022 0 .034 0 .034.022 0 .004-.003.014-.016.014L.744.679.675.68.612.683c-.006 0-.021 0-.021-.022 0-.014.012-.014.032-.014.001 0 .02 0 .038-.002C.682.643.684.641.684.631.684.63.684.624.68.609L.621.373H.286l.058.232c.009.034.011.042.088.042.017 0 .03 0 .03.022 0 .004-.003.014-.016.014L.315.679.246.68.183.683c-.006 0-.021 0-.021-.022 0-.014.012-.014.032-.014.001 0 .02 0 .038-.002C.253.643.255.641.255.631c0-.002 0-.007-.004-.022L.118.078C.11.044.108.036.03.036c-.017 0-.03 0-.03-.021C0 .005.007 0 .016 0l.13.004.069-.001L.279 0C.284 0 .3 0 .3.021.3.036.29.036.267.036c-.016 0-.02 0-.038.002C.207.041.207.043.207.053c0 .001 0 .007.004.022l.066.262h.335L.547.078C.539.044.537.036.459.036c-.017 0-.03 0-.03-.021C.429.005.436 0 .445 0l.13.004.069-.001L.708 0c.005 0 .021 0 .021.021 0 .015-.01.015-.033.015-.016 0-.02 0-.038.002C.636.041.636.043.636.053c0 .006.003.016.004.022l.132.527z"/></symbol><use xlink:href="#A" transform="matrix(10.08819 0 0 -10.08819 344.441 401.62)" fill="#0a3b4c"/><use xlink:href="#B" transform="matrix(10.08819 0 0 -10.08819 352.347 401.62)" fill="#0a3b4c"/><path stroke-width=".57573884" stroke-miterlimit="10" fill="none" stroke="#0a3b4c" d="M394.683 404.647v-17.294"/><use xlink:href="#z" transform="matrix(14.41174 0 0 -14.41174 460.714 402.255)" fill="#0a3b4c"/><use xlink:href="#A" transform="matrix(10.08819 0 0 -10.08819 469.144 401.62)" fill="#0a3b4c"/><use xlink:href="#B" transform="matrix(10.08819 0 0 -10.08819 477.05 401.62)" fill="#0a3b4c"/><symbol id="C"><path d="M.576 0c.017 0 .035 0 .035.02S.593.04.576.04H.035C.018.04 0 .04 0 .02S.018 0 .035 0h.541z"/></symbol><use xlink:href="#C" transform="matrix(14.41174 0 0 -14.41174 491.684 396.144)" fill="#0a3b4c"/><use xlink:href="#z" transform="matrix(14.41174 0 0 -14.41174 505.317 402.255)" fill="#0a3b4c"/><use xlink:href="#A" transform="matrix(10.08819 0 0 -10.08819 513.746 401.62)" fill="#0a3b4c"/><use xlink:href="#A" transform="matrix(10.08819 0 0 -10.08819 521.652 401.62)" fill="#0a3b4c"/><path stroke-width=".57573884" stroke-miterlimit="10" fill="none" stroke="#0a3b4c" d="M136.925 404.934h458.27"/><use xlink:href="#p" transform="matrix(14.41174 0 0 -14.41174 162.38 416.753)" fill="#0a3b4c"/><use xlink:href="#l" transform="matrix(14.41174 0 0 -14.41174 173.19 416.753)" fill="#0a3b4c"/><use xlink:href="#q" transform="matrix(14.41174 0 0 -14.41174 177.12 419.722)" fill="#0a3b4c"/><use xlink:href="#r" transform="matrix(14.41174 0 0 -14.41174 184.384 416.753)" fill="#0a3b4c"/><path stroke-width=".57573884" stroke-miterlimit="10" fill="none" stroke="#0a3b4c" d="M216.91 421.94v-17.294"/><use xlink:href="#z" transform="matrix(14.41174 0 0 -14.41174 247.125 419.549)" fill="#0a3b4c"/><use xlink:href="#B" transform="matrix(10.08819 0 0 -10.08819 255.556 418.914)" fill="#0a3b4c"/><use xlink:href="#A" transform="matrix(10.08819 0 0 -10.08819 265.76 418.914)" fill="#0a3b4c"/><path stroke-width=".57573884" stroke-miterlimit="10" fill="none" stroke="#0a3b4c" d="M303.494 421.94v-17.294"/><use xlink:href="#z" transform="matrix(14.41174 0 0 -14.41174 334.86 419.549)" fill="#0a3b4c"/><use xlink:href="#B" transform="matrix(10.08819 0 0 -10.08819 343.29 418.914)" fill="#0a3b4c"/><use xlink:href="#B" transform="matrix(10.08819 0 0 -10.08819 353.505 418.914)" fill="#0a3b4c"/><path stroke-width=".57573884" stroke-miterlimit="10" fill="none" stroke="#0a3b4c" d="M394.683 421.94v-17.294"/><use xlink:href="#z" transform="matrix(14.41174 0 0 -14.41174 458.41 419.549)" fill="#0a3b4c"/><use xlink:href="#B" transform="matrix(10.08819 0 0 -10.08819 466.84 418.914)" fill="#0a3b4c"/><use xlink:href="#B" transform="matrix(10.08819 0 0 -10.08819 477.055 418.914)" fill="#0a3b4c"/><use xlink:href="#C" transform="matrix(14.41174 0 0 -14.41174 491.684 413.438)" fill="#0a3b4c"/><use xlink:href="#z" transform="matrix(14.41174 0 0 -14.41174 505.317 419.549)" fill="#0a3b4c"/><use xlink:href="#B" transform="matrix(10.08819 0 0 -10.08819 513.746 418.914)" fill="#0a3b4c"/><use xlink:href="#A" transform="matrix(10.08819 0 0 -10.08819 523.962 418.914)" fill="#0a3b4c"/><path stroke-width=".57573884" stroke-miterlimit="10" fill="none" stroke="#0a3b4c" d="M136.925 422.23h458.27"/><use xlink:href="#s" transform="matrix(14.41174 0 0 -14.41174 146.076 434.047)" fill="#0a3b4c"/><use xlink:href="#l" transform="matrix(14.41174 0 0 -14.41174 157.056 434.047)" fill="#0a3b4c"/><use xlink:href="#t" transform="matrix(14.41174 0 0 -14.41174 160.975 434.047)" fill="#0a3b4c"/><use xlink:href="#f" transform="matrix(14.41174 0 0 -14.41174 169.39 434.205)" fill="#0a3b4c"/><use xlink:href="#j" transform="matrix(14.41174 0 0 -14.41174 175.787 434.047)" fill="#0a3b4c"/><use xlink:href="#f" transform="matrix(14.41174 0 0 -14.41174 181.435 434.205)" fill="#0a3b4c"/><use xlink:href="#d" transform="matrix(14.41174 0 0 -14.41174 187.89 434.047)" fill="#0a3b4c"/><use xlink:href="#i" transform="matrix(14.41174 0 0 -14.41174 195.93 434.205)" fill="#0a3b4c"/><use xlink:href="#f" transform="matrix(14.41174 0 0 -14.41174 202.241 434.205)" fill="#0a3b4c"/><path stroke-width=".57573884" stroke-miterlimit="10" fill="none" stroke="#0a3b4c" d="M216.91 439.236v-17.294"/><use xlink:href="#z" transform="matrix(14.41174 0 0 -14.41174 225.975 436.843)" fill="#0a3b4c"/><use xlink:href="#B" transform="matrix(10.08819 0 0 -10.08819 234.405 436.208)" fill="#0a3b4c"/><use xlink:href="#A" transform="matrix(10.08819 0 0 -10.08819 244.62 436.208)" fill="#0a3b4c"/><use xlink:href="#C" transform="matrix(14.41174 0 0 -14.41174 256.945 430.732)" fill="#0a3b4c"/><use xlink:href="#z" transform="matrix(14.41174 0 0 -14.41174 270.58 436.843)" fill="#0a3b4c"/><use xlink:href="#A" transform="matrix(10.08819 0 0 -10.08819 279.01 436.208)" fill="#0a3b4c"/><use xlink:href="#A" transform="matrix(10.08819 0 0 -10.08819 286.915 436.208)" fill="#0a3b4c"/><path stroke-width=".57573884" stroke-miterlimit="10" fill="none" stroke="#0a3b4c" d="M303.494 439.236v-17.294"/><use xlink:href="#z" transform="matrix(14.41174 0 0 -14.41174 312.558 436.843)" fill="#0a3b4c"/><use xlink:href="#B" transform="matrix(10.08819 0 0 -10.08819 320.988 436.208)" fill="#0a3b4c"/><use xlink:href="#B" transform="matrix(10.08819 0 0 -10.08819 331.203 436.208)" fill="#0a3b4c"/><use xlink:href="#C" transform="matrix(14.41174 0 0 -14.41174 345.832 430.732)" fill="#0a3b4c"/><use xlink:href="#z" transform="matrix(14.41174 0 0 -14.41174 359.465 436.843)" fill="#0a3b4c"/><use xlink:href="#A" transform="matrix(10.08819 0 0 -10.08819 367.896 436.208)" fill="#0a3b4c"/><use xlink:href="#B" transform="matrix(10.08819 0 0 -10.08819 375.802 436.208)" fill="#0a3b4c"/><path stroke-width=".57573884" stroke-miterlimit="10" fill="none" stroke="#0a3b4c" d="M394.683 439.236v-17.294"/><symbol id="D"><path d="M.232.01c0 .003 0 .005-.017.022C.09.158.058.347.058.5c0 .174.038.348.161.473.013.012.013.014.013.017 0 .007-.004.01-.01.01-.01 0-.1-.068-.159-.195A.727.727 0 0 1 0 .5C0 .422.011.301.066.188A.432.432 0 0 1 .222 0c.006 0 .01.003.01.01z"/></symbol><use xlink:href="#D" transform="matrix(14.41174 0 0 -14.41174 404.758 437.65)" fill="#0a3b4c"/><use xlink:href="#z" transform="matrix(14.41174 0 0 -14.41174 409.353 436.843)" fill="#0a3b4c"/><use xlink:href="#B" transform="matrix(10.08819 0 0 -10.08819 417.783 436.208)" fill="#0a3b4c"/><use xlink:href="#B" transform="matrix(10.08819 0 0 -10.08819 427.998 436.208)" fill="#0a3b4c"/><use xlink:href="#C" transform="matrix(14.41174 0 0 -14.41174 442.627 430.732)" fill="#0a3b4c"/><use xlink:href="#z" transform="matrix(14.41174 0 0 -14.41174 456.26 436.843)" fill="#0a3b4c"/><use xlink:href="#B" transform="matrix(10.08819 0 0 -10.08819 464.691 436.208)" fill="#0a3b4c"/><use xlink:href="#A" transform="matrix(10.08819 0 0 -10.08819 474.896 436.208)" fill="#0a3b4c"/><symbol id="E"><path d="M.232.5a.729.729 0 0 1-.066.312A.432.432 0 0 1 .01 1C.004 1 0 .996 0 .99 0 .987 0 .985.019.967.117.868.174.709.174.5.174.329.137.153.013.027 0 .015 0 .013 0 .01 0 .004.004 0 .01 0c.01 0 .1.068.159.195C.22.305.232.416.232.5z"/></symbol><use xlink:href="#E" transform="matrix(14.41174 0 0 -14.41174 483.654 437.65)" fill="#0a3b4c"/><use xlink:href="#C" transform="matrix(14.41174 0 0 -14.41174 492.835 430.732)" fill="#0a3b4c"/><use xlink:href="#D" transform="matrix(14.41174 0 0 -14.41174 507.478 437.65)" fill="#0a3b4c"/><use xlink:href="#z" transform="matrix(14.41174 0 0 -14.41174 512.074 436.843)" fill="#0a3b4c"/><use xlink:href="#B" transform="matrix(10.08819 0 0 -10.08819 520.503 436.208)" fill="#0a3b4c"/><use xlink:href="#A" transform="matrix(10.08819 0 0 -10.08819 530.719 436.208)" fill="#0a3b4c"/><use xlink:href="#C" transform="matrix(14.41174 0 0 -14.41174 543.043 430.732)" fill="#0a3b4c"/><use xlink:href="#z" transform="matrix(14.41174 0 0 -14.41174 556.678 436.843)" fill="#0a3b4c"/><use xlink:href="#A" transform="matrix(10.08819 0 0 -10.08819 565.107 436.208)" fill="#0a3b4c"/><use xlink:href="#A" transform="matrix(10.08819 0 0 -10.08819 573.013 436.208)" fill="#0a3b4c"/><use xlink:href="#E" transform="matrix(14.41174 0 0 -14.41174 581.766 437.65)" fill="#0a3b4c"/></g></svg>