<?xml version="1.0" encoding="utf-8"?>
<!-- Generator: Adobe Illustrator 28.1.0, SVG Export Plug-In . SVG Version: 6.00 Build 0)  -->
<svg version="1.1" id="Layer_1" xmlns="http://www.w3.org/2000/svg" xmlns:xlink="http://www.w3.org/1999/xlink" x="0px" y="0px"
	 viewBox="0 0 275.5 183.7" style="enable-background:new 0 0 275.5 183.7;" xml:space="preserve">
<style type="text/css">
	.st0{clip-path:url(#SVGID_00000035513940981416857450000006649517059664786837_);}
	
		.st1{clip-path:url(#SVGID_00000041283331906491917600000011778836660468316808_);fill:none;stroke:#000000;stroke-width:1.633;stroke-linecap:round;stroke-linejoin:round;stroke-miterlimit:10;}
	
		.st2{clip-path:url(#SVGID_00000035513940981416857450000006649517059664786837_);fill:none;stroke:#000000;stroke-width:0.8165;stroke-linecap:round;stroke-linejoin:round;stroke-miterlimit:10;}
	.st3{font-family:'Helvetica';}
	.st4{font-size:4.4643px;}
	.st5{font-size:5.7398px;}
	
		.st6{clip-path:url(#SVGID_00000002373437511485478990000004524999115405086592_);fill:none;stroke:#0000FF;stroke-width:1.633;stroke-linecap:round;stroke-linejoin:round;stroke-miterlimit:10;stroke-dasharray:4.8989,8.1648;}
	
		.st7{clip-path:url(#SVGID_00000002373437511485478990000004524999115405086592_);fill:none;stroke:#FF0000;stroke-width:1.633;stroke-linecap:round;stroke-linejoin:round;stroke-miterlimit:10;stroke-dasharray:0,6.5318;}
	
		.st8{clip-path:url(#SVGID_00000002373437511485478990000004524999115405086592_);fill:none;stroke:#00FF00;stroke-width:1.633;stroke-linecap:round;stroke-linejoin:round;stroke-miterlimit:10;stroke-dasharray:0,6.5318,4.8989,6.5318;}
	
		.st9{clip-path:url(#SVGID_00000002373437511485478990000004524999115405086592_);fill:none;stroke:#000000;stroke-width:0.8165;stroke-linecap:round;stroke-linejoin:round;stroke-miterlimit:10;}
	
		.st10{clip-path:url(#SVGID_00000002373437511485478990000004524999115405086592_);fill:none;stroke:#0000FF;stroke-width:0.8165;stroke-linecap:round;stroke-linejoin:round;stroke-miterlimit:10;stroke-dasharray:2.4494,4.0824;}
	
		.st11{clip-path:url(#SVGID_00000002373437511485478990000004524999115405086592_);fill:none;stroke:#FF0000;stroke-width:0.8165;stroke-linecap:round;stroke-linejoin:round;stroke-miterlimit:10;stroke-dasharray:0,3.2659;}
	
		.st12{clip-path:url(#SVGID_00000002373437511485478990000004524999115405086592_);fill:none;stroke:#00FF00;stroke-width:0.8165;stroke-linecap:round;stroke-linejoin:round;stroke-miterlimit:10;stroke-dasharray:0,3.2659,2.4494,3.2659;}
	.st13{clip-path:url(#SVGID_00000002373437511485478990000004524999115405086592_);}
	.st14{font-size:3.8266px;}
</style>
<g>
	<defs>
		<rect id="SVGID_1_" width="275.5" height="183.7"/>
	</defs>
	<clipPath id="SVGID_00000102541062527444237750000003898234469603352757_">
		<use xlink:href="#SVGID_1_"  style="overflow:visible;"/>
	</clipPath>
	<g style="clip-path:url(#SVGID_00000102541062527444237750000003898234469603352757_);">
		<defs>
			<rect id="SVGID_00000172442503064987043610000009722497091957071025_" x="36.7" y="9.2" width="237.9" height="137.8"/>
		</defs>
		<clipPath id="SVGID_00000116949413953822573060000011325955513335380113_">
			<use xlink:href="#SVGID_00000172442503064987043610000009722497091957071025_"  style="overflow:visible;"/>
		</clipPath>
		
			<polyline style="clip-path:url(#SVGID_00000116949413953822573060000011325955513335380113_);fill:none;stroke:#000000;stroke-width:1.633;stroke-linecap:round;stroke-linejoin:round;stroke-miterlimit:10;" points="
			45.5,79.9 45.8,79.8 46,79.8 46.2,79.8 46.4,79.8 46.6,79.7 46.9,79.7 47.1,79.7 47.3,79.7 47.5,79.7 47.7,79.7 48,79.7 
			48.2,79.7 48.4,79.7 48.6,79.7 48.8,79.7 49.1,79.7 49.3,79.7 49.5,79.7 49.7,79.7 49.9,79.7 50.2,79.8 50.4,79.8 50.6,79.8 
			50.8,79.8 51.1,79.9 51.3,79.9 51.5,79.9 51.7,80 51.9,80 52.1,80.1 52.4,80.1 52.6,80.2 52.8,80.2 53,80.2 53.3,80.3 53.5,80.4 
			53.7,80.4 53.9,80.5 54.1,80.5 54.4,80.6 54.6,80.7 54.8,80.8 55,80.8 55.2,80.9 55.5,81 55.7,81.1 55.9,81.1 56.1,81.2 
			56.3,81.3 56.6,81.4 56.8,81.5 57,81.6 57.2,81.7 57.4,81.8 57.7,81.9 57.9,82 58.1,82.1 58.3,82.2 58.5,82.3 58.8,82.4 59,82.5 
			59.2,82.6 59.4,82.7 59.6,82.8 59.9,82.9 60.1,83.1 60.3,83.2 60.5,83.3 60.7,83.4 61,83.5 61.2,83.7 61.4,83.8 61.6,83.9 
			61.8,84.1 62.1,84.2 62.3,84.3 62.5,84.5 62.7,84.6 62.9,84.7 63.2,84.9 63.4,85 63.6,85.2 63.8,85.3 64,85.5 64.3,85.6 
			64.5,85.8 64.7,85.9 64.9,86.1 65.1,86.2 65.4,86.4 65.6,86.5 65.8,86.7 66,86.8 66.2,87 66.5,87.1 66.7,87.3 66.9,87.5 
			67.1,87.6 67.3,87.8 67.6,88 67.8,88.1 68,88.3 68.2,88.5 68.5,88.6 68.7,88.8 68.9,89 69.1,89.1 69.3,89.3 69.5,89.5 69.8,89.6 
			70,89.8 70.2,90 70.4,90.2 70.7,90.3 70.9,90.5 71.1,90.7 71.3,90.9 71.5,91 71.8,91.2 72,91.4 72.2,91.6 72.4,91.7 72.6,91.9 
			72.9,92.1 73.1,92.3 73.3,92.4 73.5,92.6 73.7,92.8 74,93 74.2,93.2 74.4,93.3 74.6,93.5 74.8,93.7 75.1,93.9 75.3,94 75.5,94.2 
			75.7,94.4 75.9,94.6 76.2,94.8 76.4,94.9 76.6,95.1 76.8,95.3 77,95.5 77.3,95.6 77.5,95.8 77.7,96 77.9,96.2 78.1,96.3 
			78.4,96.5 78.6,96.7 78.8,96.8 79,97 79.2,97.2 79.5,97.4 79.7,97.5 79.9,97.7 80.1,97.9 80.3,98 80.6,98.2 80.8,98.4 81,98.5 
			81.2,98.7 81.4,98.9 81.7,99 81.9,99.2 82.1,99.3 82.3,99.5 82.5,99.7 82.8,99.8 83,100 83.2,100.1 83.4,100.3 83.6,100.4 
			83.9,100.6 84.1,100.7 84.3,100.9 84.5,101 84.7,101.2 85,101.3 85.2,101.5 85.4,101.6 85.6,101.7 85.8,101.9 86.1,102 
			86.3,102.2 86.5,102.3 86.7,102.4 87,102.6 87.2,102.7 87.4,102.8 87.6,103 87.8,103.1 88,103.2 88.3,103.3 88.5,103.5 
			88.7,103.6 88.9,103.7 89.2,103.8 89.4,103.9 89.6,104 89.8,104.1 90,104.3 90.3,104.4 90.5,104.5 90.7,104.6 90.9,104.7 
			91.1,104.8 91.4,104.9 91.6,105 91.8,105.1 92,105.2 92.2,105.3 92.5,105.3 92.7,105.4 92.9,105.5 93.1,105.6 93.3,105.7 
			93.6,105.8 93.8,105.8 94,105.9 94.2,106 94.4,106.1 94.7,106.1 94.9,106.2 95.1,106.3 95.3,106.3 95.5,106.4 95.8,106.5 
			96,106.5 96.2,106.6 96.4,106.6 96.6,106.7 96.9,106.7 97.1,106.8 97.3,106.8 97.5,106.9 97.7,106.9 98,106.9 98.2,107 98.4,107 
			98.6,107 98.8,107.1 99.1,107.1 99.3,107.1 99.5,107.1 99.7,107.2 99.9,107.2 100.2,107.2 100.4,107.2 100.6,107.2 100.8,107.2 
			101,107.2 101.3,107.2 101.5,107.2 101.7,107.2 101.9,107.2 102.1,107.2 102.4,107.2 102.6,107.2 102.8,107.2 103,107.2 
			103.2,107.2 103.5,107.2 103.7,107.2 103.9,107.1 104.1,107.1 104.4,107.1 104.6,107.1 104.8,107 105,107 105.2,107 105.4,106.9 
			105.7,106.9 105.9,106.9 106.1,106.8 106.3,106.8 106.6,106.7 106.8,106.7 107,106.6 107.2,106.6 107.4,106.5 107.7,106.5 
			107.9,106.4 108.1,106.3 108.3,106.3 108.5,106.2 108.8,106.1 109,106.1 109.2,106 109.4,105.9 109.6,105.9 109.9,105.8 
			110.1,105.7 110.3,105.6 110.5,105.5 110.7,105.5 111,105.4 111.2,105.3 111.4,105.2 111.6,105.1 111.8,105 112.1,104.9 
			112.3,104.8 112.5,104.7 112.7,104.6 112.9,104.5 113.2,104.4 113.4,104.3 113.6,104.2 113.8,104.1 114,104 114.3,103.9 
			114.5,103.8 114.7,103.7 114.9,103.5 115.1,103.4 115.4,103.3 115.6,103.2 115.8,103.1 116,102.9 116.2,102.8 116.5,102.7 
			116.7,102.6 116.9,102.4 117.1,102.3 117.3,102.2 117.6,102 117.8,101.9 118,101.8 118.2,101.6 118.4,101.5 118.7,101.4 
			118.9,101.2 119.1,101.1 119.3,100.9 119.5,100.8 119.8,100.7 120,100.5 120.2,100.4 120.4,100.2 120.6,100.1 120.9,99.9 
			121.1,99.8 121.3,99.6 121.5,99.5 121.7,99.3 122,99.2 122.2,99 122.4,98.9 122.6,98.7 122.9,98.6 123.1,98.4 123.3,98.2 
			123.5,98.1 123.7,97.9 123.9,97.8 124.2,97.6 124.4,97.5 124.6,97.3 124.8,97.1 125.1,97 125.3,96.8 125.5,96.7 125.7,96.5 
			125.9,96.3 126.2,96.2 126.4,96 126.6,95.8 126.8,95.7 127,95.5 127.3,95.4 127.5,95.2 127.7,95 127.9,94.9 128.1,94.7 
			128.4,94.5 128.6,94.4 128.8,94.2 129,94.1 129.2,93.9 129.5,93.7 129.7,93.6 129.9,93.4 130.1,93.3 130.3,93.1 130.6,92.9 
			130.8,92.8 131,92.6 131.2,92.4 131.4,92.3 131.7,92.1 131.9,92 132.1,91.8 132.3,91.7 132.5,91.5 132.8,91.4 133,91.2 133.2,91 
			133.4,90.9 133.6,90.7 133.9,90.6 134.1,90.4 134.3,90.3 134.5,90.1 134.7,90 135,89.8 135.2,89.7 135.4,89.5 135.6,89.4 
			135.8,89.2 136.1,89.1 136.3,89 136.5,88.8 136.7,88.7 136.9,88.5 137.2,88.4 137.4,88.3 137.6,88.1 137.8,88 138,87.9 
			138.3,87.7 138.5,87.6 138.7,87.5 138.9,87.3 139.1,87.2 139.4,87.1 139.6,87 139.8,86.8 140,86.7 140.2,86.6 140.5,86.5 
			140.7,86.4 140.9,86.3 141.1,86.1 141.3,86 141.6,85.9 141.8,85.8 142,85.7 142.2,85.6 142.5,85.5 142.7,85.4 142.9,85.3 
			143.1,85.2 143.3,85.1 143.6,85 143.8,84.9 144,84.8 144.2,84.7 144.4,84.6 144.7,84.5 144.9,84.5 145.1,84.4 145.3,84.3 
			145.5,84.2 145.8,84.1 146,84.1 146.2,84 146.4,83.9 146.6,83.9 146.9,83.8 147.1,83.7 147.3,83.7 147.5,83.6 147.7,83.5 
			148,83.5 148.2,83.4 148.4,83.4 148.6,83.3 148.8,83.3 149.1,83.2 149.3,83.2 149.5,83.1 149.7,83.1 149.9,83.1 150.2,83 
			150.4,83 150.6,83 150.8,82.9 151,82.9 151.3,82.9 151.5,82.9 151.7,82.8 151.9,82.8 152.1,82.8 152.4,82.8 152.6,82.8 
			152.8,82.8 153,82.8 153.2,82.8 153.5,82.8 153.7,82.8 153.9,82.8 154.1,82.8 154.3,82.8 154.6,82.8 154.8,82.8 155,82.8 
			155.2,82.8 155.4,82.8 155.7,82.9 155.9,82.9 156.1,82.9 156.3,82.9 156.5,83 156.8,83 157,83 157.2,83.1 157.4,83.1 157.6,83.2 
			157.9,83.2 158.1,83.2 158.3,83.3 158.5,83.3 158.7,83.4 159,83.5 159.2,83.5 159.4,83.6 159.6,83.6 159.8,83.7 160.1,83.8 
			160.3,83.8 160.5,83.9 160.7,84 161,84 161.2,84.1 161.4,84.2 161.6,84.3 161.8,84.4 162,84.5 162.3,84.5 162.5,84.6 162.7,84.7 
			162.9,84.8 163.2,84.9 163.4,85 163.6,85.1 163.8,85.2 164,85.3 164.3,85.4 164.5,85.5 164.7,85.6 164.9,85.8 165.1,85.9 
			165.4,86 165.6,86.1 165.8,86.2 166,86.4 166.2,86.5 166.5,86.6 166.7,86.7 166.9,86.9 167.1,87 167.3,87.1 167.6,87.3 
			167.8,87.4 168,87.5 168.2,87.7 168.4,87.8 168.7,88 168.9,88.1 169.1,88.3 169.3,88.4 169.5,88.6 169.8,88.7 170,88.9 170.2,89 
			170.4,89.2 170.6,89.3 170.9,89.5 171.1,89.7 171.3,89.8 171.5,90 171.7,90.2 172,90.3 172.2,90.5 172.4,90.7 172.6,90.8 
			172.8,91 173.1,91.2 173.3,91.4 173.5,91.5 173.7,91.7 173.9,91.9 174.2,92.1 174.4,92.2 174.6,92.4 174.8,92.6 175,92.8 
			175.3,93 175.5,93.2 175.7,93.4 175.9,93.5 176.1,93.7 176.4,93.9 176.6,94.1 176.8,94.3 177,94.5 177.2,94.7 177.5,94.9 
			177.7,95.1 177.9,95.3 178.1,95.5 178.3,95.7 178.6,95.9 178.8,96.1 179,96.3 179.2,96.5 179.5,96.7 179.7,96.9 179.9,97.1 
			180.1,97.3 180.3,97.5 180.5,97.7 180.8,97.9 181,98.1 181.2,98.3 181.4,98.5 181.7,98.7 181.9,98.9 182.1,99.1 182.3,99.3 
			182.5,99.5 182.8,99.7 183,99.9 183.2,100.1 183.4,100.3 183.6,100.5 183.9,100.7 184.1,100.9 184.3,101.1 184.5,101.3 
			184.7,101.5 185,101.7 185.2,101.9 185.4,102.1 185.6,102.4 185.8,102.6 186.1,102.8 186.3,103 186.5,103.2 186.7,103.4 
			186.9,103.6 187.2,103.8 187.4,104 187.6,104.2 187.8,104.4 188,104.6 188.3,104.8 188.5,104.9 188.7,105.1 188.9,105.3 
			189.1,105.5 189.4,105.7 189.6,105.9 189.8,106.1 190,106.3 190.2,106.5 190.5,106.7 190.7,106.9 190.9,107.1 191.1,107.3 
			191.3,107.4 191.6,107.6 191.8,107.8 192,108 192.2,108.2 192.4,108.3 192.7,108.5 192.9,108.7 193.1,108.9 193.3,109.1 
			193.5,109.2 193.8,109.4 194,109.6 194.2,109.7 194.4,109.9 194.6,110.1 194.9,110.2 195.1,110.4 195.3,110.6 195.5,110.7 
			195.7,110.9 196,111.1 196.2,111.2 196.4,111.4 196.6,111.5 196.9,111.7 197.1,111.8 197.3,112 197.5,112.1 197.7,112.3 
			197.9,112.4 198.2,112.6 198.4,112.7 198.6,112.9 198.8,113 199.1,113.1 199.3,113.3 199.5,113.4 199.7,113.5 199.9,113.7 
			200.2,113.8 200.4,113.9 200.6,114 200.8,114.2 201,114.3 201.3,114.4 201.5,114.5 201.7,114.6 201.9,114.7 202.1,114.8 
			202.4,114.9 202.6,115.1 202.8,115.2 203,115.3 203.2,115.4 203.5,115.5 203.7,115.5 203.9,115.6 204.1,115.7 204.3,115.8 
			204.6,115.9 204.8,116 205,116.1 205.2,116.2 205.4,116.2 205.7,116.3 205.9,116.4 206.1,116.5 206.3,116.5 206.5,116.6 
			206.8,116.7 207,116.7 207.2,116.8 207.4,116.9 207.6,116.9 207.9,117 208.1,117 208.3,117.1 208.5,117.1 208.7,117.2 209,117.2 
			209.2,117.2 209.4,117.3 209.6,117.3 209.8,117.3 210.1,117.4 210.3,117.4 210.5,117.4 210.7,117.5 210.9,117.5 211.2,117.5 
			211.4,117.5 211.6,117.5 211.8,117.5 212,117.6 212.3,117.6 212.5,117.6 212.7,117.6 212.9,117.6 213.1,117.6 213.4,117.6 
			213.6,117.6 213.8,117.6 214,117.6 214.2,117.5 214.5,117.5 214.7,117.5 214.9,117.5 215.1,117.5 215.4,117.5 215.6,117.4 
			215.8,117.4 216,117.4 216.2,117.3 216.4,117.3 216.7,117.3 216.9,117.2 217.1,117.2 217.3,117.2 217.6,117.1 217.8,117.1 
			218,117 218.2,117 218.4,116.9 218.7,116.9 218.9,116.8 219.1,116.7 219.3,116.7 219.5,116.6 219.8,116.6 220,116.5 220.2,116.4 
			220.4,116.4 220.6,116.3 220.9,116.2 221.1,116.1 221.3,116.1 221.5,116 221.7,115.9 222,115.8 222.2,115.7 222.4,115.6 
			222.6,115.5 222.8,115.5 223.1,115.4 223.3,115.3 223.5,115.2 223.7,115.1 223.9,115 224.2,114.9 224.4,114.8 224.6,114.7 
			224.8,114.6 225,114.5 225.3,114.3 225.5,114.2 225.7,114.1 225.9,114 226.1,113.9 226.4,113.8 226.6,113.7 226.8,113.5 
			227,113.4 227.2,113.3 227.5,113.2 227.7,113 227.9,112.9 228.1,112.8 228.3,112.7 228.6,112.5 228.8,112.4 229,112.3 
			229.2,112.1 229.4,112 229.7,111.9 229.9,111.7 230.1,111.6 230.3,111.5 230.5,111.3 230.8,111.2 231,111 231.2,110.9 
			231.4,110.7 231.6,110.6 231.9,110.5 232.1,110.3 232.3,110.2 232.5,110 232.8,109.9 233,109.7 233.2,109.6 233.4,109.4 
			233.6,109.3 233.8,109.1 234.1,109 234.3,108.8 234.5,108.7 234.7,108.5 235,108.3 235.2,108.2 235.4,108 235.6,107.9 
			235.8,107.7 236.1,107.6 236.3,107.4 236.5,107.3 236.7,107.1 236.9,106.9 237.2,106.8 237.4,106.6 237.6,106.5 237.8,106.3 
			238,106.2 238.3,106 238.5,105.8 238.7,105.7 238.9,105.5 239.1,105.4 239.4,105.2 239.6,105.1 239.8,104.9 240,104.7 
			240.2,104.6 240.5,104.4 240.7,104.3 240.9,104.1 241.1,104 241.3,103.8 241.6,103.6 241.8,103.5 242,103.3 242.2,103.2 
			242.4,103 242.7,102.9 242.9,102.7 243.1,102.6 243.3,102.4 243.5,102.3 243.8,102.1 244,102 244.2,101.8 244.4,101.7 
			244.6,101.5 244.9,101.4 245.1,101.3 245.3,101.1 245.5,101 245.7,100.8 246,100.7 246.2,100.5 246.4,100.4 246.6,100.3 
			246.8,100.1 247.1,100 247.3,99.9 247.5,99.7 247.7,99.6 247.9,99.5 248.2,99.3 248.4,99.2 248.6,99.1 248.8,98.9 249,98.8 
			249.3,98.7 249.5,98.6 249.7,98.5 249.9,98.3 250.1,98.2 250.4,98.1 250.6,98 250.8,97.9 251,97.7 251.2,97.6 251.5,97.5 
			251.7,97.4 251.9,97.3 252.1,97.2 252.3,97.1 252.6,97 252.8,96.9 253,96.8 253.2,96.7 253.5,96.6 253.7,96.5 253.9,96.4 
			254.1,96.3 254.3,96.3 254.5,96.2 254.8,96.1 255,96 255.2,95.9 255.4,95.8 255.7,95.8 255.9,95.7 256.1,95.6 256.3,95.5 
			256.5,95.5 256.8,95.4 257,95.3 257.2,95.3 257.4,95.2 257.6,95.2 257.9,95.1 258.1,95 258.3,95 258.5,94.9 258.7,94.9 259,94.8 
			259.2,94.8 259.4,94.8 259.6,94.7 259.8,94.7 260.1,94.6 260.3,94.6 260.5,94.6 260.7,94.5 260.9,94.5 261.2,94.5 261.4,94.5 
			261.6,94.4 261.8,94.4 262,94.4 262.3,94.4 262.5,94.4 262.7,94.4 262.9,94.4 263.1,94.4 263.4,94.4 263.6,94.4 263.8,94.4 
			264,94.4 264.2,94.4 264.5,94.4 264.7,94.4 264.9,94.4 265.1,94.4 265.3,94.4 265.6,94.4 265.8,94.5 		"/>
	</g>
	
		<line style="clip-path:url(#SVGID_00000102541062527444237750000003898234469603352757_);fill:none;stroke:#000000;stroke-width:0.8165;stroke-linecap:round;stroke-linejoin:round;stroke-miterlimit:10;" x1="45.5" y1="146.9" x2="265.8" y2="146.9"/>
	
		<line style="clip-path:url(#SVGID_00000102541062527444237750000003898234469603352757_);fill:none;stroke:#000000;stroke-width:0.8165;stroke-linecap:round;stroke-linejoin:round;stroke-miterlimit:10;" x1="45.5" y1="146.9" x2="45.5" y2="151.5"/>
	
		<line style="clip-path:url(#SVGID_00000102541062527444237750000003898234469603352757_);fill:none;stroke:#000000;stroke-width:0.8165;stroke-linecap:round;stroke-linejoin:round;stroke-miterlimit:10;" x1="89.6" y1="146.9" x2="89.6" y2="151.5"/>
	
		<line style="clip-path:url(#SVGID_00000102541062527444237750000003898234469603352757_);fill:none;stroke:#000000;stroke-width:0.8165;stroke-linecap:round;stroke-linejoin:round;stroke-miterlimit:10;" x1="133.6" y1="146.9" x2="133.6" y2="151.5"/>
	
		<line style="clip-path:url(#SVGID_00000102541062527444237750000003898234469603352757_);fill:none;stroke:#000000;stroke-width:0.8165;stroke-linecap:round;stroke-linejoin:round;stroke-miterlimit:10;" x1="177.7" y1="146.9" x2="177.7" y2="151.5"/>
	
		<line style="clip-path:url(#SVGID_00000102541062527444237750000003898234469603352757_);fill:none;stroke:#000000;stroke-width:0.8165;stroke-linecap:round;stroke-linejoin:round;stroke-miterlimit:10;" x1="221.7" y1="146.9" x2="221.7" y2="151.5"/>
	
		<line style="clip-path:url(#SVGID_00000102541062527444237750000003898234469603352757_);fill:none;stroke:#000000;stroke-width:0.8165;stroke-linecap:round;stroke-linejoin:round;stroke-miterlimit:10;" x1="265.8" y1="146.9" x2="265.8" y2="151.5"/>
	<g style="clip-path:url(#SVGID_00000102541062527444237750000003898234469603352757_);">
		<text transform="matrix(1 0 0 1 42.4433 163.4702)" class="st3 st4">0.0</text>
	</g>
	<g style="clip-path:url(#SVGID_00000102541062527444237750000003898234469603352757_);">
		<text transform="matrix(1 0 0 1 86.4872 163.4702)" class="st3 st4">0.2</text>
	</g>
	<g style="clip-path:url(#SVGID_00000102541062527444237750000003898234469603352757_);">
		<text transform="matrix(1 0 0 1 130.537 163.4702)" class="st3 st4">0.4</text>
	</g>
	<g style="clip-path:url(#SVGID_00000102541062527444237750000003898234469603352757_);">
		<text transform="matrix(1 0 0 1 174.5869 163.4702)" class="st3 st4">0.6</text>
	</g>
	<g style="clip-path:url(#SVGID_00000102541062527444237750000003898234469603352757_);">
		<text transform="matrix(1 0 0 1 218.6308 163.4702)" class="st3 st4">0.8</text>
	</g>
	<g style="clip-path:url(#SVGID_00000102541062527444237750000003898234469603352757_);">
		<text transform="matrix(1 0 0 1 262.6806 163.4702)" class="st3 st4">1.0</text>
	</g>
	
		<line style="clip-path:url(#SVGID_00000102541062527444237750000003898234469603352757_);fill:none;stroke:#000000;stroke-width:0.8165;stroke-linecap:round;stroke-linejoin:round;stroke-miterlimit:10;" x1="36.7" y1="146.9" x2="36.7" y2="10.6"/>
	
		<line style="clip-path:url(#SVGID_00000102541062527444237750000003898234469603352757_);fill:none;stroke:#000000;stroke-width:0.8165;stroke-linecap:round;stroke-linejoin:round;stroke-miterlimit:10;" x1="36.7" y1="146.9" x2="32.1" y2="146.9"/>
	
		<line style="clip-path:url(#SVGID_00000102541062527444237750000003898234469603352757_);fill:none;stroke:#000000;stroke-width:0.8165;stroke-linecap:round;stroke-linejoin:round;stroke-miterlimit:10;" x1="36.7" y1="124.2" x2="32.1" y2="124.2"/>
	
		<line style="clip-path:url(#SVGID_00000102541062527444237750000003898234469603352757_);fill:none;stroke:#000000;stroke-width:0.8165;stroke-linecap:round;stroke-linejoin:round;stroke-miterlimit:10;" x1="36.7" y1="101.5" x2="32.1" y2="101.5"/>
	
		<line style="clip-path:url(#SVGID_00000102541062527444237750000003898234469603352757_);fill:none;stroke:#000000;stroke-width:0.8165;stroke-linecap:round;stroke-linejoin:round;stroke-miterlimit:10;" x1="36.7" y1="78.8" x2="32.1" y2="78.8"/>
	
		<line style="clip-path:url(#SVGID_00000102541062527444237750000003898234469603352757_);fill:none;stroke:#000000;stroke-width:0.8165;stroke-linecap:round;stroke-linejoin:round;stroke-miterlimit:10;" x1="36.7" y1="56.1" x2="32.1" y2="56.1"/>
	
		<line style="clip-path:url(#SVGID_00000102541062527444237750000003898234469603352757_);fill:none;stroke:#000000;stroke-width:0.8165;stroke-linecap:round;stroke-linejoin:round;stroke-miterlimit:10;" x1="36.7" y1="33.3" x2="32.1" y2="33.3"/>
	
		<line style="clip-path:url(#SVGID_00000102541062527444237750000003898234469603352757_);fill:none;stroke:#000000;stroke-width:0.8165;stroke-linecap:round;stroke-linejoin:round;stroke-miterlimit:10;" x1="36.7" y1="10.6" x2="32.1" y2="10.6"/>
	<g style="clip-path:url(#SVGID_00000102541062527444237750000003898234469603352757_);">
		<text transform="matrix(-6.123234e-17 -1 1 -6.123234e-17 25.7148 153.1968)" class="st3 st4">1e−04</text>
	</g>
	<g style="clip-path:url(#SVGID_00000102541062527444237750000003898234469603352757_);">
		<text transform="matrix(-6.123234e-17 -1 1 -6.123234e-17 25.7148 130.4795)" class="st3 st4">2e−04</text>
	</g>
	<g style="clip-path:url(#SVGID_00000102541062527444237750000003898234469603352757_);">
		<text transform="matrix(-6.123234e-17 -1 1 -6.123234e-17 25.7148 107.7558)" class="st3 st4">3e−04</text>
	</g>
	<g style="clip-path:url(#SVGID_00000102541062527444237750000003898234469603352757_);">
		<text transform="matrix(-6.123234e-17 -1 1 -6.123234e-17 25.7148 85.0386)" class="st3 st4">4e−04</text>
	</g>
	<g style="clip-path:url(#SVGID_00000102541062527444237750000003898234469603352757_);">
		<text transform="matrix(-6.123234e-17 -1 1 -6.123234e-17 25.7148 62.3223)" class="st3 st4">5e−04</text>
	</g>
	<g style="clip-path:url(#SVGID_00000102541062527444237750000003898234469603352757_);">
		<text transform="matrix(-6.123234e-17 -1 1 -6.123234e-17 25.7153 39.5996)" class="st3 st4">6e−04</text>
	</g>
	<g style="clip-path:url(#SVGID_00000102541062527444237750000003898234469603352757_);">
		<text transform="matrix(-6.123234e-17 -1 1 -6.123234e-17 25.7143 16.8823)" class="st3 st4">7e−04</text>
	</g>
	
		<polyline style="clip-path:url(#SVGID_00000102541062527444237750000003898234469603352757_);fill:none;stroke:#000000;stroke-width:0.8165;stroke-linecap:round;stroke-linejoin:round;stroke-miterlimit:10;" points="
		36.7,9.2 36.7,146.9 274.6,146.9 	"/>
	<g style="clip-path:url(#SVGID_00000102541062527444237750000003898234469603352757_);">
		<text transform="matrix(1 0 0 1 154.0703 181.8374)" class="st3 st5">u</text>
	</g>
	<g style="clip-path:url(#SVGID_00000102541062527444237750000003898234469603352757_);">
		<text transform="matrix(-6.123234e-17 -1 1 -6.123234e-17 7.3476 85.5552)" class="st3 st5">MTEs</text>
	</g>
	<g style="clip-path:url(#SVGID_00000102541062527444237750000003898234469603352757_);">
		<defs>
			<rect id="SVGID_00000143597760166457814890000011926676285929018544_" x="36.7" y="9.2" width="237.9" height="137.8"/>
		</defs>
		<clipPath id="SVGID_00000090989695962248858260000010919703983616995005_">
			<use xlink:href="#SVGID_00000143597760166457814890000011926676285929018544_"  style="overflow:visible;"/>
		</clipPath>
		
			<polyline style="clip-path:url(#SVGID_00000090989695962248858260000010919703983616995005_);fill:none;stroke:#0000FF;stroke-width:1.633;stroke-linecap:round;stroke-linejoin:round;stroke-miterlimit:10;stroke-dasharray:4.8989,8.1648;" points="
			45.5,99 45.8,98.9 46,98.9 46.2,98.9 46.4,98.9 46.6,98.8 46.9,98.8 47.1,98.8 47.3,98.8 47.5,98.7 47.7,98.7 48,98.7 48.2,98.6 
			48.4,98.6 48.6,98.6 48.8,98.6 49.1,98.6 49.3,98.5 49.5,98.5 49.7,98.5 49.9,98.5 50.2,98.4 50.4,98.4 50.6,98.4 50.8,98.4 
			51.1,98.3 51.3,98.3 51.5,98.3 51.7,98.3 51.9,98.2 52.1,98.2 52.4,98.2 52.6,98.2 52.8,98.1 53,98.1 53.3,98.1 53.5,98.1 
			53.7,98.1 53.9,98 54.1,98 54.4,98 54.6,98 54.8,97.9 55,97.9 55.2,97.9 55.5,97.9 55.7,97.9 55.9,97.8 56.1,97.8 56.3,97.8 
			56.6,97.8 56.8,97.7 57,97.7 57.2,97.7 57.4,97.7 57.7,97.7 57.9,97.6 58.1,97.6 58.3,97.6 58.5,97.6 58.8,97.6 59,97.5 
			59.2,97.5 59.4,97.5 59.6,97.5 59.9,97.4 60.1,97.4 60.3,97.4 60.5,97.4 60.7,97.4 61,97.3 61.2,97.3 61.4,97.3 61.6,97.3 
			61.8,97.3 62.1,97.2 62.3,97.2 62.5,97.2 62.7,97.2 62.9,97.2 63.2,97.1 63.4,97.1 63.6,97.1 63.8,97.1 64,97.1 64.3,97.1 
			64.5,97 64.7,97 64.9,97 65.1,97 65.4,97 65.6,96.9 65.8,96.9 66,96.9 66.2,96.9 66.5,96.9 66.7,96.9 66.9,96.8 67.1,96.8 
			67.3,96.8 67.6,96.8 67.8,96.8 68,96.7 68.2,96.7 68.5,96.7 68.7,96.7 68.9,96.7 69.1,96.7 69.3,96.6 69.5,96.6 69.8,96.6 
			70,96.6 70.2,96.6 70.4,96.6 70.7,96.5 70.9,96.5 71.1,96.5 71.3,96.5 71.5,96.5 71.8,96.5 72,96.4 72.2,96.4 72.4,96.4 
			72.6,96.4 72.9,96.4 73.1,96.4 73.3,96.4 73.5,96.3 73.7,96.3 74,96.3 74.2,96.3 74.4,96.3 74.6,96.3 74.8,96.3 75.1,96.2 
			75.3,96.2 75.5,96.2 75.7,96.2 75.9,96.2 76.2,96.2 76.4,96.1 76.6,96.1 76.8,96.1 77,96.1 77.3,96.1 77.5,96.1 77.7,96.1 
			77.9,96.1 78.1,96 78.4,96 78.6,96 78.8,96 79,96 79.2,96 79.5,96 79.7,95.9 79.9,95.9 80.1,95.9 80.3,95.9 80.6,95.9 80.8,95.9 
			81,95.9 81.2,95.9 81.4,95.8 81.7,95.8 81.9,95.8 82.1,95.8 82.3,95.8 82.5,95.8 82.8,95.8 83,95.8 83.2,95.8 83.4,95.7 
			83.6,95.7 83.9,95.7 84.1,95.7 84.3,95.7 84.5,95.7 84.7,95.7 85,95.7 85.2,95.7 85.4,95.6 85.6,95.6 85.8,95.6 86.1,95.6 
			86.3,95.6 86.5,95.6 86.7,95.6 87,95.6 87.2,95.6 87.4,95.5 87.6,95.5 87.8,95.5 88,95.5 88.3,95.5 88.5,95.5 88.7,95.5 
			88.9,95.5 89.2,95.5 89.4,95.5 89.6,95.5 89.8,95.4 90,95.4 90.3,95.4 90.5,95.4 90.7,95.4 90.9,95.4 91.1,95.4 91.4,95.4 
			91.6,95.4 91.8,95.4 92,95.4 92.2,95.4 92.5,95.3 92.7,95.3 92.9,95.3 93.1,95.3 93.3,95.3 93.6,95.3 93.8,95.3 94,95.3 
			94.2,95.3 94.4,95.3 94.7,95.3 94.9,95.3 95.1,95.3 95.3,95.2 95.5,95.2 95.8,95.2 96,95.2 96.2,95.2 96.4,95.2 96.6,95.2 
			96.9,95.2 97.1,95.2 97.3,95.2 97.5,95.2 97.7,95.2 98,95.2 98.2,95.2 98.4,95.2 98.6,95.2 98.8,95.2 99.1,95.1 99.3,95.1 
			99.5,95.1 99.7,95.1 99.9,95.1 100.2,95.1 100.4,95.1 100.6,95.1 100.8,95.1 101,95.1 101.3,95.1 101.5,95.1 101.7,95.1 
			101.9,95.1 102.1,95.1 102.4,95.1 102.6,95.1 102.8,95.1 103,95.1 103.2,95.1 103.5,95.1 103.7,95.1 103.9,95.1 104.1,95.1 
			104.4,95 104.6,95 104.8,95 105,95 105.2,95 105.4,95 105.7,95 105.9,95 106.1,95 106.3,95 106.6,95 106.8,95 107,95 107.2,95 
			107.4,95 107.7,95 107.9,95 108.1,95 108.3,95 108.5,95 108.8,95 109,95 109.2,95 109.4,95 109.6,95 109.9,95 110.1,95 110.3,95 
			110.5,95 110.7,95 111,95 111.2,95 111.4,95 111.6,95 111.8,95 112.1,95 112.3,95 112.5,95 112.7,95 112.9,95 113.2,95 113.4,95 
			113.6,95 113.8,95 114,95 114.3,95 114.5,95 114.7,95 114.9,95 115.1,95 115.4,95 115.6,95 115.8,95 116,95 116.2,95 116.5,95 
			116.7,95 116.9,95 117.1,95 117.3,95 117.6,95 117.8,95 118,95 118.2,95 118.4,95 118.7,95 118.9,95 119.1,95 119.3,95 119.5,95 
			119.8,95 120,95 120.2,95 120.4,95 120.6,95 120.9,95 121.1,95 121.3,95 121.5,95.1 121.7,95.1 122,95.1 122.2,95.1 122.4,95.1 
			122.6,95.1 122.9,95.1 123.1,95.1 123.3,95.1 123.5,95.1 123.7,95.1 123.9,95.1 124.2,95.1 124.4,95.1 124.6,95.1 124.8,95.1 
			125.1,95.1 125.3,95.1 125.5,95.1 125.7,95.1 125.9,95.1 126.2,95.1 126.4,95.1 126.6,95.1 126.8,95.2 127,95.2 127.3,95.2 
			127.5,95.2 127.7,95.2 127.9,95.2 128.1,95.2 128.4,95.2 128.6,95.2 128.8,95.2 129,95.2 129.2,95.2 129.5,95.2 129.7,95.2 
			129.9,95.2 130.1,95.2 130.3,95.2 130.6,95.3 130.8,95.3 131,95.3 131.2,95.3 131.4,95.3 131.7,95.3 131.9,95.3 132.1,95.3 
			132.3,95.3 132.5,95.3 132.8,95.3 133,95.3 133.2,95.3 133.4,95.4 133.6,95.4 133.9,95.4 134.1,95.4 134.3,95.4 134.5,95.4 
			134.7,95.4 135,95.4 135.2,95.4 135.4,95.4 135.6,95.4 135.8,95.4 136.1,95.5 136.3,95.5 136.5,95.5 136.7,95.5 136.9,95.5 
			137.2,95.5 137.4,95.5 137.6,95.5 137.8,95.5 138,95.5 138.3,95.5 138.5,95.6 138.7,95.6 138.9,95.6 139.1,95.6 139.4,95.6 
			139.6,95.6 139.8,95.6 140,95.6 140.2,95.6 140.5,95.7 140.7,95.7 140.9,95.7 141.1,95.7 141.3,95.7 141.6,95.7 141.8,95.7 
			142,95.7 142.2,95.7 142.5,95.8 142.7,95.8 142.9,95.8 143.1,95.8 143.3,95.8 143.6,95.8 143.8,95.8 144,95.8 144.2,95.8 
			144.4,95.9 144.7,95.9 144.9,95.9 145.1,95.9 145.3,95.9 145.5,95.9 145.8,95.9 146,96 146.2,96 146.4,96 146.6,96 146.9,96 
			147.1,96 147.3,96 147.5,96 147.7,96.1 148,96.1 148.2,96.1 148.4,96.1 148.6,96.1 148.8,96.1 149.1,96.1 149.3,96.1 149.5,96.2 
			149.7,96.2 149.9,96.2 150.2,96.2 150.4,96.2 150.6,96.2 150.8,96.3 151,96.3 151.3,96.3 151.5,96.3 151.7,96.3 151.9,96.3 
			152.1,96.3 152.4,96.4 152.6,96.4 152.8,96.4 153,96.4 153.2,96.4 153.5,96.4 153.7,96.4 153.9,96.5 154.1,96.5 154.3,96.5 
			154.6,96.5 154.8,96.5 155,96.5 155.2,96.6 155.4,96.6 155.7,96.6 155.9,96.6 156.1,96.6 156.3,96.6 156.5,96.7 156.8,96.7 
			157,96.7 157.2,96.7 157.4,96.7 157.6,96.7 157.9,96.8 158.1,96.8 158.3,96.8 158.5,96.8 158.7,96.8 159,96.9 159.2,96.9 
			159.4,96.9 159.6,96.9 159.8,96.9 160.1,96.9 160.3,97 160.5,97 160.7,97 161,97 161.2,97 161.4,97.1 161.6,97.1 161.8,97.1 
			162,97.1 162.3,97.1 162.5,97.1 162.7,97.2 162.9,97.2 163.2,97.2 163.4,97.2 163.6,97.2 163.8,97.3 164,97.3 164.3,97.3 
			164.5,97.3 164.7,97.3 164.9,97.4 165.1,97.4 165.4,97.4 165.6,97.4 165.8,97.4 166,97.5 166.2,97.5 166.5,97.5 166.7,97.5 
			166.9,97.6 167.1,97.6 167.3,97.6 167.6,97.6 167.8,97.6 168,97.7 168.2,97.7 168.4,97.7 168.7,97.7 168.9,97.7 169.1,97.8 
			169.3,97.8 169.5,97.8 169.8,97.8 170,97.9 170.2,97.9 170.4,97.9 170.6,97.9 170.9,97.9 171.1,98 171.3,98 171.5,98 171.7,98 
			172,98.1 172.2,98.1 172.4,98.1 172.6,98.1 172.8,98.1 173.1,98.2 173.3,98.2 173.5,98.2 173.7,98.2 173.9,98.3 174.2,98.3 
			174.4,98.3 174.6,98.3 174.8,98.4 175,98.4 175.3,98.4 175.5,98.4 175.7,98.5 175.9,98.5 176.1,98.5 176.4,98.5 176.6,98.6 
			176.8,98.6 177,98.6 177.2,98.6 177.5,98.7 177.7,98.7 177.9,98.7 178.1,98.7 178.3,98.8 178.6,98.8 178.8,98.8 179,98.8 
			179.2,98.9 179.5,98.9 179.7,98.9 179.9,98.9 180.1,99 180.3,99 180.5,99 180.8,99 181,99.1 181.2,99.1 181.4,99.1 181.7,99.1 
			181.9,99.2 182.1,99.2 182.3,99.2 182.5,99.3 182.8,99.3 183,99.3 183.2,99.3 183.4,99.4 183.6,99.4 183.9,99.4 184.1,99.4 
			184.3,99.5 184.5,99.5 184.7,99.5 185,99.6 185.2,99.6 185.4,99.6 185.6,99.6 185.8,99.7 186.1,99.7 186.3,99.7 186.5,99.8 
			186.7,99.8 186.9,99.8 187.2,99.8 187.4,99.9 187.6,99.9 187.8,99.9 188,100 188.3,100 188.5,100 188.7,100 188.9,100.1 
			189.1,100.1 189.4,100.1 189.6,100.2 189.8,100.2 190,100.2 190.2,100.2 190.5,100.3 190.7,100.3 190.9,100.3 191.1,100.4 
			191.3,100.4 191.6,100.4 191.8,100.5 192,100.5 192.2,100.5 192.4,100.6 192.7,100.6 192.9,100.6 193.1,100.6 193.3,100.7 
			193.5,100.7 193.8,100.7 194,100.8 194.2,100.8 194.4,100.8 194.6,100.9 194.9,100.9 195.1,100.9 195.3,101 195.5,101 195.7,101 
			196,101.1 196.2,101.1 196.4,101.1 196.6,101.2 196.9,101.2 197.1,101.2 197.3,101.3 197.5,101.3 197.7,101.3 197.9,101.4 
			198.2,101.4 198.4,101.4 198.6,101.4 198.8,101.5 199.1,101.5 199.3,101.6 199.5,101.6 199.7,101.6 199.9,101.7 200.2,101.7 
			200.4,101.7 200.6,101.7 200.8,101.8 201,101.8 201.3,101.9 201.5,101.9 201.7,101.9 201.9,102 202.1,102 202.4,102 202.6,102.1 
			202.8,102.1 203,102.1 203.2,102.2 203.5,102.2 203.7,102.2 203.9,102.3 204.1,102.3 204.3,102.3 204.6,102.4 204.8,102.4 
			205,102.4 205.2,102.5 205.4,102.5 205.7,102.6 205.9,102.6 206.1,102.6 206.3,102.7 206.5,102.7 206.8,102.7 207,102.8 
			207.2,102.8 207.4,102.8 207.6,102.9 207.9,102.9 208.1,103 208.3,103 208.5,103 208.7,103.1 209,103.1 209.2,103.1 209.4,103.2 
			209.6,103.2 209.8,103.3 210.1,103.3 210.3,103.3 210.5,103.4 210.7,103.4 210.9,103.4 211.2,103.5 211.4,103.5 211.6,103.6 
			211.8,103.6 212,103.6 212.3,103.7 212.5,103.7 212.7,103.8 212.9,103.8 213.1,103.8 213.4,103.9 213.6,103.9 213.8,103.9 
			214,104 214.2,104 214.5,104.1 214.7,104.1 214.9,104.1 215.1,104.2 215.4,104.2 215.6,104.3 215.8,104.3 216,104.3 216.2,104.4 
			216.4,104.4 216.7,104.5 216.9,104.5 217.1,104.5 217.3,104.6 217.6,104.6 217.8,104.7 218,104.7 218.2,104.7 218.4,104.8 
			218.7,104.8 218.9,104.9 219.1,104.9 219.3,104.9 219.5,105 219.8,105 220,105.1 220.2,105.1 220.4,105.2 220.6,105.2 
			220.9,105.2 221.1,105.3 221.3,105.3 221.5,105.4 221.7,105.4 222,105.4 222.2,105.5 222.4,105.5 222.6,105.6 222.8,105.6 
			223.1,105.7 223.3,105.7 223.5,105.7 223.7,105.8 223.9,105.8 224.2,105.9 224.4,105.9 224.6,106 224.8,106 225,106 225.3,106.1 
			225.5,106.1 225.7,106.2 225.9,106.2 226.1,106.3 226.4,106.3 226.6,106.4 226.8,106.4 227,106.4 227.2,106.5 227.5,106.5 
			227.7,106.6 227.9,106.6 228.1,106.7 228.3,106.7 228.6,106.8 228.8,106.8 229,106.8 229.2,106.9 229.4,106.9 229.7,107 
			229.9,107 230.1,107.1 230.3,107.1 230.5,107.2 230.8,107.2 231,107.3 231.2,107.3 231.4,107.3 231.6,107.4 231.9,107.4 
			232.1,107.5 232.3,107.5 232.5,107.6 232.8,107.6 233,107.7 233.2,107.7 233.4,107.8 233.6,107.8 233.8,107.9 234.1,107.9 
			234.3,107.9 234.5,108 234.7,108 235,108.1 235.2,108.1 235.4,108.2 235.6,108.2 235.8,108.3 236.1,108.3 236.3,108.4 
			236.5,108.4 236.7,108.5 236.9,108.5 237.2,108.6 237.4,108.6 237.6,108.7 237.8,108.7 238,108.8 238.3,108.8 238.5,108.9 
			238.7,108.9 238.9,108.9 239.1,109 239.4,109.1 239.6,109.1 239.8,109.1 240,109.2 240.2,109.2 240.5,109.3 240.7,109.3 
			240.9,109.4 241.1,109.4 241.3,109.5 241.6,109.5 241.8,109.6 242,109.6 242.2,109.7 242.4,109.7 242.7,109.8 242.9,109.8 
			243.1,109.9 243.3,109.9 243.5,110 243.8,110 244,110.1 244.2,110.1 244.4,110.2 244.6,110.2 244.9,110.3 245.1,110.4 
			245.3,110.4 245.5,110.5 245.7,110.5 246,110.6 246.2,110.6 246.4,110.7 246.6,110.7 246.8,110.8 247.1,110.8 247.3,110.9 
			247.5,110.9 247.7,111 247.9,111 248.2,111.1 248.4,111.1 248.6,111.2 248.8,111.2 249,111.3 249.3,111.3 249.5,111.4 
			249.7,111.4 249.9,111.5 250.1,111.6 250.4,111.6 250.6,111.7 250.8,111.7 251,111.8 251.2,111.8 251.5,111.9 251.7,111.9 
			251.9,112 252.1,112 252.3,112.1 252.6,112.1 252.8,112.2 253,112.3 253.2,112.3 253.5,112.4 253.7,112.4 253.9,112.5 
			254.1,112.5 254.3,112.6 254.5,112.6 254.8,112.7 255,112.7 255.2,112.8 255.4,112.9 255.7,112.9 255.9,113 256.1,113 
			256.3,113.1 256.5,113.1 256.8,113.2 257,113.2 257.2,113.3 257.4,113.3 257.6,113.4 257.9,113.5 258.1,113.5 258.3,113.6 
			258.5,113.6 258.7,113.7 259,113.7 259.2,113.8 259.4,113.9 259.6,113.9 259.8,114 260.1,114 260.3,114.1 260.5,114.1 
			260.7,114.2 260.9,114.3 261.2,114.3 261.4,114.4 261.6,114.4 261.8,114.5 262,114.5 262.3,114.6 262.5,114.7 262.7,114.7 
			262.9,114.8 263.1,114.8 263.4,114.9 263.6,114.9 263.8,115 264,115.1 264.2,115.1 264.5,115.2 264.7,115.2 264.9,115.3 
			265.1,115.4 265.3,115.4 265.6,115.5 265.8,115.5 		"/>
		
			<polyline style="clip-path:url(#SVGID_00000090989695962248858260000010919703983616995005_);fill:none;stroke:#FF0000;stroke-width:1.633;stroke-linecap:round;stroke-linejoin:round;stroke-miterlimit:10;stroke-dasharray:0,6.5318;" points="
			45.5,141.8 45.8,141.4 46,140.9 46.2,140.5 46.4,140 46.6,139.6 46.9,139.1 47.1,138.7 47.3,138.2 47.5,137.8 47.7,137.4 
			48,136.9 48.2,136.5 48.4,136 48.6,135.6 48.8,135.2 49.1,134.8 49.3,134.3 49.5,133.9 49.7,133.5 49.9,133.1 50.2,132.6 
			50.4,132.2 50.6,131.8 50.8,131.4 51.1,131 51.3,130.6 51.5,130.2 51.7,129.8 51.9,129.4 52.1,129 52.4,128.6 52.6,128.2 
			52.8,127.8 53,127.4 53.3,127 53.5,126.6 53.7,126.2 53.9,125.9 54.1,125.5 54.4,125.1 54.6,124.7 54.8,124.3 55,124 55.2,123.6 
			55.5,123.2 55.7,122.9 55.9,122.5 56.1,122.1 56.3,121.8 56.6,121.4 56.8,121 57,120.7 57.2,120.3 57.4,120 57.7,119.6 
			57.9,119.3 58.1,118.9 58.3,118.6 58.5,118.2 58.8,117.9 59,117.6 59.2,117.2 59.4,116.9 59.6,116.5 59.9,116.2 60.1,115.9 
			60.3,115.5 60.5,115.2 60.7,114.9 61,114.6 61.2,114.2 61.4,113.9 61.6,113.6 61.8,113.3 62.1,113 62.3,112.7 62.5,112.3 
			62.7,112 62.9,111.7 63.2,111.4 63.4,111.1 63.6,110.8 63.8,110.5 64,110.2 64.3,109.9 64.5,109.6 64.7,109.3 64.9,109 
			65.1,108.7 65.4,108.5 65.6,108.2 65.8,107.9 66,107.6 66.2,107.3 66.5,107 66.7,106.8 66.9,106.5 67.1,106.2 67.3,105.9 
			67.6,105.7 67.8,105.4 68,105.1 68.2,104.8 68.5,104.6 68.7,104.3 68.9,104.1 69.1,103.8 69.3,103.5 69.5,103.3 69.8,103 
			70,102.8 70.2,102.5 70.4,102.3 70.7,102 70.9,101.8 71.1,101.5 71.3,101.3 71.5,101 71.8,100.8 72,100.6 72.2,100.3 72.4,100.1 
			72.6,99.9 72.9,99.6 73.1,99.4 73.3,99.2 73.5,98.9 73.7,98.7 74,98.5 74.2,98.3 74.4,98 74.6,97.8 74.8,97.6 75.1,97.4 
			75.3,97.2 75.5,97 75.7,96.7 75.9,96.5 76.2,96.3 76.4,96.1 76.6,95.9 76.8,95.7 77,95.5 77.3,95.3 77.5,95.1 77.7,94.9 
			77.9,94.7 78.1,94.5 78.4,94.3 78.6,94.1 78.8,93.9 79,93.8 79.2,93.6 79.5,93.4 79.7,93.2 79.9,93 80.1,92.8 80.3,92.6 
			80.6,92.5 80.8,92.3 81,92.1 81.2,91.9 81.4,91.8 81.7,91.6 81.9,91.4 82.1,91.3 82.3,91.1 82.5,90.9 82.8,90.8 83,90.6 
			83.2,90.4 83.4,90.3 83.6,90.1 83.9,90 84.1,89.8 84.3,89.6 84.5,89.5 84.7,89.3 85,89.2 85.2,89 85.4,88.9 85.6,88.7 85.8,88.6 
			86.1,88.5 86.3,88.3 86.5,88.2 86.7,88 87,87.9 87.2,87.8 87.4,87.6 87.6,87.5 87.8,87.4 88,87.2 88.3,87.1 88.5,87 88.7,86.8 
			88.9,86.7 89.2,86.6 89.4,86.5 89.6,86.3 89.8,86.2 90,86.1 90.3,86 90.5,85.9 90.7,85.8 90.9,85.6 91.1,85.5 91.4,85.4 
			91.6,85.3 91.8,85.2 92,85.1 92.2,85 92.5,84.9 92.7,84.8 92.9,84.7 93.1,84.6 93.3,84.5 93.6,84.4 93.8,84.3 94,84.2 94.2,84.1 
			94.4,84 94.7,83.9 94.9,83.8 95.1,83.7 95.3,83.6 95.5,83.5 95.8,83.4 96,83.4 96.2,83.3 96.4,83.2 96.6,83.1 96.9,83 97.1,82.9 
			97.3,82.9 97.5,82.8 97.7,82.7 98,82.6 98.2,82.6 98.4,82.5 98.6,82.4 98.8,82.3 99.1,82.3 99.3,82.2 99.5,82.1 99.7,82.1 
			99.9,82 100.2,81.9 100.4,81.9 100.6,81.8 100.8,81.8 101,81.7 101.3,81.6 101.5,81.6 101.7,81.5 101.9,81.5 102.1,81.4 
			102.4,81.4 102.6,81.3 102.8,81.3 103,81.2 103.2,81.2 103.5,81.1 103.7,81.1 103.9,81 104.1,81 104.4,80.9 104.6,80.9 
			104.8,80.9 105,80.8 105.2,80.8 105.4,80.7 105.7,80.7 105.9,80.7 106.1,80.6 106.3,80.6 106.6,80.6 106.8,80.5 107,80.5 
			107.2,80.5 107.4,80.4 107.7,80.4 107.9,80.4 108.1,80.4 108.3,80.3 108.5,80.3 108.8,80.3 109,80.3 109.2,80.2 109.4,80.2 
			109.6,80.2 109.9,80.2 110.1,80.2 110.3,80.2 110.5,80.1 110.7,80.1 111,80.1 111.2,80.1 111.4,80.1 111.6,80.1 111.8,80.1 
			112.1,80.1 112.3,80.1 112.5,80.1 112.7,80 112.9,80 113.2,80 113.4,80 113.6,80 113.8,80 114,80 114.3,80 114.5,80 114.7,80 
			114.9,80 115.1,80 115.4,80 115.6,80 115.8,80.1 116,80.1 116.2,80.1 116.5,80.1 116.7,80.1 116.9,80.1 117.1,80.1 117.3,80.1 
			117.6,80.1 117.8,80.1 118,80.2 118.2,80.2 118.4,80.2 118.7,80.2 118.9,80.2 119.1,80.2 119.3,80.3 119.5,80.3 119.8,80.3 
			120,80.3 120.2,80.4 120.4,80.4 120.6,80.4 120.9,80.4 121.1,80.5 121.3,80.5 121.5,80.5 121.7,80.5 122,80.6 122.2,80.6 
			122.4,80.6 122.6,80.7 122.9,80.7 123.1,80.7 123.3,80.7 123.5,80.8 123.7,80.8 123.9,80.8 124.2,80.9 124.4,80.9 124.6,81 
			124.8,81 125.1,81 125.3,81.1 125.5,81.1 125.7,81.2 125.9,81.2 126.2,81.2 126.4,81.3 126.6,81.3 126.8,81.4 127,81.4 
			127.3,81.5 127.5,81.5 127.7,81.6 127.9,81.6 128.1,81.7 128.4,81.7 128.6,81.7 128.8,81.8 129,81.9 129.2,81.9 129.5,82 
			129.7,82 129.9,82.1 130.1,82.1 130.3,82.2 130.6,82.2 130.8,82.3 131,82.3 131.2,82.4 131.4,82.4 131.7,82.5 131.9,82.6 
			132.1,82.6 132.3,82.7 132.5,82.7 132.8,82.8 133,82.9 133.2,82.9 133.4,83 133.6,83 133.9,83.1 134.1,83.2 134.3,83.2 
			134.5,83.3 134.7,83.4 135,83.4 135.2,83.5 135.4,83.6 135.6,83.6 135.8,83.7 136.1,83.8 136.3,83.8 136.5,83.9 136.7,84 
			136.9,84.1 137.2,84.1 137.4,84.2 137.6,84.3 137.8,84.3 138,84.4 138.3,84.5 138.5,84.6 138.7,84.6 138.9,84.7 139.1,84.8 
			139.4,84.9 139.6,84.9 139.8,85 140,85.1 140.2,85.2 140.5,85.2 140.7,85.3 140.9,85.4 141.1,85.5 141.3,85.6 141.6,85.6 
			141.8,85.7 142,85.8 142.2,85.9 142.5,86 142.7,86 142.9,86.1 143.1,86.2 143.3,86.3 143.6,86.4 143.8,86.5 144,86.5 144.2,86.6 
			144.4,86.7 144.7,86.8 144.9,86.9 145.1,87 145.3,87 145.5,87.1 145.8,87.2 146,87.3 146.2,87.4 146.4,87.5 146.6,87.6 
			146.9,87.7 147.1,87.7 147.3,87.8 147.5,87.9 147.7,88 148,88.1 148.2,88.2 148.4,88.3 148.6,88.4 148.8,88.5 149.1,88.6 
			149.3,88.7 149.5,88.7 149.7,88.8 149.9,88.9 150.2,89 150.4,89.1 150.6,89.2 150.8,89.3 151,89.4 151.3,89.5 151.5,89.6 
			151.7,89.7 151.9,89.8 152.1,89.9 152.4,90 152.6,90.1 152.8,90.2 153,90.2 153.2,90.3 153.5,90.4 153.7,90.5 153.9,90.6 
			154.1,90.7 154.3,90.8 154.6,90.9 154.8,91 155,91.1 155.2,91.2 155.4,91.3 155.7,91.4 155.9,91.5 156.1,91.6 156.3,91.7 
			156.5,91.8 156.8,91.9 157,92 157.2,92.1 157.4,92.2 157.6,92.3 157.9,92.4 158.1,92.5 158.3,92.6 158.5,92.7 158.7,92.8 
			159,92.9 159.2,93 159.4,93.1 159.6,93.2 159.8,93.3 160.1,93.4 160.3,93.5 160.5,93.6 160.7,93.7 161,93.8 161.2,93.9 161.4,94 
			161.6,94.1 161.8,94.2 162,94.3 162.3,94.4 162.5,94.5 162.7,94.6 162.9,94.7 163.2,94.8 163.4,94.9 163.6,95 163.8,95.1 
			164,95.2 164.3,95.3 164.5,95.4 164.7,95.5 164.9,95.6 165.1,95.7 165.4,95.8 165.6,95.9 165.8,96 166,96.1 166.2,96.2 
			166.5,96.3 166.7,96.4 166.9,96.5 167.1,96.6 167.3,96.7 167.6,96.8 167.8,96.9 168,97 168.2,97.1 168.4,97.2 168.7,97.3 
			168.9,97.4 169.1,97.5 169.3,97.6 169.5,97.7 169.8,97.8 170,97.9 170.2,98 170.4,98.1 170.6,98.2 170.9,98.3 171.1,98.4 
			171.3,98.5 171.5,98.6 171.7,98.7 172,98.8 172.2,98.9 172.4,99 172.6,99.1 172.8,99.2 173.1,99.3 173.3,99.4 173.5,99.5 
			173.7,99.6 173.9,99.7 174.2,99.8 174.4,99.9 174.6,100 174.8,100.1 175,100.2 175.3,100.3 175.5,100.4 175.7,100.5 175.9,100.6 
			176.1,100.7 176.4,100.8 176.6,100.9 176.8,101 177,101.1 177.2,101.2 177.5,101.3 177.7,101.4 177.9,101.4 178.1,101.5 
			178.3,101.6 178.6,101.7 178.8,101.8 179,101.9 179.2,102 179.5,102.1 179.7,102.2 179.9,102.3 180.1,102.4 180.3,102.5 
			180.5,102.6 180.8,102.7 181,102.7 181.2,102.8 181.4,102.9 181.7,103 181.9,103.1 182.1,103.2 182.3,103.3 182.5,103.4 
			182.8,103.5 183,103.6 183.2,103.6 183.4,103.7 183.6,103.8 183.9,103.9 184.1,104 184.3,104.1 184.5,104.2 184.7,104.2 
			185,104.3 185.2,104.4 185.4,104.5 185.6,104.6 185.8,104.7 186.1,104.8 186.3,104.8 186.5,104.9 186.7,105 186.9,105.1 
			187.2,105.2 187.4,105.2 187.6,105.3 187.8,105.4 188,105.5 188.3,105.6 188.5,105.6 188.7,105.7 188.9,105.8 189.1,105.9 
			189.4,106 189.6,106 189.8,106.1 190,106.2 190.2,106.3 190.5,106.3 190.7,106.4 190.9,106.5 191.1,106.6 191.3,106.6 
			191.6,106.7 191.8,106.8 192,106.9 192.2,106.9 192.4,107 192.7,107.1 192.9,107.1 193.1,107.2 193.3,107.3 193.5,107.3 
			193.8,107.4 194,107.5 194.2,107.5 194.4,107.6 194.6,107.7 194.9,107.7 195.1,107.8 195.3,107.9 195.5,107.9 195.7,108 
			196,108.1 196.2,108.1 196.4,108.2 196.6,108.3 196.9,108.3 197.1,108.4 197.3,108.4 197.5,108.5 197.7,108.6 197.9,108.6 
			198.2,108.7 198.4,108.7 198.6,108.8 198.8,108.8 199.1,108.9 199.3,108.9 199.5,109 199.7,109.1 199.9,109.1 200.2,109.2 
			200.4,109.2 200.6,109.3 200.8,109.3 201,109.4 201.3,109.4 201.5,109.5 201.7,109.5 201.9,109.6 202.1,109.6 202.4,109.6 
			202.6,109.7 202.8,109.7 203,109.8 203.2,109.8 203.5,109.9 203.7,109.9 203.9,109.9 204.1,110 204.3,110 204.6,110.1 
			204.8,110.1 205,110.1 205.2,110.2 205.4,110.2 205.7,110.2 205.9,110.3 206.1,110.3 206.3,110.4 206.5,110.4 206.8,110.4 
			207,110.4 207.2,110.5 207.4,110.5 207.6,110.5 207.9,110.6 208.1,110.6 208.3,110.6 208.5,110.6 208.7,110.7 209,110.7 
			209.2,110.7 209.4,110.7 209.6,110.8 209.8,110.8 210.1,110.8 210.3,110.8 210.5,110.8 210.7,110.9 210.9,110.9 211.2,110.9 
			211.4,110.9 211.6,110.9 211.8,110.9 212,111 212.3,111 212.5,111 212.7,111 212.9,111 213.1,111 213.4,111 213.6,111 213.8,111 
			214,111 214.2,111 214.5,111.1 214.7,111.1 214.9,111.1 215.1,111.1 215.4,111.1 215.6,111.1 215.8,111.1 216,111.1 216.2,111.1 
			216.4,111 216.7,111 216.9,111 217.1,111 217.3,111 217.6,111 217.8,111 218,111 218.2,111 218.4,111 218.7,111 218.9,111 
			219.1,110.9 219.3,110.9 219.5,110.9 219.8,110.9 220,110.9 220.2,110.8 220.4,110.8 220.6,110.8 220.9,110.8 221.1,110.8 
			221.3,110.7 221.5,110.7 221.7,110.7 222,110.7 222.2,110.6 222.4,110.6 222.6,110.6 222.8,110.5 223.1,110.5 223.3,110.5 
			223.5,110.4 223.7,110.4 223.9,110.4 224.2,110.3 224.4,110.3 224.6,110.2 224.8,110.2 225,110.2 225.3,110.1 225.5,110.1 
			225.7,110 225.9,110 226.1,109.9 226.4,109.9 226.6,109.8 226.8,109.8 227,109.7 227.2,109.7 227.5,109.6 227.7,109.6 
			227.9,109.5 228.1,109.5 228.3,109.4 228.6,109.4 228.8,109.3 229,109.2 229.2,109.2 229.4,109.1 229.7,109 229.9,109 
			230.1,108.9 230.3,108.8 230.5,108.8 230.8,108.7 231,108.6 231.2,108.6 231.4,108.5 231.6,108.4 231.9,108.3 232.1,108.3 
			232.3,108.2 232.5,108.1 232.8,108 233,107.9 233.2,107.9 233.4,107.8 233.6,107.7 233.8,107.6 234.1,107.5 234.3,107.4 
			234.5,107.3 234.7,107.2 235,107.2 235.2,107.1 235.4,107 235.6,106.9 235.8,106.8 236.1,106.7 236.3,106.6 236.5,106.5 
			236.7,106.4 236.9,106.3 237.2,106.2 237.4,106.1 237.6,106 237.8,105.8 238,105.7 238.3,105.6 238.5,105.5 238.7,105.4 
			238.9,105.3 239.1,105.2 239.4,105 239.6,104.9 239.8,104.8 240,104.7 240.2,104.6 240.5,104.4 240.7,104.3 240.9,104.2 
			241.1,104.1 241.3,103.9 241.6,103.8 241.8,103.7 242,103.5 242.2,103.4 242.4,103.3 242.7,103.1 242.9,103 243.1,102.8 
			243.3,102.7 243.5,102.6 243.8,102.4 244,102.3 244.2,102.1 244.4,102 244.6,101.8 244.9,101.7 245.1,101.5 245.3,101.4 
			245.5,101.2 245.7,101.1 246,100.9 246.2,100.7 246.4,100.6 246.6,100.4 246.8,100.3 247.1,100.1 247.3,99.9 247.5,99.8 
			247.7,99.6 247.9,99.4 248.2,99.2 248.4,99.1 248.6,98.9 248.8,98.7 249,98.5 249.3,98.4 249.5,98.2 249.7,98 249.9,97.8 
			250.1,97.6 250.4,97.4 250.6,97.3 250.8,97.1 251,96.9 251.2,96.7 251.5,96.5 251.7,96.3 251.9,96.1 252.1,95.9 252.3,95.7 
			252.6,95.5 252.8,95.3 253,95.1 253.2,94.9 253.5,94.7 253.7,94.5 253.9,94.2 254.1,94 254.3,93.8 254.5,93.6 254.8,93.4 
			255,93.2 255.2,92.9 255.4,92.7 255.7,92.5 255.9,92.3 256.1,92 256.3,91.8 256.5,91.6 256.8,91.4 257,91.1 257.2,90.9 
			257.4,90.7 257.6,90.4 257.9,90.2 258.1,89.9 258.3,89.7 258.5,89.4 258.7,89.2 259,88.9 259.2,88.7 259.4,88.5 259.6,88.2 
			259.8,87.9 260.1,87.7 260.3,87.4 260.5,87.2 260.7,86.9 260.9,86.6 261.2,86.4 261.4,86.1 261.6,85.8 261.8,85.6 262,85.3 
			262.3,85 262.5,84.8 262.7,84.5 262.9,84.2 263.1,83.9 263.4,83.6 263.6,83.4 263.8,83.1 264,82.8 264.2,82.5 264.5,82.2 
			264.7,81.9 264.9,81.6 265.1,81.3 265.3,81 265.6,80.7 265.8,80.4 		"/>
		
			<polyline style="clip-path:url(#SVGID_00000090989695962248858260000010919703983616995005_);fill:none;stroke:#00FF00;stroke-width:1.633;stroke-linecap:round;stroke-linejoin:round;stroke-miterlimit:10;stroke-dasharray:0,6.5318,4.8989,6.5318;" points="
			45.5,75.4 45.8,75.4 46,75.5 46.2,75.5 46.4,75.5 46.6,75.5 46.9,75.6 47.1,75.6 47.3,75.7 47.5,75.7 47.7,75.8 48,75.8 
			48.2,75.9 48.4,75.9 48.6,76 48.8,76.1 49.1,76.1 49.3,76.2 49.5,76.3 49.7,76.4 49.9,76.5 50.2,76.6 50.4,76.7 50.6,76.7 
			50.8,76.8 51.1,76.9 51.3,77 51.5,77.2 51.7,77.3 51.9,77.4 52.1,77.5 52.4,77.6 52.6,77.7 52.8,77.9 53,78 53.3,78.1 53.5,78.2 
			53.7,78.4 53.9,78.5 54.1,78.6 54.4,78.8 54.6,78.9 54.8,79.1 55,79.2 55.2,79.4 55.5,79.5 55.7,79.7 55.9,79.8 56.1,80 
			56.3,80.1 56.6,80.3 56.8,80.4 57,80.6 57.2,80.8 57.4,80.9 57.7,81.1 57.9,81.3 58.1,81.4 58.3,81.6 58.5,81.8 58.8,81.9 
			59,82.1 59.2,82.3 59.4,82.5 59.6,82.6 59.9,82.8 60.1,83 60.3,83.2 60.5,83.4 60.7,83.5 61,83.7 61.2,83.9 61.4,84.1 61.6,84.3 
			61.8,84.5 62.1,84.7 62.3,84.8 62.5,85 62.7,85.2 62.9,85.4 63.2,85.6 63.4,85.8 63.6,86 63.8,86.2 64,86.4 64.3,86.6 64.5,86.8 
			64.7,86.9 64.9,87.1 65.1,87.3 65.4,87.5 65.6,87.7 65.8,87.9 66,88.1 66.2,88.3 66.5,88.5 66.7,88.7 66.9,88.9 67.1,89.1 
			67.3,89.3 67.6,89.5 67.8,89.7 68,89.9 68.2,90 68.5,90.2 68.7,90.4 68.9,90.6 69.1,90.8 69.3,91 69.5,91.2 69.8,91.4 70,91.6 
			70.2,91.8 70.4,92 70.7,92.2 70.9,92.3 71.1,92.5 71.3,92.7 71.5,92.9 71.8,93.1 72,93.3 72.2,93.5 72.4,93.7 72.6,93.8 72.9,94 
			73.1,94.2 73.3,94.4 73.5,94.6 73.7,94.8 74,94.9 74.2,95.1 74.4,95.3 74.6,95.5 74.8,95.6 75.1,95.8 75.3,96 75.5,96.2 
			75.7,96.3 75.9,96.5 76.2,96.7 76.4,96.9 76.6,97 76.8,97.2 77,97.4 77.3,97.5 77.5,97.7 77.7,97.8 77.9,98 78.1,98.2 78.4,98.3 
			78.6,98.5 78.8,98.6 79,98.8 79.2,99 79.5,99.1 79.7,99.3 79.9,99.4 80.1,99.6 80.3,99.7 80.6,99.9 80.8,100 81,100.1 81.2,100.3 
			81.4,100.4 81.7,100.6 81.9,100.7 82.1,100.8 82.3,101 82.5,101.1 82.8,101.3 83,101.4 83.2,101.5 83.4,101.6 83.6,101.8 
			83.9,101.9 84.1,102 84.3,102.1 84.5,102.3 84.7,102.4 85,102.5 85.2,102.6 85.4,102.7 85.6,102.9 85.8,103 86.1,103.1 
			86.3,103.2 86.5,103.3 86.7,103.4 87,103.5 87.2,103.6 87.4,103.7 87.6,103.8 87.8,103.9 88,104 88.3,104.1 88.5,104.2 
			88.7,104.3 88.9,104.4 89.2,104.4 89.4,104.5 89.6,104.6 89.8,104.7 90,104.8 90.3,104.9 90.5,104.9 90.7,105 90.9,105.1 
			91.1,105.2 91.4,105.2 91.6,105.3 91.8,105.4 92,105.4 92.2,105.5 92.5,105.6 92.7,105.6 92.9,105.7 93.1,105.7 93.3,105.8 
			93.6,105.8 93.8,105.9 94,105.9 94.2,106 94.4,106 94.7,106.1 94.9,106.1 95.1,106.2 95.3,106.2 95.5,106.2 95.8,106.3 96,106.3 
			96.2,106.3 96.4,106.4 96.6,106.4 96.9,106.4 97.1,106.5 97.3,106.5 97.5,106.5 97.7,106.5 98,106.5 98.2,106.6 98.4,106.6 
			98.6,106.6 98.8,106.6 99.1,106.6 99.3,106.6 99.5,106.6 99.7,106.6 99.9,106.6 100.2,106.6 100.4,106.6 100.6,106.6 100.8,106.6 
			101,106.6 101.3,106.6 101.5,106.6 101.7,106.6 101.9,106.6 102.1,106.6 102.4,106.6 102.6,106.5 102.8,106.5 103,106.5 
			103.2,106.5 103.5,106.5 103.7,106.4 103.9,106.4 104.1,106.4 104.4,106.4 104.6,106.3 104.8,106.3 105,106.3 105.2,106.2 
			105.4,106.2 105.7,106.1 105.9,106.1 106.1,106.1 106.3,106 106.6,106 106.8,105.9 107,105.9 107.2,105.8 107.4,105.8 
			107.7,105.7 107.9,105.7 108.1,105.6 108.3,105.5 108.5,105.5 108.8,105.4 109,105.4 109.2,105.3 109.4,105.2 109.6,105.2 
			109.9,105.1 110.1,105 110.3,105 110.5,104.9 110.7,104.8 111,104.8 111.2,104.7 111.4,104.6 111.6,104.5 111.8,104.4 
			112.1,104.4 112.3,104.3 112.5,104.2 112.7,104.1 112.9,104 113.2,103.9 113.4,103.8 113.6,103.8 113.8,103.7 114,103.6 
			114.3,103.5 114.5,103.4 114.7,103.3 114.9,103.2 115.1,103.1 115.4,103 115.6,102.9 115.8,102.8 116,102.7 116.2,102.6 
			116.5,102.5 116.7,102.4 116.9,102.3 117.1,102.2 117.3,102.1 117.6,101.9 117.8,101.8 118,101.7 118.2,101.6 118.4,101.5 
			118.7,101.4 118.9,101.3 119.1,101.1 119.3,101 119.5,100.9 119.8,100.8 120,100.7 120.2,100.6 120.4,100.4 120.6,100.3 
			120.9,100.2 121.1,100.1 121.3,99.9 121.5,99.8 121.7,99.7 122,99.6 122.2,99.4 122.4,99.3 122.6,99.2 122.9,99 123.1,98.9 
			123.3,98.8 123.5,98.6 123.7,98.5 123.9,98.4 124.2,98.2 124.4,98.1 124.6,98 124.8,97.8 125.1,97.7 125.3,97.6 125.5,97.4 
			125.7,97.3 125.9,97.1 126.2,97 126.4,96.9 126.6,96.7 126.8,96.6 127,96.5 127.3,96.3 127.5,96.2 127.7,96 127.9,95.9 
			128.1,95.7 128.4,95.6 128.6,95.5 128.8,95.3 129,95.2 129.2,95 129.5,94.9 129.7,94.7 129.9,94.6 130.1,94.4 130.3,94.3 
			130.6,94.2 130.8,94 131,93.9 131.2,93.7 131.4,93.6 131.7,93.4 131.9,93.3 132.1,93.1 132.3,93 132.5,92.8 132.8,92.7 133,92.6 
			133.2,92.4 133.4,92.3 133.6,92.1 133.9,92 134.1,91.8 134.3,91.7 134.5,91.5 134.7,91.4 135,91.2 135.2,91.1 135.4,90.9 
			135.6,90.8 135.8,90.7 136.1,90.5 136.3,90.4 136.5,90.2 136.7,90.1 136.9,89.9 137.2,89.8 137.4,89.6 137.6,89.5 137.8,89.4 
			138,89.2 138.3,89.1 138.5,88.9 138.7,88.8 138.9,88.7 139.1,88.5 139.4,88.4 139.6,88.2 139.8,88.1 140,88 140.2,87.8 
			140.5,87.7 140.7,87.6 140.9,87.4 141.1,87.3 141.3,87.1 141.6,87 141.8,86.9 142,86.7 142.2,86.6 142.5,86.5 142.7,86.3 
			142.9,86.2 143.1,86.1 143.3,86 143.6,85.8 143.8,85.7 144,85.6 144.2,85.5 144.4,85.3 144.7,85.2 144.9,85.1 145.1,85 
			145.3,84.8 145.5,84.7 145.8,84.6 146,84.5 146.2,84.4 146.4,84.2 146.6,84.1 146.9,84 147.1,83.9 147.3,83.8 147.5,83.7 
			147.7,83.6 148,83.5 148.2,83.3 148.4,83.2 148.6,83.1 148.8,83 149.1,82.9 149.3,82.8 149.5,82.7 149.7,82.6 149.9,82.5 
			150.2,82.4 150.4,82.3 150.6,82.2 150.8,82.1 151,82 151.3,81.9 151.5,81.8 151.7,81.7 151.9,81.7 152.1,81.6 152.4,81.5 
			152.6,81.4 152.8,81.3 153,81.2 153.2,81.1 153.5,81.1 153.7,81 153.9,80.9 154.1,80.8 154.3,80.8 154.6,80.7 154.8,80.6 
			155,80.5 155.2,80.5 155.4,80.4 155.7,80.4 155.9,80.3 156.1,80.2 156.3,80.2 156.5,80.1 156.8,80 157,80 157.2,79.9 157.4,79.9 
			157.6,79.8 157.9,79.8 158.1,79.7 158.3,79.7 158.5,79.6 158.7,79.6 159,79.6 159.2,79.5 159.4,79.5 159.6,79.4 159.8,79.4 
			160.1,79.4 160.3,79.3 160.5,79.3 160.7,79.3 161,79.3 161.2,79.2 161.4,79.2 161.6,79.2 161.8,79.2 162,79.1 162.3,79.1 
			162.5,79.1 162.7,79.1 162.9,79.1 163.2,79.1 163.4,79.1 163.6,79.1 163.8,79.1 164,79.1 164.3,79.1 164.5,79.1 164.7,79.1 
			164.9,79.1 165.1,79.1 165.4,79.1 165.6,79.1 165.8,79.1 166,79.1 166.2,79.2 166.5,79.2 166.7,79.2 166.9,79.2 167.1,79.3 
			167.3,79.3 167.6,79.3 167.8,79.4 168,79.4 168.2,79.4 168.4,79.5 168.7,79.5 168.9,79.5 169.1,79.6 169.3,79.6 169.5,79.7 
			169.8,79.7 170,79.8 170.2,79.8 170.4,79.9 170.6,79.9 170.9,80 171.1,80.1 171.3,80.1 171.5,80.2 171.7,80.3 172,80.3 
			172.2,80.4 172.4,80.5 172.6,80.6 172.8,80.6 173.1,80.7 173.3,80.8 173.5,80.9 173.7,81 173.9,81.1 174.2,81.2 174.4,81.3 
			174.6,81.3 174.8,81.4 175,81.5 175.3,81.6 175.5,81.7 175.7,81.9 175.9,82 176.1,82.1 176.4,82.2 176.6,82.3 176.8,82.4 
			177,82.5 177.2,82.7 177.5,82.8 177.7,82.9 177.9,83 178.1,83.2 178.3,83.3 178.6,83.4 178.8,83.6 179,83.7 179.2,83.8 179.5,84 
			179.7,84.1 179.9,84.3 180.1,84.4 180.3,84.6 180.5,84.7 180.8,84.9 181,85 181.2,85.2 181.4,85.3 181.7,85.5 181.9,85.7 
			182.1,85.8 182.3,86 182.5,86.2 182.8,86.3 183,86.5 183.2,86.7 183.4,86.9 183.6,87.1 183.9,87.2 184.1,87.4 184.3,87.6 
			184.5,87.8 184.7,88 185,88.2 185.2,88.4 185.4,88.6 185.6,88.8 185.8,89 186.1,89.2 186.3,89.4 186.5,89.6 186.7,89.8 186.9,90 
			187.2,90.2 187.4,90.4 187.6,90.6 187.8,90.8 188,91.1 188.3,91.3 188.5,91.5 188.7,91.7 188.9,92 189.1,92.2 189.4,92.4 
			189.6,92.6 189.8,92.9 190,93.1 190.2,93.3 190.5,93.6 190.7,93.8 190.9,94.1 191.1,94.3 191.3,94.5 191.6,94.8 191.8,95 
			192,95.3 192.2,95.5 192.4,95.8 192.7,96 192.9,96.3 193.1,96.6 193.3,96.8 193.5,97.1 193.8,97.3 194,97.6 194.2,97.9 
			194.4,98.1 194.6,98.4 194.9,98.7 195.1,98.9 195.3,99.2 195.5,99.5 195.7,99.7 196,100 196.2,100.3 196.4,100.6 196.6,100.8 
			196.9,101.1 197.1,101.4 197.3,101.7 197.5,102 197.7,102.3 197.9,102.5 198.2,102.8 198.4,103.1 198.6,103.4 198.8,103.7 
			199.1,104 199.3,104.3 199.5,104.6 199.7,104.9 199.9,105.2 200.2,105.5 200.4,105.7 200.6,106 200.8,106.3 201,106.6 
			201.3,106.9 201.5,107.2 201.7,107.5 201.9,107.8 202.1,108.1 202.4,108.4 202.6,108.8 202.8,109.1 203,109.4 203.2,109.7 
			203.5,110 203.7,110.3 203.9,110.6 204.1,110.9 204.3,111.2 204.6,111.5 204.8,111.8 205,112.1 205.2,112.4 205.4,112.7 
			205.7,113 205.9,113.3 206.1,113.6 206.3,114 206.5,114.3 206.8,114.6 207,114.9 207.2,115.2 207.4,115.5 207.6,115.8 
			207.9,116.1 208.1,116.4 208.3,116.7 208.5,117 208.7,117.3 209,117.6 209.2,118 209.4,118.3 209.6,118.6 209.8,118.9 
			210.1,119.2 210.3,119.5 210.5,119.8 210.7,120.1 210.9,120.4 211.2,120.7 211.4,121 211.6,121.3 211.8,121.6 212,121.9 
			212.3,122.2 212.5,122.5 212.7,122.8 212.9,123.1 213.1,123.4 213.4,123.6 213.6,123.9 213.8,124.2 214,124.5 214.2,124.8 
			214.5,125.1 214.7,125.4 214.9,125.7 215.1,125.9 215.4,126.2 215.6,126.5 215.8,126.8 216,127 216.2,127.3 216.4,127.6 
			216.7,127.9 216.9,128.1 217.1,128.4 217.3,128.7 217.6,128.9 217.8,129.2 218,129.4 218.2,129.7 218.4,129.9 218.7,130.2 
			218.9,130.4 219.1,130.7 219.3,130.9 219.5,131.2 219.8,131.4 220,131.7 220.2,131.9 220.4,132.1 220.6,132.4 220.9,132.6 
			221.1,132.8 221.3,133 221.5,133.2 221.7,133.5 222,133.7 222.2,133.9 222.4,134.1 222.6,134.3 222.8,134.5 223.1,134.7 
			223.3,134.9 223.5,135.1 223.7,135.2 223.9,135.4 224.2,135.6 224.4,135.8 224.6,136 224.8,136.1 225,136.3 225.3,136.4 
			225.5,136.6 225.7,136.7 225.9,136.9 226.1,137 226.4,137.2 226.6,137.3 226.8,137.4 227,137.6 227.2,137.7 227.5,137.8 
			227.7,137.9 227.9,138 228.1,138.1 228.3,138.2 228.6,138.3 228.8,138.4 229,138.5 229.2,138.6 229.4,138.6 229.7,138.7 
			229.9,138.8 230.1,138.8 230.3,138.9 230.5,138.9 230.8,139 231,139 231.2,139 231.4,139.1 231.6,139.1 231.9,139.1 232.1,139.1 
			232.3,139.1 232.5,139.1 232.8,139.1 233,139.1 233.2,139 233.4,139 233.6,139 233.8,138.9 234.1,138.9 234.3,138.8 234.5,138.7 
			234.7,138.7 235,138.6 235.2,138.5 235.4,138.4 235.6,138.3 235.8,138.2 236.1,138.1 236.3,138 236.5,137.8 236.7,137.7 
			236.9,137.5 237.2,137.4 237.4,137.2 237.6,137.1 237.8,136.9 238,136.7 238.3,136.5 238.5,136.3 238.7,136.1 238.9,135.9 
			239.1,135.6 239.4,135.4 239.6,135.2 239.8,134.9 240,134.7 240.2,134.4 240.5,134.1 240.7,133.8 240.9,133.5 241.1,133.2 
			241.3,132.9 241.6,132.6 241.8,132.2 242,131.9 242.2,131.5 242.4,131.1 242.7,130.8 242.9,130.4 243.1,130 243.3,129.6 
			243.5,129.2 243.8,128.7 244,128.3 244.2,127.8 244.4,127.4 244.6,126.9 244.9,126.4 245.1,125.9 245.3,125.4 245.5,124.9 
			245.7,124.4 246,123.9 246.2,123.3 246.4,122.7 246.6,122.2 246.8,121.6 247.1,121 247.3,120.4 247.5,119.8 247.7,119.1 
			247.9,118.5 248.2,117.8 248.4,117.1 248.6,116.5 248.8,115.8 249,115 249.3,114.3 249.5,113.6 249.7,112.8 249.9,112.1 
			250.1,111.3 250.4,110.5 250.6,109.7 250.8,108.9 251,108.1 251.2,107.2 251.5,106.4 251.7,105.5 251.9,104.6 252.1,103.7 
			252.3,102.8 252.6,101.8 252.8,100.9 253,99.9 253.2,98.9 253.5,98 253.7,96.9 253.9,95.9 254.1,94.9 254.3,93.8 254.5,92.8 
			254.8,91.7 255,90.6 255.2,89.5 255.4,88.3 255.7,87.2 255.9,86 256.1,84.8 256.3,83.6 256.5,82.4 256.8,81.2 257,79.9 
			257.2,78.6 257.4,77.4 257.6,76.1 257.9,74.7 258.1,73.4 258.3,72 258.5,70.7 258.7,69.3 259,67.9 259.2,66.4 259.4,65 
			259.6,63.5 259.8,62 260.1,60.5 260.3,59 260.5,57.4 260.7,55.9 260.9,54.3 261.2,52.7 261.4,51.1 261.6,49.4 261.8,47.8 
			262,46.1 262.3,44.4 262.5,42.7 262.7,40.9 262.9,39.2 263.1,37.4 263.4,35.6 263.6,33.8 263.8,31.9 264,30 264.2,28.1 
			264.5,26.2 264.7,24.3 264.9,22.3 265.1,20.4 265.3,18.4 265.6,16.3 265.8,14.3 		"/>
		
			<line style="clip-path:url(#SVGID_00000090989695962248858260000010919703983616995005_);fill:none;stroke:#000000;stroke-width:0.8165;stroke-linecap:round;stroke-linejoin:round;stroke-miterlimit:10;" x1="40.2" y1="13.8" x2="47.1" y2="13.8"/>
		
			<line style="clip-path:url(#SVGID_00000090989695962248858260000010919703983616995005_);fill:none;stroke:#0000FF;stroke-width:0.8165;stroke-linecap:round;stroke-linejoin:round;stroke-miterlimit:10;stroke-dasharray:2.4494,4.0824;" x1="40.2" y1="18.4" x2="47.1" y2="18.4"/>
		
			<line style="clip-path:url(#SVGID_00000090989695962248858260000010919703983616995005_);fill:none;stroke:#FF0000;stroke-width:0.8165;stroke-linecap:round;stroke-linejoin:round;stroke-miterlimit:10;stroke-dasharray:0,3.2659;" x1="40.2" y1="23" x2="47.1" y2="23"/>
		
			<line style="clip-path:url(#SVGID_00000090989695962248858260000010919703983616995005_);fill:none;stroke:#00FF00;stroke-width:0.8165;stroke-linecap:round;stroke-linejoin:round;stroke-miterlimit:10;stroke-dasharray:0,3.2659,2.4494,3.2659;" x1="40.2" y1="27.6" x2="47.1" y2="27.6"/>
		<g style="clip-path:url(#SVGID_00000090989695962248858260000010919703983616995005_);">
			<text transform="matrix(1 0 0 1 50.5112 15.1465)"><tspan x="0" y="0" class="st3 st14">T</tspan><tspan x="1.9" y="0" class="st3 st14">r</tspan><tspan x="3.2" y="0" class="st3 st14">ue MTE</tspan></text>
		</g>
		<g style="clip-path:url(#SVGID_00000090989695962248858260000010919703983616995005_);">
			<text transform="matrix(1 0 0 1 50.5112 19.7388)" class="st3 st14">2−cell</text>
		</g>
		<g style="clip-path:url(#SVGID_00000090989695962248858260000010919703983616995005_);">
			<text transform="matrix(1 0 0 1 50.5112 24.331)" class="st3 st14">3−cell</text>
		</g>
		<g style="clip-path:url(#SVGID_00000090989695962248858260000010919703983616995005_);">
			<text transform="matrix(1 0 0 1 50.5112 28.9219)" class="st3 st14">5−cell</text>
		</g>
	</g>
</g>
</svg>
