<?xml version="1.0" encoding="utf-8"?>
<!-- Generator: Adobe Illustrator 28.1.0, SVG Export Plug-In . SVG Version: 6.00 Build 0)  -->
<svg version="1.1" id="Layer_1" xmlns="http://www.w3.org/2000/svg" xmlns:xlink="http://www.w3.org/1999/xlink" x="0px" y="0px"
	 viewBox="0 0 230.3 89.6" style="enable-background:new 0 0 230.3 89.6;" xml:space="preserve">
<style type="text/css">
	.st0{font-family:'URWPalladioL-Roma';}
	.st1{font-size:4.3767px;}
	.st2{letter-spacing:1;}
	.st3{letter-spacing:3;}
	.st4{font-family:'CMR10';}
	.st5{font-size:4.5606px;}
	.st6{font-family:'URWPalladioL-Ital';}
	.st7{letter-spacing:2;}
	.st8{font-family:'CMSY10';}
	.st9{font-size:3.1976px;}
	.st10{clip-path:url(#SVGID_00000096056562388442564100000006204314706641711504_);}
	
		.st11{clip-path:url(#SVGID_00000117669819721541636060000002118247708367515794_);fill:none;stroke:#000000;stroke-width:0.9798;stroke-linecap:round;stroke-linejoin:round;stroke-miterlimit:10;}
	
		.st12{clip-path:url(#SVGID_00000096056562388442564100000006204314706641711504_);fill:none;stroke:#000000;stroke-width:0.4899;stroke-linecap:round;stroke-linejoin:round;stroke-miterlimit:10;}
	.st13{font-family:'Helvetica';}
	.st14{font-size:1.8344px;}
	.st15{font-size:2.3585px;}
	
		.st16{clip-path:url(#SVGID_00000160167757986490229280000015596952971833060768_);fill:none;stroke:#FF0000;stroke-width:0.9798;stroke-linecap:round;stroke-linejoin:round;stroke-miterlimit:10;stroke-dasharray:0,3.9191;}
	
		.st17{clip-path:url(#SVGID_00000160167757986490229280000015596952971833060768_);fill:none;stroke:#000000;stroke-width:0.4899;stroke-linecap:round;stroke-linejoin:round;stroke-miterlimit:10;}
	
		.st18{clip-path:url(#SVGID_00000160167757986490229280000015596952971833060768_);fill:none;stroke:#FF0000;stroke-width:0.4899;stroke-linecap:round;stroke-linejoin:round;stroke-miterlimit:10;stroke-dasharray:0,1.9595;}
	.st19{clip-path:url(#SVGID_00000160167757986490229280000015596952971833060768_);}
	.st20{font-size:1.5723px;}
	.st21{font-size:4.1684px;}
	.st22{font-size:4.3435px;}
	.st23{font-size:3.0454px;}
	.st24{clip-path:url(#SVGID_00000175314228872999445180000010958367999647321778_);}
	
		.st25{clip-path:url(#SVGID_00000129206287424662933170000011126704640579548306_);fill:none;stroke:#000000;stroke-width:0.9798;stroke-linecap:round;stroke-linejoin:round;stroke-miterlimit:10;}
	
		.st26{clip-path:url(#SVGID_00000175314228872999445180000010958367999647321778_);fill:none;stroke:#000000;stroke-width:0.4899;stroke-linecap:round;stroke-linejoin:round;stroke-miterlimit:10;}
	.st27{font-size:1.8503px;}
	.st28{font-size:2.3789px;}
	
		.st29{clip-path:url(#SVGID_00000005237495936406015240000005290969000764909457_);fill:none;stroke:#FF0000;stroke-width:0.9798;stroke-linecap:round;stroke-linejoin:round;stroke-miterlimit:10;stroke-dasharray:0,3.9191;}
	
		.st30{clip-path:url(#SVGID_00000005237495936406015240000005290969000764909457_);fill:none;stroke:#000000;stroke-width:0.4899;stroke-linecap:round;stroke-linejoin:round;stroke-miterlimit:10;}
	
		.st31{clip-path:url(#SVGID_00000005237495936406015240000005290969000764909457_);fill:none;stroke:#FF0000;stroke-width:0.4899;stroke-linecap:round;stroke-linejoin:round;stroke-miterlimit:10;stroke-dasharray:0,1.9595;}
	.st32{clip-path:url(#SVGID_00000005237495936406015240000005290969000764909457_);}
	.st33{font-size:1.586px;}
</style>
<text transform="matrix(1 0 0 1 0 4.2656)"><tspan x="0" y="0" class="st0 st1">(a</tspan><tspan x="3.4" y="0" class="st0 st1 st2">)</tspan><tspan x="6.5" y="0" class="st0 st1">DG</tspan><tspan x="12.3" y="0" class="st0 st1 st2">P</tspan><tspan x="16.6" y="0" class="st0 st1">1</tspan><tspan x="18.8" y="0" class="st0 st1 st3">:</tspan><tspan x="22.8" y="0" class="st0 st1">MTE</tspan></text>
<text transform="matrix(1 0 0 1 34.2676 4.2656)" class="st4 st5">(</text>
<text transform="matrix(1 0 0 1 36.1455 4.2656)" class="st6 st1">u</text>
<text transform="matrix(1 0 0 1 38.6885 4.2656)"><tspan x="0" y="0" class="st4 st5 st7">)</tspan><tspan x="4.2" y="0" class="st4 st5">=</tspan></text>
<text transform="matrix(1 0 0 1 49.813 4.2656)" class="st8 st5">−</text>
<text transform="matrix(1 0 0 1 53.4131 4.2656)" class="st0 st1">0.0036</text>
<text transform="matrix(1 0 0 1 66.6709 4.2656)" class="st4 st5">+</text>
<text transform="matrix(1 0 0 1 71.4375 4.2656)" class="st0 st1">0.0254</text>
<text transform="matrix(1 0 0 1 83.5283 4.2656)" class="st6 st1">u</text>
<text transform="matrix(1 0 0 1 87.2388 4.2656)" class="st8 st5">−</text>
<text transform="matrix(1 0 0 1 92.0054 4.2656)" class="st0 st1">0.0179</text>
<text transform="matrix(1 0 0 1 104.0962 4.2656)" class="st6 st1">u</text>
<text transform="matrix(1 0 0 1 106.584 2.6768)" class="st0 st9">2</text>
<text transform="matrix(1 0 0 1 109.605 4.2656)" class="st4 st5">+</text>
<text transform="matrix(1 0 0 1 0 9.7012)" class="st0 st1">0.0027</text>
<text transform="matrix(1 0 0 1 12.0908 9.7012)" class="st6 st1">u</text>
<text transform="matrix(1 0 0 1 14.5791 8.1123)" class="st0 st9">3</text>
<g>
	<defs>
		<rect id="SVGID_1_" x="0" y="13.7" width="113.2" height="75.5"/>
	</defs>
	<clipPath id="SVGID_00000084503423638925009630000011580660656292092838_">
		<use xlink:href="#SVGID_1_"  style="overflow:visible;"/>
	</clipPath>
	<g style="clip-path:url(#SVGID_00000084503423638925009630000011580660656292092838_);">
		<defs>
			<rect id="SVGID_00000153691798219969524900000005015336253782192535_" x="15.1" y="15.6" width="97.7" height="58.5"/>
		</defs>
		<clipPath id="SVGID_00000007390876200056546920000006555591618087458471_">
			<use xlink:href="#SVGID_00000153691798219969524900000005015336253782192535_"  style="overflow:visible;"/>
		</clipPath>
		
			<polyline style="clip-path:url(#SVGID_00000007390876200056546920000006555591618087458471_);fill:none;stroke:#000000;stroke-width:0.9798;stroke-linecap:round;stroke-linejoin:round;stroke-miterlimit:10;" points="
			18.7,70.9 18.8,70.7 18.9,70.6 19,70.5 19.1,70.3 19.2,70.2 19.3,70.1 19.3,70 19.4,69.8 19.5,69.7 19.6,69.6 19.7,69.4 
			19.8,69.3 19.9,69.2 20,69.1 20.1,68.9 20.2,68.8 20.3,68.7 20.3,68.5 20.4,68.4 20.5,68.3 20.6,68.2 20.7,68 20.8,67.9 
			20.9,67.8 21,67.7 21.1,67.5 21.2,67.4 21.2,67.3 21.3,67.2 21.4,67 21.5,66.9 21.6,66.8 21.7,66.7 21.8,66.5 21.9,66.4 22,66.3 
			22.1,66.2 22.2,66 22.2,65.9 22.3,65.8 22.4,65.7 22.5,65.5 22.6,65.4 22.7,65.3 22.8,65.2 22.9,65.1 23,64.9 23.1,64.8 
			23.1,64.7 23.2,64.6 23.3,64.5 23.4,64.3 23.5,64.2 23.6,64.1 23.7,64 23.8,63.8 23.9,63.7 24,63.6 24.1,63.5 24.1,63.4 
			24.2,63.3 24.3,63.1 24.4,63 24.5,62.9 24.6,62.8 24.7,62.7 24.8,62.5 24.9,62.4 25,62.3 25.1,62.2 25.1,62.1 25.2,61.9 
			25.3,61.8 25.4,61.7 25.5,61.6 25.6,61.5 25.7,61.4 25.8,61.2 25.9,61.1 26,61 26,60.9 26.1,60.8 26.2,60.7 26.3,60.6 26.4,60.4 
			26.5,60.3 26.6,60.2 26.7,60.1 26.8,60 26.9,59.9 27,59.8 27,59.6 27.1,59.5 27.2,59.4 27.3,59.3 27.4,59.2 27.5,59.1 27.6,59 
			27.7,58.8 27.8,58.7 27.9,58.6 27.9,58.5 28,58.4 28.1,58.3 28.2,58.2 28.3,58.1 28.4,57.9 28.5,57.8 28.6,57.7 28.7,57.6 
			28.8,57.5 28.9,57.4 28.9,57.3 29,57.2 29.1,57.1 29.2,57 29.3,56.8 29.4,56.7 29.5,56.6 29.6,56.5 29.7,56.4 29.8,56.3 
			29.8,56.2 29.9,56.1 30,56 30.1,55.9 30.2,55.8 30.3,55.7 30.4,55.5 30.5,55.4 30.6,55.3 30.7,55.2 30.8,55.1 30.8,55 30.9,54.9 
			31,54.8 31.1,54.7 31.2,54.6 31.3,54.5 31.4,54.4 31.5,54.3 31.6,54.2 31.7,54.1 31.7,54 31.8,53.9 31.9,53.7 32,53.6 32.1,53.5 
			32.2,53.4 32.3,53.3 32.4,53.2 32.5,53.1 32.6,53 32.6,52.9 32.7,52.8 32.8,52.7 32.9,52.6 33,52.5 33.1,52.4 33.2,52.3 
			33.3,52.2 33.4,52.1 33.5,52 33.6,51.9 33.6,51.8 33.7,51.7 33.8,51.6 33.9,51.5 34,51.4 34.1,51.3 34.2,51.2 34.3,51.1 34.4,51 
			34.5,50.9 34.6,50.8 34.6,50.7 34.7,50.6 34.8,50.5 34.9,50.4 35,50.3 35.1,50.2 35.2,50.1 35.3,50 35.4,49.9 35.5,49.8 
			35.5,49.7 35.6,49.6 35.7,49.5 35.8,49.4 35.9,49.3 36,49.2 36.1,49.1 36.2,49 36.3,48.9 36.4,48.8 36.5,48.7 36.5,48.6 
			36.6,48.5 36.7,48.5 36.8,48.4 36.9,48.3 37,48.2 37.1,48.1 37.2,48 37.3,47.9 37.4,47.8 37.4,47.7 37.5,47.6 37.6,47.5 
			37.7,47.4 37.8,47.3 37.9,47.2 38,47.1 38.1,47 38.2,46.9 38.3,46.9 38.4,46.8 38.4,46.7 38.5,46.6 38.6,46.5 38.7,46.4 
			38.8,46.3 38.9,46.2 39,46.1 39.1,46 39.2,45.9 39.3,45.8 39.3,45.8 39.4,45.7 39.5,45.6 39.6,45.5 39.7,45.4 39.8,45.3 
			39.9,45.2 40,45.1 40.1,45 40.2,44.9 40.3,44.9 40.3,44.8 40.4,44.7 40.5,44.6 40.6,44.5 40.7,44.4 40.8,44.3 40.9,44.2 41,44.1 
			41.1,44.1 41.2,44 41.2,43.9 41.3,43.8 41.4,43.7 41.5,43.6 41.6,43.5 41.7,43.5 41.8,43.4 41.9,43.3 42,43.2 42.1,43.1 42.2,43 
			42.2,42.9 42.3,42.9 42.4,42.8 42.5,42.7 42.6,42.6 42.7,42.5 42.8,42.4 42.9,42.3 43,42.3 43.1,42.2 43.1,42.1 43.2,42 
			43.3,41.9 43.4,41.8 43.5,41.8 43.6,41.7 43.7,41.6 43.8,41.5 43.9,41.4 44,41.3 44.1,41.3 44.1,41.2 44.2,41.1 44.3,41 
			44.4,40.9 44.5,40.9 44.6,40.8 44.7,40.7 44.8,40.6 44.9,40.5 45,40.4 45.1,40.4 45.1,40.3 45.2,40.2 45.3,40.1 45.4,40 45.5,40 
			45.6,39.9 45.7,39.8 45.8,39.7 45.9,39.7 46,39.6 46,39.5 46.1,39.4 46.2,39.3 46.3,39.3 46.4,39.2 46.5,39.1 46.6,39 46.7,38.9 
			46.8,38.9 46.9,38.8 47,38.7 47,38.6 47.1,38.6 47.2,38.5 47.3,38.4 47.4,38.3 47.5,38.3 47.6,38.2 47.7,38.1 47.8,38 47.9,37.9 
			47.9,37.9 48,37.8 48.1,37.7 48.2,37.6 48.3,37.6 48.4,37.5 48.5,37.4 48.6,37.3 48.7,37.3 48.8,37.2 48.9,37.1 48.9,37.1 49,37 
			49.1,36.9 49.2,36.8 49.3,36.8 49.4,36.7 49.5,36.6 49.6,36.5 49.7,36.5 49.8,36.4 49.8,36.3 49.9,36.3 50,36.2 50.1,36.1 
			50.2,36 50.3,36 50.4,35.9 50.5,35.8 50.6,35.8 50.7,35.7 50.8,35.6 50.8,35.5 50.9,35.5 51,35.4 51.1,35.3 51.2,35.3 51.3,35.2 
			51.4,35.1 51.5,35.1 51.6,35 51.7,34.9 51.7,34.8 51.8,34.8 51.9,34.7 52,34.6 52.1,34.6 52.2,34.5 52.3,34.4 52.4,34.4 
			52.5,34.3 52.6,34.2 52.7,34.2 52.7,34.1 52.8,34 52.9,34 53,33.9 53.1,33.8 53.2,33.8 53.3,33.7 53.4,33.6 53.5,33.6 53.6,33.5 
			53.6,33.4 53.7,33.4 53.8,33.3 53.9,33.2 54,33.2 54.1,33.1 54.2,33 54.3,33 54.4,32.9 54.5,32.8 54.6,32.8 54.6,32.7 54.7,32.7 
			54.8,32.6 54.9,32.5 55,32.5 55.1,32.4 55.2,32.3 55.3,32.3 55.4,32.2 55.5,32.2 55.5,32.1 55.6,32 55.7,32 55.8,31.9 55.9,31.8 
			56,31.8 56.1,31.7 56.2,31.7 56.3,31.6 56.4,31.5 56.5,31.5 56.5,31.4 56.6,31.3 56.7,31.3 56.8,31.2 56.9,31.2 57,31.1 57.1,31 
			57.2,31 57.3,30.9 57.4,30.9 57.4,30.8 57.5,30.7 57.6,30.7 57.7,30.6 57.8,30.6 57.9,30.5 58,30.5 58.1,30.4 58.2,30.3 
			58.3,30.3 58.4,30.2 58.4,30.2 58.5,30.1 58.6,30 58.7,30 58.8,29.9 58.9,29.9 59,29.8 59.1,29.8 59.2,29.7 59.3,29.6 59.3,29.6 
			59.4,29.5 59.5,29.5 59.6,29.4 59.7,29.4 59.8,29.3 59.9,29.3 60,29.2 60.1,29.1 60.2,29.1 60.3,29 60.3,29 60.4,28.9 60.5,28.9 
			60.6,28.8 60.7,28.8 60.8,28.7 60.9,28.7 61,28.6 61.1,28.5 61.2,28.5 61.2,28.4 61.3,28.4 61.4,28.3 61.5,28.3 61.6,28.2 
			61.7,28.2 61.8,28.1 61.9,28.1 62,28 62.1,28 62.2,27.9 62.2,27.9 62.3,27.8 62.4,27.8 62.5,27.7 62.6,27.7 62.7,27.6 62.8,27.6 
			62.9,27.5 63,27.5 63.1,27.4 63.1,27.4 63.2,27.3 63.3,27.3 63.4,27.2 63.5,27.2 63.6,27.1 63.7,27.1 63.8,27 63.9,27 64,26.9 
			64.1,26.9 64.1,26.8 64.2,26.8 64.3,26.7 64.4,26.7 64.5,26.6 64.6,26.6 64.7,26.5 64.8,26.5 64.9,26.4 65,26.4 65,26.3 
			65.1,26.3 65.2,26.2 65.3,26.2 65.4,26.1 65.5,26.1 65.6,26 65.7,26 65.8,26 65.9,25.9 66,25.9 66,25.8 66.1,25.8 66.2,25.7 
			66.3,25.7 66.4,25.6 66.5,25.6 66.6,25.5 66.7,25.5 66.8,25.5 66.9,25.4 67,25.4 67,25.3 67.1,25.3 67.2,25.2 67.3,25.2 
			67.4,25.2 67.5,25.1 67.6,25.1 67.7,25 67.8,25 67.9,24.9 67.9,24.9 68,24.8 68.1,24.8 68.2,24.8 68.3,24.7 68.4,24.7 68.5,24.6 
			68.6,24.6 68.7,24.6 68.8,24.5 68.9,24.5 68.9,24.4 69,24.4 69.1,24.3 69.2,24.3 69.3,24.3 69.4,24.2 69.5,24.2 69.6,24.1 
			69.7,24.1 69.8,24.1 69.8,24 69.9,24 70,23.9 70.1,23.9 70.2,23.9 70.3,23.8 70.4,23.8 70.5,23.7 70.6,23.7 70.7,23.7 70.8,23.6 
			70.8,23.6 70.9,23.6 71,23.5 71.1,23.5 71.2,23.4 71.3,23.4 71.4,23.4 71.5,23.3 71.6,23.3 71.7,23.3 71.7,23.2 71.8,23.2 
			71.9,23.1 72,23.1 72.1,23.1 72.2,23 72.3,23 72.4,23 72.5,22.9 72.6,22.9 72.7,22.8 72.7,22.8 72.8,22.8 72.9,22.7 73,22.7 
			73.1,22.7 73.2,22.6 73.3,22.6 73.4,22.6 73.5,22.5 73.6,22.5 73.6,22.5 73.7,22.4 73.8,22.4 73.9,22.4 74,22.3 74.1,22.3 
			74.2,22.3 74.3,22.2 74.4,22.2 74.5,22.2 74.6,22.1 74.6,22.1 74.7,22.1 74.8,22 74.9,22 75,22 75.1,21.9 75.2,21.9 75.3,21.9 
			75.4,21.8 75.5,21.8 75.5,21.8 75.6,21.7 75.7,21.7 75.8,21.7 75.9,21.6 76,21.6 76.1,21.6 76.2,21.6 76.3,21.5 76.4,21.5 
			76.5,21.5 76.5,21.4 76.6,21.4 76.7,21.4 76.8,21.3 76.9,21.3 77,21.3 77.1,21.3 77.2,21.2 77.3,21.2 77.4,21.2 77.4,21.1 
			77.5,21.1 77.6,21.1 77.7,21.1 77.8,21 77.9,21 78,21 78.1,20.9 78.2,20.9 78.3,20.9 78.4,20.9 78.4,20.8 78.5,20.8 78.6,20.8 
			78.7,20.8 78.8,20.7 78.9,20.7 79,20.7 79.1,20.6 79.2,20.6 79.3,20.6 79.3,20.6 79.4,20.5 79.5,20.5 79.6,20.5 79.7,20.5 
			79.8,20.4 79.9,20.4 80,20.4 80.1,20.4 80.2,20.3 80.3,20.3 80.3,20.3 80.4,20.3 80.5,20.2 80.6,20.2 80.7,20.2 80.8,20.2 
			80.9,20.1 81,20.1 81.1,20.1 81.2,20.1 81.2,20 81.3,20 81.4,20 81.5,20 81.6,20 81.7,19.9 81.8,19.9 81.9,19.9 82,19.9 
			82.1,19.8 82.2,19.8 82.2,19.8 82.3,19.8 82.4,19.8 82.5,19.7 82.6,19.7 82.7,19.7 82.8,19.7 82.9,19.6 83,19.6 83.1,19.6 
			83.1,19.6 83.2,19.6 83.3,19.5 83.4,19.5 83.5,19.5 83.6,19.5 83.7,19.5 83.8,19.4 83.9,19.4 84,19.4 84.1,19.4 84.1,19.4 
			84.2,19.3 84.3,19.3 84.4,19.3 84.5,19.3 84.6,19.3 84.7,19.3 84.8,19.2 84.9,19.2 85,19.2 85,19.2 85.1,19.2 85.2,19.1 
			85.3,19.1 85.4,19.1 85.5,19.1 85.6,19.1 85.7,19.1 85.8,19 85.9,19 86,19 86,19 86.1,19 86.2,19 86.3,18.9 86.4,18.9 86.5,18.9 
			86.6,18.9 86.7,18.9 86.8,18.9 86.9,18.8 86.9,18.8 87,18.8 87.1,18.8 87.2,18.8 87.3,18.8 87.4,18.7 87.5,18.7 87.6,18.7 
			87.7,18.7 87.8,18.7 87.9,18.7 87.9,18.7 88,18.6 88.1,18.6 88.2,18.6 88.3,18.6 88.4,18.6 88.5,18.6 88.6,18.6 88.7,18.5 
			88.8,18.5 88.9,18.5 88.9,18.5 89,18.5 89.1,18.5 89.2,18.5 89.3,18.5 89.4,18.4 89.5,18.4 89.6,18.4 89.7,18.4 89.8,18.4 
			89.8,18.4 89.9,18.4 90,18.4 90.1,18.4 90.2,18.3 90.3,18.3 90.4,18.3 90.5,18.3 90.6,18.3 90.7,18.3 90.8,18.3 90.8,18.3 
			90.9,18.3 91,18.2 91.1,18.2 91.2,18.2 91.3,18.2 91.4,18.2 91.5,18.2 91.6,18.2 91.7,18.2 91.7,18.2 91.8,18.2 91.9,18.1 
			92,18.1 92.1,18.1 92.2,18.1 92.3,18.1 92.4,18.1 92.5,18.1 92.6,18.1 92.7,18.1 92.7,18.1 92.8,18.1 92.9,18.1 93,18 93.1,18 
			93.2,18 93.3,18 93.4,18 93.5,18 93.6,18 93.6,18 93.7,18 93.8,18 93.9,18 94,18 94.1,18 94.2,18 94.3,17.9 94.4,17.9 94.5,17.9 
			94.6,17.9 94.6,17.9 94.7,17.9 94.8,17.9 94.9,17.9 95,17.9 95.1,17.9 95.2,17.9 95.3,17.9 95.4,17.9 95.5,17.9 95.5,17.9 
			95.6,17.9 95.7,17.9 95.8,17.9 95.9,17.9 96,17.9 96.1,17.8 96.2,17.8 96.3,17.8 96.4,17.8 96.5,17.8 96.5,17.8 96.6,17.8 
			96.7,17.8 96.8,17.8 96.9,17.8 97,17.8 97.1,17.8 97.2,17.8 97.3,17.8 97.4,17.8 97.4,17.8 97.5,17.8 97.6,17.8 97.7,17.8 
			97.8,17.8 97.9,17.8 98,17.8 98.1,17.8 98.2,17.8 98.3,17.8 98.4,17.8 98.4,17.8 98.5,17.8 98.6,17.8 98.7,17.8 98.8,17.8 
			98.9,17.8 99,17.8 99.1,17.8 99.2,17.8 99.3,17.8 99.3,17.8 99.4,17.8 99.5,17.8 99.6,17.8 99.7,17.8 99.8,17.8 99.9,17.8 
			100,17.8 100.1,17.8 100.2,17.8 100.3,17.8 100.3,17.8 100.4,17.8 100.5,17.8 100.6,17.8 100.7,17.8 100.8,17.8 100.9,17.8 
			101,17.8 101.1,17.8 101.2,17.8 101.2,17.8 101.3,17.8 101.4,17.8 101.5,17.8 101.6,17.8 101.7,17.8 101.8,17.8 101.9,17.8 
			102,17.8 102.1,17.8 102.2,17.8 102.2,17.8 102.3,17.8 102.4,17.9 102.5,17.9 102.6,17.9 102.7,17.9 102.8,17.9 102.9,17.9 
			103,17.9 103.1,17.9 103.1,17.9 103.2,17.9 103.3,17.9 103.4,17.9 103.5,17.9 103.6,17.9 103.7,17.9 103.8,17.9 103.9,17.9 
			104,17.9 104.1,17.9 104.1,17.9 104.2,17.9 104.3,18 104.4,18 104.5,18 104.6,18 104.7,18 104.8,18 104.9,18 105,18 105,18 
			105.1,18 105.2,18 105.3,18 105.4,18 105.5,18 105.6,18.1 105.7,18.1 105.8,18.1 105.9,18.1 106,18.1 106,18.1 106.1,18.1 
			106.2,18.1 106.3,18.1 106.4,18.1 106.5,18.1 106.6,18.1 106.7,18.1 106.8,18.2 106.9,18.2 106.9,18.2 107,18.2 107.1,18.2 
			107.2,18.2 107.3,18.2 107.4,18.2 107.5,18.2 107.6,18.2 107.7,18.3 107.8,18.3 107.9,18.3 107.9,18.3 108,18.3 108.1,18.3 
			108.2,18.3 108.3,18.3 108.4,18.3 108.5,18.3 108.6,18.4 108.7,18.4 108.8,18.4 108.9,18.4 108.9,18.4 109,18.4 109.1,18.4 
			109.2,18.4 		"/>
	</g>
	
		<line style="clip-path:url(#SVGID_00000084503423638925009630000011580660656292092838_);fill:none;stroke:#000000;stroke-width:0.4899;stroke-linecap:round;stroke-linejoin:round;stroke-miterlimit:10;" x1="18.7" y1="74.1" x2="109.2" y2="74.1"/>
	
		<line style="clip-path:url(#SVGID_00000084503423638925009630000011580660656292092838_);fill:none;stroke:#000000;stroke-width:0.4899;stroke-linecap:round;stroke-linejoin:round;stroke-miterlimit:10;" x1="18.7" y1="74.1" x2="18.7" y2="76"/>
	
		<line style="clip-path:url(#SVGID_00000084503423638925009630000011580660656292092838_);fill:none;stroke:#000000;stroke-width:0.4899;stroke-linecap:round;stroke-linejoin:round;stroke-miterlimit:10;" x1="36.8" y1="74.1" x2="36.8" y2="76"/>
	
		<line style="clip-path:url(#SVGID_00000084503423638925009630000011580660656292092838_);fill:none;stroke:#000000;stroke-width:0.4899;stroke-linecap:round;stroke-linejoin:round;stroke-miterlimit:10;" x1="54.9" y1="74.1" x2="54.9" y2="76"/>
	
		<line style="clip-path:url(#SVGID_00000084503423638925009630000011580660656292092838_);fill:none;stroke:#000000;stroke-width:0.4899;stroke-linecap:round;stroke-linejoin:round;stroke-miterlimit:10;" x1="73" y1="74.1" x2="73" y2="76"/>
	
		<line style="clip-path:url(#SVGID_00000084503423638925009630000011580660656292092838_);fill:none;stroke:#000000;stroke-width:0.4899;stroke-linecap:round;stroke-linejoin:round;stroke-miterlimit:10;" x1="91.1" y1="74.1" x2="91.1" y2="76"/>
	
		<line style="clip-path:url(#SVGID_00000084503423638925009630000011580660656292092838_);fill:none;stroke:#000000;stroke-width:0.4899;stroke-linecap:round;stroke-linejoin:round;stroke-miterlimit:10;" x1="109.2" y1="74.1" x2="109.2" y2="76"/>
	<g style="clip-path:url(#SVGID_00000084503423638925009630000011580660656292092838_);">
		<text transform="matrix(1 0 0 1 17.4399 80.9014)" class="st13 st14">0.0</text>
	</g>
	<g style="clip-path:url(#SVGID_00000084503423638925009630000011580660656292092838_);">
		<text transform="matrix(1 0 0 1 35.5376 80.9014)" class="st13 st14">0.2</text>
	</g>
	<g style="clip-path:url(#SVGID_00000084503423638925009630000011580660656292092838_);">
		<text transform="matrix(1 0 0 1 53.6377 80.9014)" class="st13 st14">0.4</text>
	</g>
	<g style="clip-path:url(#SVGID_00000084503423638925009630000011580660656292092838_);">
		<text transform="matrix(1 0 0 1 71.7383 80.9014)" class="st13 st14">0.6</text>
	</g>
	<g style="clip-path:url(#SVGID_00000084503423638925009630000011580660656292092838_);">
		<text transform="matrix(1 0 0 1 89.8359 80.9014)" class="st13 st14">0.8</text>
	</g>
	<g style="clip-path:url(#SVGID_00000084503423638925009630000011580660656292092838_);">
		<text transform="matrix(1 0 0 1 107.936 80.9014)" class="st13 st14">1.0</text>
	</g>
	
		<line style="clip-path:url(#SVGID_00000084503423638925009630000011580660656292092838_);fill:none;stroke:#000000;stroke-width:0.4899;stroke-linecap:round;stroke-linejoin:round;stroke-miterlimit:10;" x1="15.1" y1="73" x2="15.1" y2="21.6"/>
	
		<line style="clip-path:url(#SVGID_00000084503423638925009630000011580660656292092838_);fill:none;stroke:#000000;stroke-width:0.4899;stroke-linecap:round;stroke-linejoin:round;stroke-miterlimit:10;" x1="15.1" y1="73" x2="13.2" y2="73"/>
	
		<line style="clip-path:url(#SVGID_00000084503423638925009630000011580660656292092838_);fill:none;stroke:#000000;stroke-width:0.4899;stroke-linecap:round;stroke-linejoin:round;stroke-miterlimit:10;" x1="15.1" y1="62.7" x2="13.2" y2="62.7"/>
	
		<line style="clip-path:url(#SVGID_00000084503423638925009630000011580660656292092838_);fill:none;stroke:#000000;stroke-width:0.4899;stroke-linecap:round;stroke-linejoin:round;stroke-miterlimit:10;" x1="15.1" y1="52.4" x2="13.2" y2="52.4"/>
	
		<line style="clip-path:url(#SVGID_00000084503423638925009630000011580660656292092838_);fill:none;stroke:#000000;stroke-width:0.4899;stroke-linecap:round;stroke-linejoin:round;stroke-miterlimit:10;" x1="15.1" y1="42.2" x2="13.2" y2="42.2"/>
	
		<line style="clip-path:url(#SVGID_00000084503423638925009630000011580660656292092838_);fill:none;stroke:#000000;stroke-width:0.4899;stroke-linecap:round;stroke-linejoin:round;stroke-miterlimit:10;" x1="15.1" y1="31.9" x2="13.2" y2="31.9"/>
	
		<line style="clip-path:url(#SVGID_00000084503423638925009630000011580660656292092838_);fill:none;stroke:#000000;stroke-width:0.4899;stroke-linecap:round;stroke-linejoin:round;stroke-miterlimit:10;" x1="15.1" y1="21.6" x2="13.2" y2="21.6"/>
	<g style="clip-path:url(#SVGID_00000084503423638925009630000011580660656292092838_);">
		<text transform="matrix(-6.123234e-17 -1 1 -6.123234e-17 10.5664 75.812)" class="st13 st14">−0.004</text>
	</g>
	<g style="clip-path:url(#SVGID_00000084503423638925009630000011580660656292092838_);">
		<text transform="matrix(-6.123234e-17 -1 1 -6.123234e-17 10.5664 65.5342)" class="st13 st14">−0.002</text>
	</g>
	<g style="clip-path:url(#SVGID_00000084503423638925009630000011580660656292092838_);">
		<text transform="matrix(-6.123234e-17 -1 1 -6.123234e-17 10.5664 54.7241)" class="st13 st14">0.000</text>
	</g>
	<g style="clip-path:url(#SVGID_00000084503423638925009630000011580660656292092838_);">
		<text transform="matrix(-6.123234e-17 -1 1 -6.123234e-17 10.5664 44.4463)" class="st13 st14">0.002</text>
	</g>
	<g style="clip-path:url(#SVGID_00000084503423638925009630000011580660656292092838_);">
		<text transform="matrix(-6.123234e-17 -1 1 -6.123234e-17 10.5664 34.1709)" class="st13 st14">0.004</text>
	</g>
	<g style="clip-path:url(#SVGID_00000084503423638925009630000011580660656292092838_);">
		<text transform="matrix(-6.123234e-17 -1 1 -6.123234e-17 10.5664 23.8936)" class="st13 st14">0.006</text>
	</g>
	
		<polyline style="clip-path:url(#SVGID_00000084503423638925009630000011580660656292092838_);fill:none;stroke:#000000;stroke-width:0.4899;stroke-linecap:round;stroke-linejoin:round;stroke-miterlimit:10;" points="
		15.1,15.6 15.1,74.1 112.8,74.1 	"/>
	<g style="clip-path:url(#SVGID_00000084503423638925009630000011580660656292092838_);">
		<text transform="matrix(1 0 0 1 63.3076 88.4482)" class="st13 st15">u</text>
	</g>
	<g style="clip-path:url(#SVGID_00000084503423638925009630000011580660656292092838_);">
		<text transform="matrix(-6.123234e-17 -1 1 -6.123234e-17 3.019 47.6802)" class="st13 st15"> MTE</text>
	</g>
	<g style="clip-path:url(#SVGID_00000084503423638925009630000011580660656292092838_);">
		<defs>
			<rect id="SVGID_00000163042523947830043540000014365670832922281908_" x="15.1" y="15.6" width="97.7" height="58.5"/>
		</defs>
		<clipPath id="SVGID_00000169525889922450536050000003280272060025632681_">
			<use xlink:href="#SVGID_00000163042523947830043540000014365670832922281908_"  style="overflow:visible;"/>
		</clipPath>
		
			<polyline style="clip-path:url(#SVGID_00000169525889922450536050000003280272060025632681_);fill:none;stroke:#FF0000;stroke-width:0.9798;stroke-linecap:round;stroke-linejoin:round;stroke-miterlimit:10;stroke-dasharray:0,3.9191;" points="
			18.7,71.9 18.8,71.8 18.9,71.7 19,71.5 19.1,71.4 19.2,71.3 19.3,71.1 19.3,71 19.4,70.9 19.5,70.7 19.6,70.6 19.7,70.5 
			19.8,70.3 19.9,70.2 20,70 20.1,69.9 20.2,69.8 20.3,69.6 20.3,69.5 20.4,69.4 20.5,69.2 20.6,69.1 20.7,69 20.8,68.9 20.9,68.7 
			21,68.6 21.1,68.5 21.2,68.3 21.2,68.2 21.3,68.1 21.4,67.9 21.5,67.8 21.6,67.7 21.7,67.5 21.8,67.4 21.9,67.3 22,67.1 22.1,67 
			22.2,66.9 22.2,66.8 22.3,66.6 22.4,66.5 22.5,66.4 22.6,66.2 22.7,66.1 22.8,66 22.9,65.9 23,65.7 23.1,65.6 23.1,65.5 
			23.2,65.3 23.3,65.2 23.4,65.1 23.5,65 23.6,64.8 23.7,64.7 23.8,64.6 23.9,64.5 24,64.3 24.1,64.2 24.1,64.1 24.2,64 24.3,63.8 
			24.4,63.7 24.5,63.6 24.6,63.5 24.7,63.3 24.8,63.2 24.9,63.1 25,63 25.1,62.8 25.1,62.7 25.2,62.6 25.3,62.5 25.4,62.3 
			25.5,62.2 25.6,62.1 25.7,62 25.8,61.8 25.9,61.7 26,61.6 26,61.5 26.1,61.4 26.2,61.2 26.3,61.1 26.4,61 26.5,60.9 26.6,60.7 
			26.7,60.6 26.8,60.5 26.9,60.4 27,60.3 27,60.1 27.1,60 27.2,59.9 27.3,59.8 27.4,59.7 27.5,59.5 27.6,59.4 27.7,59.3 27.8,59.2 
			27.9,59.1 27.9,59 28,58.8 28.1,58.7 28.2,58.6 28.3,58.5 28.4,58.4 28.5,58.2 28.6,58.1 28.7,58 28.8,57.9 28.9,57.8 28.9,57.7 
			29,57.5 29.1,57.4 29.2,57.3 29.3,57.2 29.4,57.1 29.5,57 29.6,56.9 29.7,56.7 29.8,56.6 29.8,56.5 29.9,56.4 30,56.3 30.1,56.2 
			30.2,56 30.3,55.9 30.4,55.8 30.5,55.7 30.6,55.6 30.7,55.5 30.8,55.4 30.8,55.3 30.9,55.1 31,55 31.1,54.9 31.2,54.8 31.3,54.7 
			31.4,54.6 31.5,54.5 31.6,54.4 31.7,54.3 31.7,54.1 31.8,54 31.9,53.9 32,53.8 32.1,53.7 32.2,53.6 32.3,53.5 32.4,53.4 
			32.5,53.3 32.6,53.2 32.6,53 32.7,52.9 32.8,52.8 32.9,52.7 33,52.6 33.1,52.5 33.2,52.4 33.3,52.3 33.4,52.2 33.5,52.1 33.6,52 
			33.6,51.9 33.7,51.7 33.8,51.6 33.9,51.5 34,51.4 34.1,51.3 34.2,51.2 34.3,51.1 34.4,51 34.5,50.9 34.6,50.8 34.6,50.7 
			34.7,50.6 34.8,50.5 34.9,50.4 35,50.3 35.1,50.2 35.2,50.1 35.3,50 35.4,49.9 35.5,49.7 35.5,49.6 35.6,49.5 35.7,49.4 
			35.8,49.3 35.9,49.2 36,49.1 36.1,49 36.2,48.9 36.3,48.8 36.4,48.7 36.5,48.6 36.5,48.5 36.6,48.4 36.7,48.3 36.8,48.2 
			36.9,48.1 37,48 37.1,47.9 37.2,47.8 37.3,47.7 37.4,47.6 37.4,47.5 37.5,47.4 37.6,47.3 37.7,47.2 37.8,47.1 37.9,47 38,46.9 
			38.1,46.8 38.2,46.7 38.3,46.6 38.4,46.5 38.4,46.4 38.5,46.3 38.6,46.2 38.7,46.1 38.8,46 38.9,45.9 39,45.8 39.1,45.8 
			39.2,45.7 39.3,45.6 39.3,45.5 39.4,45.4 39.5,45.3 39.6,45.2 39.7,45.1 39.8,45 39.9,44.9 40,44.8 40.1,44.7 40.2,44.6 
			40.3,44.5 40.3,44.4 40.4,44.3 40.5,44.2 40.6,44.1 40.7,44 40.8,44 40.9,43.9 41,43.8 41.1,43.7 41.2,43.6 41.2,43.5 41.3,43.4 
			41.4,43.3 41.5,43.2 41.6,43.1 41.7,43 41.8,42.9 41.9,42.9 42,42.8 42.1,42.7 42.2,42.6 42.2,42.5 42.3,42.4 42.4,42.3 
			42.5,42.2 42.6,42.1 42.7,42 42.8,42 42.9,41.9 43,41.8 43.1,41.7 43.1,41.6 43.2,41.5 43.3,41.4 43.4,41.3 43.5,41.2 43.6,41.2 
			43.7,41.1 43.8,41 43.9,40.9 44,40.8 44.1,40.7 44.1,40.6 44.2,40.5 44.3,40.5 44.4,40.4 44.5,40.3 44.6,40.2 44.7,40.1 44.8,40 
			44.9,39.9 45,39.9 45.1,39.8 45.1,39.7 45.2,39.6 45.3,39.5 45.4,39.4 45.5,39.4 45.6,39.3 45.7,39.2 45.8,39.1 45.9,39 46,38.9 
			46,38.9 46.1,38.8 46.2,38.7 46.3,38.6 46.4,38.5 46.5,38.4 46.6,38.4 46.7,38.3 46.8,38.2 46.9,38.1 47,38 47,38 47.1,37.9 
			47.2,37.8 47.3,37.7 47.4,37.6 47.5,37.6 47.6,37.5 47.7,37.4 47.8,37.3 47.9,37.2 47.9,37.2 48,37.1 48.1,37 48.2,36.9 
			48.3,36.8 48.4,36.8 48.5,36.7 48.6,36.6 48.7,36.5 48.8,36.5 48.9,36.4 48.9,36.3 49,36.2 49.1,36.2 49.2,36.1 49.3,36 
			49.4,35.9 49.5,35.8 49.6,35.8 49.7,35.7 49.8,35.6 49.8,35.5 49.9,35.5 50,35.4 50.1,35.3 50.2,35.2 50.3,35.2 50.4,35.1 
			50.5,35 50.6,34.9 50.7,34.9 50.8,34.8 50.8,34.7 50.9,34.7 51,34.6 51.1,34.5 51.2,34.4 51.3,34.4 51.4,34.3 51.5,34.2 
			51.6,34.1 51.7,34.1 51.7,34 51.8,33.9 51.9,33.9 52,33.8 52.1,33.7 52.2,33.7 52.3,33.6 52.4,33.5 52.5,33.4 52.6,33.4 
			52.7,33.3 52.7,33.2 52.8,33.2 52.9,33.1 53,33 53.1,33 53.2,32.9 53.3,32.8 53.4,32.8 53.5,32.7 53.6,32.6 53.6,32.5 53.7,32.5 
			53.8,32.4 53.9,32.3 54,32.3 54.1,32.2 54.2,32.1 54.3,32.1 54.4,32 54.5,31.9 54.6,31.9 54.6,31.8 54.7,31.7 54.8,31.7 
			54.9,31.6 55,31.6 55.1,31.5 55.2,31.4 55.3,31.4 55.4,31.3 55.5,31.2 55.5,31.2 55.6,31.1 55.7,31 55.8,31 55.9,30.9 56,30.8 
			56.1,30.8 56.2,30.7 56.3,30.7 56.4,30.6 56.5,30.5 56.5,30.5 56.6,30.4 56.7,30.3 56.8,30.3 56.9,30.2 57,30.2 57.1,30.1 
			57.2,30 57.3,30 57.4,29.9 57.4,29.9 57.5,29.8 57.6,29.7 57.7,29.7 57.8,29.6 57.9,29.6 58,29.5 58.1,29.4 58.2,29.4 58.3,29.3 
			58.4,29.3 58.4,29.2 58.5,29.2 58.6,29.1 58.7,29 58.8,29 58.9,28.9 59,28.9 59.1,28.8 59.2,28.7 59.3,28.7 59.3,28.6 59.4,28.6 
			59.5,28.5 59.6,28.5 59.7,28.4 59.8,28.4 59.9,28.3 60,28.2 60.1,28.2 60.2,28.1 60.3,28.1 60.3,28 60.4,28 60.5,27.9 60.6,27.9 
			60.7,27.8 60.8,27.8 60.9,27.7 61,27.6 61.1,27.6 61.2,27.5 61.2,27.5 61.3,27.4 61.4,27.4 61.5,27.3 61.6,27.3 61.7,27.2 
			61.8,27.2 61.9,27.1 62,27.1 62.1,27 62.2,27 62.2,26.9 62.3,26.9 62.4,26.8 62.5,26.8 62.6,26.7 62.7,26.7 62.8,26.6 62.9,26.6 
			63,26.5 63.1,26.5 63.1,26.4 63.2,26.4 63.3,26.3 63.4,26.3 63.5,26.2 63.6,26.2 63.7,26.1 63.8,26.1 63.9,26 64,26 64.1,25.9 
			64.1,25.9 64.2,25.8 64.3,25.8 64.4,25.8 64.5,25.7 64.6,25.7 64.7,25.6 64.8,25.6 64.9,25.5 65,25.5 65,25.4 65.1,25.4 
			65.2,25.3 65.3,25.3 65.4,25.3 65.5,25.2 65.6,25.2 65.7,25.1 65.8,25.1 65.9,25 66,25 66,24.9 66.1,24.9 66.2,24.9 66.3,24.8 
			66.4,24.8 66.5,24.7 66.6,24.7 66.7,24.6 66.8,24.6 66.9,24.6 67,24.5 67,24.5 67.1,24.4 67.2,24.4 67.3,24.4 67.4,24.3 
			67.5,24.3 67.6,24.2 67.7,24.2 67.8,24.2 67.9,24.1 67.9,24.1 68,24 68.1,24 68.2,24 68.3,23.9 68.4,23.9 68.5,23.8 68.6,23.8 
			68.7,23.8 68.8,23.7 68.9,23.7 68.9,23.7 69,23.6 69.1,23.6 69.2,23.5 69.3,23.5 69.4,23.5 69.5,23.4 69.6,23.4 69.7,23.4 
			69.8,23.3 69.8,23.3 69.9,23.3 70,23.2 70.1,23.2 70.2,23.1 70.3,23.1 70.4,23.1 70.5,23 70.6,23 70.7,23 70.8,22.9 70.8,22.9 
			70.9,22.9 71,22.8 71.1,22.8 71.2,22.8 71.3,22.7 71.4,22.7 71.5,22.7 71.6,22.6 71.7,22.6 71.7,22.6 71.8,22.5 71.9,22.5 
			72,22.5 72.1,22.4 72.2,22.4 72.3,22.4 72.4,22.4 72.5,22.3 72.6,22.3 72.7,22.3 72.7,22.2 72.8,22.2 72.9,22.2 73,22.1 
			73.1,22.1 73.2,22.1 73.3,22.1 73.4,22 73.5,22 73.6,22 73.6,21.9 73.7,21.9 73.8,21.9 73.9,21.9 74,21.8 74.1,21.8 74.2,21.8 
			74.3,21.7 74.4,21.7 74.5,21.7 74.6,21.7 74.6,21.6 74.7,21.6 74.8,21.6 74.9,21.6 75,21.5 75.1,21.5 75.2,21.5 75.3,21.5 
			75.4,21.4 75.5,21.4 75.5,21.4 75.6,21.4 75.7,21.3 75.8,21.3 75.9,21.3 76,21.3 76.1,21.2 76.2,21.2 76.3,21.2 76.4,21.2 
			76.5,21.1 76.5,21.1 76.6,21.1 76.7,21.1 76.8,21.1 76.9,21 77,21 77.1,21 77.2,21 77.3,20.9 77.4,20.9 77.4,20.9 77.5,20.9 
			77.6,20.9 77.7,20.8 77.8,20.8 77.9,20.8 78,20.8 78.1,20.8 78.2,20.7 78.3,20.7 78.4,20.7 78.4,20.7 78.5,20.7 78.6,20.7 
			78.7,20.6 78.8,20.6 78.9,20.6 79,20.6 79.1,20.6 79.2,20.5 79.3,20.5 79.3,20.5 79.4,20.5 79.5,20.5 79.6,20.5 79.7,20.4 
			79.8,20.4 79.9,20.4 80,20.4 80.1,20.4 80.2,20.4 80.3,20.3 80.3,20.3 80.4,20.3 80.5,20.3 80.6,20.3 80.7,20.3 80.8,20.3 
			80.9,20.2 81,20.2 81.1,20.2 81.2,20.2 81.2,20.2 81.3,20.2 81.4,20.2 81.5,20.2 81.6,20.1 81.7,20.1 81.8,20.1 81.9,20.1 
			82,20.1 82.1,20.1 82.2,20.1 82.2,20.1 82.3,20 82.4,20 82.5,20 82.6,20 82.7,20 82.8,20 82.9,20 83,20 83.1,20 83.1,19.9 
			83.2,19.9 83.3,19.9 83.4,19.9 83.5,19.9 83.6,19.9 83.7,19.9 83.8,19.9 83.9,19.9 84,19.9 84.1,19.9 84.1,19.9 84.2,19.8 
			84.3,19.8 84.4,19.8 84.5,19.8 84.6,19.8 84.7,19.8 84.8,19.8 84.9,19.8 85,19.8 85,19.8 85.1,19.8 85.2,19.8 85.3,19.8 
			85.4,19.8 85.5,19.8 85.6,19.8 85.7,19.7 85.8,19.7 85.9,19.7 86,19.7 86,19.7 86.1,19.7 86.2,19.7 86.3,19.7 86.4,19.7 
			86.5,19.7 86.6,19.7 86.7,19.7 86.8,19.7 86.9,19.7 86.9,19.7 87,19.7 87.1,19.7 87.2,19.7 87.3,19.7 87.4,19.7 87.5,19.7 
			87.6,19.7 87.7,19.7 87.8,19.7 87.9,19.7 87.9,19.7 88,19.7 88.1,19.7 88.2,19.7 88.3,19.7 88.4,19.7 88.5,19.7 88.6,19.7 
			88.7,19.7 88.8,19.7 88.9,19.7 88.9,19.7 89,19.7 89.1,19.7 89.2,19.7 89.3,19.7 89.4,19.7 89.5,19.7 89.6,19.7 89.7,19.7 
			89.8,19.7 89.8,19.7 89.9,19.7 90,19.7 90.1,19.7 90.2,19.7 90.3,19.7 90.4,19.8 90.5,19.8 90.6,19.8 90.7,19.8 90.8,19.8 
			90.8,19.8 90.9,19.8 91,19.8 91.1,19.8 91.2,19.8 91.3,19.8 91.4,19.8 91.5,19.8 91.6,19.8 91.7,19.8 91.7,19.8 91.8,19.8 
			91.9,19.9 92,19.9 92.1,19.9 92.2,19.9 92.3,19.9 92.4,19.9 92.5,19.9 92.6,19.9 92.7,19.9 92.7,19.9 92.8,19.9 92.9,20 93,20 
			93.1,20 93.2,20 93.3,20 93.4,20 93.5,20 93.6,20 93.6,20 93.7,20 93.8,20.1 93.9,20.1 94,20.1 94.1,20.1 94.2,20.1 94.3,20.1 
			94.4,20.1 94.5,20.1 94.6,20.2 94.6,20.2 94.7,20.2 94.8,20.2 94.9,20.2 95,20.2 95.1,20.2 95.2,20.2 95.3,20.3 95.4,20.3 
			95.5,20.3 95.5,20.3 95.6,20.3 95.7,20.3 95.8,20.4 95.9,20.4 96,20.4 96.1,20.4 96.2,20.4 96.3,20.4 96.4,20.4 96.5,20.5 
			96.5,20.5 96.6,20.5 96.7,20.5 96.8,20.5 96.9,20.5 97,20.6 97.1,20.6 97.2,20.6 97.3,20.6 97.4,20.6 97.4,20.7 97.5,20.7 
			97.6,20.7 97.7,20.7 97.8,20.7 97.9,20.8 98,20.8 98.1,20.8 98.2,20.8 98.3,20.8 98.4,20.9 98.4,20.9 98.5,20.9 98.6,20.9 
			98.7,20.9 98.8,21 98.9,21 99,21 99.1,21 99.2,21 99.3,21.1 99.3,21.1 99.4,21.1 99.5,21.1 99.6,21.2 99.7,21.2 99.8,21.2 
			99.9,21.2 100,21.2 100.1,21.3 100.2,21.3 100.3,21.3 100.3,21.3 100.4,21.4 100.5,21.4 100.6,21.4 100.7,21.4 100.8,21.5 
			100.9,21.5 101,21.5 101.1,21.5 101.2,21.6 101.2,21.6 101.3,21.6 101.4,21.6 101.5,21.7 101.6,21.7 101.7,21.7 101.8,21.8 
			101.9,21.8 102,21.8 102.1,21.8 102.2,21.9 102.2,21.9 102.3,21.9 102.4,21.9 102.5,22 102.6,22 102.7,22 102.8,22.1 102.9,22.1 
			103,22.1 103.1,22.2 103.1,22.2 103.2,22.2 103.3,22.2 103.4,22.3 103.5,22.3 103.6,22.3 103.7,22.4 103.8,22.4 103.9,22.4 
			104,22.5 104.1,22.5 104.1,22.5 104.2,22.5 104.3,22.6 104.4,22.6 104.5,22.6 104.6,22.7 104.7,22.7 104.8,22.7 104.9,22.8 
			105,22.8 105,22.8 105.1,22.9 105.2,22.9 105.3,22.9 105.4,23 105.5,23 105.6,23 105.7,23.1 105.8,23.1 105.9,23.2 106,23.2 
			106,23.2 106.1,23.3 106.2,23.3 106.3,23.3 106.4,23.4 106.5,23.4 106.6,23.4 106.7,23.5 106.8,23.5 106.9,23.5 106.9,23.6 
			107,23.6 107.1,23.7 107.2,23.7 107.3,23.7 107.4,23.8 107.5,23.8 107.6,23.9 107.7,23.9 107.8,23.9 107.9,24 107.9,24 108,24 
			108.1,24.1 108.2,24.1 108.3,24.2 108.4,24.2 108.5,24.2 108.6,24.3 108.7,24.3 108.8,24.4 108.9,24.4 108.9,24.4 109,24.5 
			109.1,24.5 109.2,24.6 		"/>
		
			<line style="clip-path:url(#SVGID_00000169525889922450536050000003280272060025632681_);fill:none;stroke:#000000;stroke-width:0.4899;stroke-linecap:round;stroke-linejoin:round;stroke-miterlimit:10;" x1="16.5" y1="17.5" x2="19.3" y2="17.5"/>
		
			<line style="clip-path:url(#SVGID_00000169525889922450536050000003280272060025632681_);fill:none;stroke:#FF0000;stroke-width:0.4899;stroke-linecap:round;stroke-linejoin:round;stroke-miterlimit:10;stroke-dasharray:0,1.9595;" x1="16.5" y1="19.4" x2="19.3" y2="19.4"/>
		<g style="clip-path:url(#SVGID_00000169525889922450536050000003280272060025632681_);">
			<text transform="matrix(1 0 0 1 20.7549 18.0674)" class="st13 st20">DGP 1</text>
		</g>
		<g style="clip-path:url(#SVGID_00000169525889922450536050000003280272060025632681_);">
			<text transform="matrix(1 0 0 1 20.7549 19.9546)"><tspan x="0" y="0" class="st13 st20">T</tspan><tspan x="0.8" y="0" class="st13 st20">w</tspan><tspan x="1.9" y="0" class="st13 st20">o−cell appr</tspan><tspan x="9.6" y="0" class="st13 st20">o</tspan><tspan x="10.5" y="0" class="st13 st20">ximation</tspan></text>
		</g>
	</g>
</g>
<text transform="matrix(1 0 0 1 123.3555 4.0625)"><tspan x="0" y="0" class="st0 st21">(b</tspan><tspan x="3.6" y="0" class="st0 st21 st2">)</tspan><tspan x="6.6" y="0" class="st0 st21">DG</tspan><tspan x="12" y="0" class="st0 st21 st2">P</tspan><tspan x="16.1" y="0" class="st0 st21">2</tspan><tspan x="18.2" y="0" class="st0 st21 st7">:</tspan><tspan x="22" y="0" class="st0 st21">MTE</tspan></text>
<text transform="matrix(1 0 0 1 156.1191 4.0625)" class="st4 st22">(</text>
<text transform="matrix(1 0 0 1 157.9082 4.0625)" class="st6 st21">u</text>
<text transform="matrix(1 0 0 1 160.3301 4.0625)"><tspan x="0" y="0" class="st4 st22 st7">)</tspan><tspan x="4" y="0" class="st4 st22">=</tspan></text>
<text transform="matrix(1 0 0 1 170.8389 4.0625)" class="st8 st22">−</text>
<text transform="matrix(1 0 0 1 174.2676 4.0625)" class="st0 st21">0.0034</text>
<text transform="matrix(1 0 0 1 186.8857 4.0625)" class="st4 st22">+</text>
<text transform="matrix(1 0 0 1 191.417 4.0625)" class="st0 st21">0.0268</text>
<text transform="matrix(1 0 0 1 202.9316 4.0625)" class="st6 st21">u</text>
<text transform="matrix(1 0 0 1 206.457 4.0625)" class="st8 st22">−</text>
<text transform="matrix(1 0 0 1 210.9883 4.0625)" class="st0 st21">0.0288</text>
<text transform="matrix(1 0 0 1 222.5039 4.0625)" class="st6 st21">u</text>
<text transform="matrix(1 0 0 1 224.873 2.5488)" class="st0 st23">2</text>
<text transform="matrix(1 0 0 1 227.7422 4.0625)" class="st4 st22">+</text>
<text transform="matrix(1 0 0 1 123.3555 9.2393)" class="st0 st21">0.003</text>
<text transform="matrix(1 0 0 1 132.7861 9.2393)" class="st6 st21">u</text>
<text transform="matrix(1 0 0 1 135.1562 7.7266)" class="st0 st23">3</text>
<g>
	<defs>
		<rect id="SVGID_00000091011454512275910650000005593706522375202730_" x="114" y="13.1" width="114.2" height="76.1"/>
	</defs>
	<clipPath id="SVGID_00000001636538613633741330000006337152203430959764_">
		<use xlink:href="#SVGID_00000091011454512275910650000005593706522375202730_"  style="overflow:visible;"/>
	</clipPath>
	<g style="clip-path:url(#SVGID_00000001636538613633741330000006337152203430959764_);">
		<defs>
			<rect id="SVGID_00000176041151064588472660000017647598977039315901_" x="129.2" y="15" width="98.6" height="59"/>
		</defs>
		<clipPath id="SVGID_00000183936749667705566730000000597782709183295398_">
			<use xlink:href="#SVGID_00000176041151064588472660000017647598977039315901_"  style="overflow:visible;"/>
		</clipPath>
		
			<polyline style="clip-path:url(#SVGID_00000183936749667705566730000000597782709183295398_);fill:none;stroke:#000000;stroke-width:0.9798;stroke-linecap:round;stroke-linejoin:round;stroke-miterlimit:10;" points="
			132.9,71.8 133,71.6 133,71.3 133.1,71.1 133.2,70.9 133.3,70.7 133.4,70.5 133.5,70.2 133.6,70 133.7,69.8 133.8,69.6 
			133.9,69.4 134,69.2 134,68.9 134.1,68.7 134.2,68.5 134.3,68.3 134.4,68.1 134.5,67.9 134.6,67.6 134.7,67.4 134.8,67.2 
			134.9,67 135,66.8 135.1,66.6 135.1,66.4 135.2,66.2 135.3,65.9 135.4,65.7 135.5,65.5 135.6,65.3 135.7,65.1 135.8,64.9 
			135.9,64.7 136,64.5 136.1,64.3 136.1,64.1 136.2,63.9 136.3,63.7 136.4,63.5 136.5,63.3 136.6,63.1 136.7,62.8 136.8,62.6 
			136.9,62.4 137,62.2 137.1,62 137.2,61.8 137.2,61.6 137.3,61.4 137.4,61.2 137.5,61 137.6,60.8 137.7,60.6 137.8,60.4 
			137.9,60.2 138,60.1 138.1,59.9 138.2,59.7 138.2,59.5 138.3,59.3 138.4,59.1 138.5,58.9 138.6,58.7 138.7,58.5 138.8,58.3 
			138.9,58.1 139,57.9 139.1,57.7 139.2,57.5 139.3,57.3 139.3,57.2 139.4,57 139.5,56.8 139.6,56.6 139.7,56.4 139.8,56.2 
			139.9,56 140,55.8 140.1,55.7 140.2,55.5 140.3,55.3 140.3,55.1 140.4,54.9 140.5,54.7 140.6,54.6 140.7,54.4 140.8,54.2 
			140.9,54 141,53.8 141.1,53.6 141.2,53.5 141.3,53.3 141.4,53.1 141.4,52.9 141.5,52.8 141.6,52.6 141.7,52.4 141.8,52.2 
			141.9,52 142,51.9 142.1,51.7 142.2,51.5 142.3,51.3 142.4,51.2 142.4,51 142.5,50.8 142.6,50.6 142.7,50.5 142.8,50.3 
			142.9,50.1 143,50 143.1,49.8 143.2,49.6 143.3,49.5 143.4,49.3 143.4,49.1 143.5,48.9 143.6,48.8 143.7,48.6 143.8,48.4 
			143.9,48.3 144,48.1 144.1,47.9 144.2,47.8 144.3,47.6 144.4,47.5 144.5,47.3 144.5,47.1 144.6,47 144.7,46.8 144.8,46.6 
			144.9,46.5 145,46.3 145.1,46.2 145.2,46 145.3,45.8 145.4,45.7 145.5,45.5 145.5,45.4 145.6,45.2 145.7,45.1 145.8,44.9 
			145.9,44.7 146,44.6 146.1,44.4 146.2,44.3 146.3,44.1 146.4,44 146.5,43.8 146.6,43.7 146.6,43.5 146.7,43.4 146.8,43.2 
			146.9,43.1 147,42.9 147.1,42.8 147.2,42.6 147.3,42.5 147.4,42.3 147.5,42.2 147.6,42 147.6,41.9 147.7,41.7 147.8,41.6 
			147.9,41.4 148,41.3 148.1,41.1 148.2,41 148.3,40.8 148.4,40.7 148.5,40.6 148.6,40.4 148.7,40.3 148.7,40.1 148.8,40 
			148.9,39.8 149,39.7 149.1,39.6 149.2,39.4 149.3,39.3 149.4,39.1 149.5,39 149.6,38.9 149.7,38.7 149.7,38.6 149.8,38.5 
			149.9,38.3 150,38.2 150.1,38.1 150.2,37.9 150.3,37.8 150.4,37.6 150.5,37.5 150.6,37.4 150.7,37.2 150.8,37.1 150.8,37 
			150.9,36.9 151,36.7 151.1,36.6 151.2,36.5 151.3,36.3 151.4,36.2 151.5,36.1 151.6,35.9 151.7,35.8 151.8,35.7 151.8,35.6 
			151.9,35.4 152,35.3 152.1,35.2 152.2,35.1 152.3,34.9 152.4,34.8 152.5,34.7 152.6,34.6 152.7,34.4 152.8,34.3 152.9,34.2 
			152.9,34.1 153,34 153.1,33.8 153.2,33.7 153.3,33.6 153.4,33.5 153.5,33.4 153.6,33.2 153.7,33.1 153.8,33 153.9,32.9 
			153.9,32.8 154,32.7 154.1,32.5 154.2,32.4 154.3,32.3 154.4,32.2 154.5,32.1 154.6,32 154.7,31.9 154.8,31.8 154.9,31.6 
			155,31.5 155,31.4 155.1,31.3 155.2,31.2 155.3,31.1 155.4,31 155.5,30.9 155.6,30.8 155.7,30.7 155.8,30.5 155.9,30.4 156,30.3 
			156,30.2 156.1,30.1 156.2,30 156.3,29.9 156.4,29.8 156.5,29.7 156.6,29.6 156.7,29.5 156.8,29.4 156.9,29.3 157,29.2 
			157.1,29.1 157.1,29 157.2,28.9 157.3,28.8 157.4,28.7 157.5,28.6 157.6,28.5 157.7,28.4 157.8,28.3 157.9,28.2 158,28.1 
			158.1,28 158.1,27.9 158.2,27.8 158.3,27.7 158.4,27.6 158.5,27.5 158.6,27.4 158.7,27.3 158.8,27.2 158.9,27.2 159,27.1 
			159.1,27 159.2,26.9 159.2,26.8 159.3,26.7 159.4,26.6 159.5,26.5 159.6,26.4 159.7,26.3 159.8,26.3 159.9,26.2 160,26.1 
			160.1,26 160.2,25.9 160.2,25.8 160.3,25.7 160.4,25.6 160.5,25.6 160.6,25.5 160.7,25.4 160.8,25.3 160.9,25.2 161,25.1 
			161.1,25.1 161.2,25 161.2,24.9 161.3,24.8 161.4,24.7 161.5,24.7 161.6,24.6 161.7,24.5 161.8,24.4 161.9,24.3 162,24.3 
			162.1,24.2 162.2,24.1 162.3,24 162.3,24 162.4,23.9 162.5,23.8 162.6,23.7 162.7,23.7 162.8,23.6 162.9,23.5 163,23.4 
			163.1,23.4 163.2,23.3 163.3,23.2 163.3,23.2 163.4,23.1 163.5,23 163.6,22.9 163.7,22.9 163.8,22.8 163.9,22.7 164,22.7 
			164.1,22.6 164.2,22.5 164.3,22.5 164.4,22.4 164.4,22.3 164.5,22.3 164.6,22.2 164.7,22.1 164.8,22.1 164.9,22 165,21.9 
			165.1,21.9 165.2,21.8 165.3,21.8 165.4,21.7 165.4,21.6 165.5,21.6 165.6,21.5 165.7,21.5 165.8,21.4 165.9,21.3 166,21.3 
			166.1,21.2 166.2,21.2 166.3,21.1 166.4,21 166.5,21 166.5,20.9 166.6,20.9 166.7,20.8 166.8,20.8 166.9,20.7 167,20.7 
			167.1,20.6 167.2,20.5 167.3,20.5 167.4,20.4 167.5,20.4 167.5,20.3 167.6,20.3 167.7,20.2 167.8,20.2 167.9,20.1 168,20.1 
			168.1,20 168.2,20 168.3,19.9 168.4,19.9 168.5,19.8 168.6,19.8 168.6,19.8 168.7,19.7 168.8,19.7 168.9,19.6 169,19.6 
			169.1,19.5 169.2,19.5 169.3,19.4 169.4,19.4 169.5,19.3 169.6,19.3 169.6,19.3 169.7,19.2 169.8,19.2 169.9,19.1 170,19.1 
			170.1,19.1 170.2,19 170.3,19 170.4,18.9 170.5,18.9 170.6,18.9 170.7,18.8 170.7,18.8 170.8,18.8 170.9,18.7 171,18.7 
			171.1,18.7 171.2,18.6 171.3,18.6 171.4,18.5 171.5,18.5 171.6,18.5 171.7,18.4 171.7,18.4 171.8,18.4 171.9,18.4 172,18.3 
			172.1,18.3 172.2,18.3 172.3,18.2 172.4,18.2 172.5,18.2 172.6,18.1 172.7,18.1 172.8,18.1 172.8,18.1 172.9,18 173,18 173.1,18 
			173.2,18 173.3,17.9 173.4,17.9 173.5,17.9 173.6,17.9 173.7,17.8 173.8,17.8 173.8,17.8 173.9,17.8 174,17.7 174.1,17.7 
			174.2,17.7 174.3,17.7 174.4,17.7 174.5,17.6 174.6,17.6 174.7,17.6 174.8,17.6 174.9,17.6 174.9,17.5 175,17.5 175.1,17.5 
			175.2,17.5 175.3,17.5 175.4,17.5 175.5,17.4 175.6,17.4 175.7,17.4 175.8,17.4 175.9,17.4 175.9,17.4 176,17.4 176.1,17.4 
			176.2,17.3 176.3,17.3 176.4,17.3 176.5,17.3 176.6,17.3 176.7,17.3 176.8,17.3 176.9,17.3 177,17.3 177,17.2 177.1,17.2 
			177.2,17.2 177.3,17.2 177.4,17.2 177.5,17.2 177.6,17.2 177.7,17.2 177.8,17.2 177.9,17.2 178,17.2 178,17.2 178.1,17.2 
			178.2,17.2 178.3,17.2 178.4,17.2 178.5,17.2 178.6,17.2 178.7,17.2 178.8,17.2 178.9,17.2 179,17.2 179,17.2 179.1,17.2 
			179.2,17.2 179.3,17.2 179.4,17.2 179.5,17.2 179.6,17.2 179.7,17.2 179.8,17.2 179.9,17.2 180,17.2 180.1,17.2 180.1,17.2 
			180.2,17.2 180.3,17.2 180.4,17.2 180.5,17.2 180.6,17.2 180.7,17.2 180.8,17.3 180.9,17.3 181,17.3 181.1,17.3 181.1,17.3 
			181.2,17.3 181.3,17.3 181.4,17.3 181.5,17.3 181.6,17.3 181.7,17.4 181.8,17.4 181.9,17.4 182,17.4 182.1,17.4 182.2,17.4 
			182.2,17.4 182.3,17.5 182.4,17.5 182.5,17.5 182.6,17.5 182.7,17.5 182.8,17.5 182.9,17.5 183,17.6 183.1,17.6 183.2,17.6 
			183.2,17.6 183.3,17.6 183.4,17.7 183.5,17.7 183.6,17.7 183.7,17.7 183.8,17.7 183.9,17.8 184,17.8 184.1,17.8 184.2,17.8 
			184.3,17.9 184.3,17.9 184.4,17.9 184.5,17.9 184.6,18 184.7,18 184.8,18 184.9,18 185,18.1 185.1,18.1 185.2,18.1 185.3,18.1 
			185.3,18.2 185.4,18.2 185.5,18.2 185.6,18.3 185.7,18.3 185.8,18.3 185.9,18.3 186,18.4 186.1,18.4 186.2,18.4 186.3,18.5 
			186.4,18.5 186.4,18.5 186.5,18.6 186.6,18.6 186.7,18.6 186.8,18.7 186.9,18.7 187,18.7 187.1,18.8 187.2,18.8 187.3,18.8 
			187.4,18.9 187.4,18.9 187.5,19 187.6,19 187.7,19 187.8,19.1 187.9,19.1 188,19.2 188.1,19.2 188.2,19.2 188.3,19.3 188.4,19.3 
			188.5,19.4 188.5,19.4 188.6,19.4 188.7,19.5 188.8,19.5 188.9,19.6 189,19.6 189.1,19.7 189.2,19.7 189.3,19.7 189.4,19.8 
			189.5,19.8 189.5,19.9 189.6,19.9 189.7,20 189.8,20 189.9,20.1 190,20.1 190.1,20.2 190.2,20.2 190.3,20.3 190.4,20.3 
			190.5,20.4 190.5,20.4 190.6,20.5 190.7,20.5 190.8,20.6 190.9,20.6 191,20.7 191.1,20.7 191.2,20.8 191.3,20.8 191.4,20.9 
			191.5,20.9 191.6,21 191.6,21 191.7,21.1 191.8,21.2 191.9,21.2 192,21.3 192.1,21.3 192.2,21.4 192.3,21.4 192.4,21.5 
			192.5,21.6 192.6,21.6 192.7,21.7 192.7,21.7 192.8,21.8 192.9,21.9 193,21.9 193.1,22 193.2,22 193.3,22.1 193.4,22.2 
			193.5,22.2 193.6,22.3 193.7,22.3 193.7,22.4 193.8,22.5 193.9,22.5 194,22.6 194.1,22.7 194.2,22.7 194.3,22.8 194.4,22.9 
			194.5,22.9 194.6,23 194.7,23.1 194.8,23.1 194.8,23.2 194.9,23.3 195,23.3 195.1,23.4 195.2,23.5 195.3,23.5 195.4,23.6 
			195.5,23.7 195.6,23.8 195.7,23.8 195.8,23.9 195.8,24 195.9,24.1 196,24.1 196.1,24.2 196.2,24.3 196.3,24.3 196.4,24.4 
			196.5,24.5 196.6,24.6 196.7,24.6 196.8,24.7 196.8,24.8 196.9,24.9 197,25 197.1,25 197.2,25.1 197.3,25.2 197.4,25.3 
			197.5,25.3 197.6,25.4 197.7,25.5 197.8,25.6 197.9,25.7 197.9,25.7 198,25.8 198.1,25.9 198.2,26 198.3,26.1 198.4,26.2 
			198.5,26.2 198.6,26.3 198.7,26.4 198.8,26.5 198.9,26.6 198.9,26.7 199,26.7 199.1,26.8 199.2,26.9 199.3,27 199.4,27.1 
			199.5,27.2 199.6,27.3 199.7,27.4 199.8,27.4 199.9,27.5 200,27.6 200,27.7 200.1,27.8 200.2,27.9 200.3,28 200.4,28.1 
			200.5,28.2 200.6,28.3 200.7,28.3 200.8,28.4 200.9,28.5 201,28.6 201,28.7 201.1,28.8 201.2,28.9 201.3,29 201.4,29.1 
			201.5,29.2 201.6,29.3 201.7,29.4 201.8,29.5 201.9,29.6 202,29.7 202.1,29.8 202.1,29.9 202.2,30 202.3,30.1 202.4,30.2 
			202.5,30.3 202.6,30.4 202.7,30.5 202.8,30.6 202.9,30.7 203,30.8 203.1,30.9 203.1,31 203.2,31.1 203.3,31.2 203.4,31.3 
			203.5,31.4 203.6,31.5 203.7,31.6 203.8,31.7 203.9,31.8 204,31.9 204.1,32 204.2,32.1 204.2,32.2 204.3,32.3 204.4,32.4 
			204.5,32.5 204.6,32.7 204.7,32.8 204.8,32.9 204.9,33 205,33.1 205.1,33.2 205.2,33.3 205.2,33.4 205.3,33.5 205.4,33.6 
			205.5,33.8 205.6,33.9 205.7,34 205.8,34.1 205.9,34.2 206,34.3 206.1,34.4 206.2,34.5 206.3,34.7 206.3,34.8 206.4,34.9 
			206.5,35 206.6,35.1 206.7,35.2 206.8,35.3 206.9,35.5 207,35.6 207.1,35.7 207.2,35.8 207.3,35.9 207.3,36.1 207.4,36.2 
			207.5,36.3 207.6,36.4 207.7,36.5 207.8,36.7 207.9,36.8 208,36.9 208.1,37 208.2,37.1 208.3,37.3 208.3,37.4 208.4,37.5 
			208.5,37.6 208.6,37.8 208.7,37.9 208.8,38 208.9,38.1 209,38.3 209.1,38.4 209.2,38.5 209.3,38.6 209.4,38.8 209.4,38.9 
			209.5,39 209.6,39.1 209.7,39.3 209.8,39.4 209.9,39.5 210,39.6 210.1,39.8 210.2,39.9 210.3,40 210.4,40.2 210.5,40.3 
			210.5,40.4 210.6,40.6 210.7,40.7 210.8,40.8 210.9,41 211,41.1 211.1,41.2 211.2,41.4 211.3,41.5 211.4,41.6 211.5,41.8 
			211.5,41.9 211.6,42 211.7,42.2 211.8,42.3 211.9,42.4 212,42.6 212.1,42.7 212.2,42.9 212.3,43 212.4,43.1 212.5,43.3 
			212.5,43.4 212.6,43.5 212.7,43.7 212.8,43.8 212.9,44 213,44.1 213.1,44.2 213.2,44.4 213.3,44.5 213.4,44.7 213.5,44.8 
			213.6,45 213.6,45.1 213.7,45.2 213.8,45.4 213.9,45.5 214,45.7 214.1,45.8 214.2,46 214.3,46.1 214.4,46.3 214.5,46.4 
			214.6,46.5 214.6,46.7 214.7,46.8 214.8,47 214.9,47.1 215,47.3 215.1,47.4 215.2,47.6 215.3,47.7 215.4,47.9 215.5,48 
			215.6,48.2 215.7,48.3 215.7,48.5 215.8,48.6 215.9,48.8 216,48.9 216.1,49.1 216.2,49.2 216.3,49.4 216.4,49.5 216.5,49.7 
			216.6,49.9 216.7,50 216.7,50.2 216.8,50.3 216.9,50.5 217,50.6 217.1,50.8 217.2,50.9 217.3,51.1 217.4,51.3 217.5,51.4 
			217.6,51.6 217.7,51.7 217.8,51.9 217.8,52 217.9,52.2 218,52.4 218.1,52.5 218.2,52.7 218.3,52.8 218.4,53 218.5,53.2 
			218.6,53.3 218.7,53.5 218.8,53.7 218.8,53.8 218.9,54 219,54.1 219.1,54.3 219.2,54.5 219.3,54.6 219.4,54.8 219.5,55 
			219.6,55.1 219.7,55.3 219.8,55.5 219.9,55.6 219.9,55.8 220,56 220.1,56.1 220.2,56.3 220.3,56.5 220.4,56.6 220.5,56.8 
			220.6,57 220.7,57.1 220.8,57.3 220.9,57.5 220.9,57.6 221,57.8 221.1,58 221.2,58.2 221.3,58.3 221.4,58.5 221.5,58.7 
			221.6,58.8 221.7,59 221.8,59.2 221.9,59.4 222,59.5 222,59.7 222.1,59.9 222.2,60.1 222.3,60.2 222.4,60.4 222.5,60.6 
			222.6,60.8 222.7,60.9 222.8,61.1 222.9,61.3 223,61.5 223,61.7 223.1,61.8 223.2,62 223.3,62.2 223.4,62.4 223.5,62.5 
			223.6,62.7 223.7,62.9 223.8,63.1 223.9,63.3 224,63.4 224.1,63.6 224.1,63.8 		"/>
	</g>
	
		<line style="clip-path:url(#SVGID_00000001636538613633741330000006337152203430959764_);fill:none;stroke:#000000;stroke-width:0.4899;stroke-linecap:round;stroke-linejoin:round;stroke-miterlimit:10;" x1="132.9" y1="74" x2="224.1" y2="74"/>
	
		<line style="clip-path:url(#SVGID_00000001636538613633741330000006337152203430959764_);fill:none;stroke:#000000;stroke-width:0.4899;stroke-linecap:round;stroke-linejoin:round;stroke-miterlimit:10;" x1="132.9" y1="74" x2="132.9" y2="75.9"/>
	
		<line style="clip-path:url(#SVGID_00000001636538613633741330000006337152203430959764_);fill:none;stroke:#000000;stroke-width:0.4899;stroke-linecap:round;stroke-linejoin:round;stroke-miterlimit:10;" x1="151.1" y1="74" x2="151.1" y2="75.9"/>
	
		<line style="clip-path:url(#SVGID_00000001636538613633741330000006337152203430959764_);fill:none;stroke:#000000;stroke-width:0.4899;stroke-linecap:round;stroke-linejoin:round;stroke-miterlimit:10;" x1="169.4" y1="74" x2="169.4" y2="75.9"/>
	
		<line style="clip-path:url(#SVGID_00000001636538613633741330000006337152203430959764_);fill:none;stroke:#000000;stroke-width:0.4899;stroke-linecap:round;stroke-linejoin:round;stroke-miterlimit:10;" x1="187.6" y1="74" x2="187.6" y2="75.9"/>
	
		<line style="clip-path:url(#SVGID_00000001636538613633741330000006337152203430959764_);fill:none;stroke:#000000;stroke-width:0.4899;stroke-linecap:round;stroke-linejoin:round;stroke-miterlimit:10;" x1="205.9" y1="74" x2="205.9" y2="75.9"/>
	
		<line style="clip-path:url(#SVGID_00000001636538613633741330000006337152203430959764_);fill:none;stroke:#000000;stroke-width:0.4899;stroke-linecap:round;stroke-linejoin:round;stroke-miterlimit:10;" x1="224.1" y1="74" x2="224.1" y2="75.9"/>
	<g style="clip-path:url(#SVGID_00000001636538613633741330000006337152203430959764_);">
		<text transform="matrix(1 0 0 1 131.5762 80.8296)" class="st13 st27">0.0</text>
	</g>
	<g style="clip-path:url(#SVGID_00000001636538613633741330000006337152203430959764_);">
		<text transform="matrix(1 0 0 1 149.8311 80.8296)" class="st13 st27">0.2</text>
	</g>
	<g style="clip-path:url(#SVGID_00000001636538613633741330000006337152203430959764_);">
		<text transform="matrix(1 0 0 1 168.0869 80.8296)" class="st13 st27">0.4</text>
	</g>
	<g style="clip-path:url(#SVGID_00000001636538613633741330000006337152203430959764_);">
		<text transform="matrix(1 0 0 1 186.3438 80.8296)" class="st13 st27">0.6</text>
	</g>
	<g style="clip-path:url(#SVGID_00000001636538613633741330000006337152203430959764_);">
		<text transform="matrix(1 0 0 1 204.5986 80.8296)" class="st13 st27">0.8</text>
	</g>
	<g style="clip-path:url(#SVGID_00000001636538613633741330000006337152203430959764_);">
		<text transform="matrix(1 0 0 1 222.8555 80.8296)" class="st13 st27">1.0</text>
	</g>
	
		<line style="clip-path:url(#SVGID_00000001636538613633741330000006337152203430959764_);fill:none;stroke:#000000;stroke-width:0.4899;stroke-linecap:round;stroke-linejoin:round;stroke-miterlimit:10;" x1="129.2" y1="68.8" x2="129.2" y2="18.9"/>
	
		<line style="clip-path:url(#SVGID_00000001636538613633741330000006337152203430959764_);fill:none;stroke:#000000;stroke-width:0.4899;stroke-linecap:round;stroke-linejoin:round;stroke-miterlimit:10;" x1="129.2" y1="68.8" x2="127.3" y2="68.8"/>
	
		<line style="clip-path:url(#SVGID_00000001636538613633741330000006337152203430959764_);fill:none;stroke:#000000;stroke-width:0.4899;stroke-linecap:round;stroke-linejoin:round;stroke-miterlimit:10;" x1="129.2" y1="60.5" x2="127.3" y2="60.5"/>
	
		<line style="clip-path:url(#SVGID_00000001636538613633741330000006337152203430959764_);fill:none;stroke:#000000;stroke-width:0.4899;stroke-linecap:round;stroke-linejoin:round;stroke-miterlimit:10;" x1="129.2" y1="52.2" x2="127.3" y2="52.2"/>
	
		<line style="clip-path:url(#SVGID_00000001636538613633741330000006337152203430959764_);fill:none;stroke:#000000;stroke-width:0.4899;stroke-linecap:round;stroke-linejoin:round;stroke-miterlimit:10;" x1="129.2" y1="43.9" x2="127.3" y2="43.9"/>
	
		<line style="clip-path:url(#SVGID_00000001636538613633741330000006337152203430959764_);fill:none;stroke:#000000;stroke-width:0.4899;stroke-linecap:round;stroke-linejoin:round;stroke-miterlimit:10;" x1="129.2" y1="35.5" x2="127.3" y2="35.5"/>
	
		<line style="clip-path:url(#SVGID_00000001636538613633741330000006337152203430959764_);fill:none;stroke:#000000;stroke-width:0.4899;stroke-linecap:round;stroke-linejoin:round;stroke-miterlimit:10;" x1="129.2" y1="27.2" x2="127.3" y2="27.2"/>
	
		<line style="clip-path:url(#SVGID_00000001636538613633741330000006337152203430959764_);fill:none;stroke:#000000;stroke-width:0.4899;stroke-linecap:round;stroke-linejoin:round;stroke-miterlimit:10;" x1="129.2" y1="18.9" x2="127.3" y2="18.9"/>
	<g style="clip-path:url(#SVGID_00000001636538613633741330000006337152203430959764_);">
		<text transform="matrix(-6.123234e-17 -1 1 -6.123234e-17 124.6426 71.6831)" class="st13 st27">−0.003</text>
	</g>
	<g style="clip-path:url(#SVGID_00000001636538613633741330000006337152203430959764_);">
		<text transform="matrix(-6.123234e-17 -1 1 -6.123234e-17 124.6426 63.3618)" class="st13 st27">−0.002</text>
	</g>
	<g style="clip-path:url(#SVGID_00000001636538613633741330000006337152203430959764_);">
		<text transform="matrix(-6.123234e-17 -1 1 -6.123234e-17 124.6426 55.0415)" class="st13 st27">−0.001</text>
	</g>
	<g style="clip-path:url(#SVGID_00000001636538613633741330000006337152203430959764_);">
		<text transform="matrix(-6.123234e-17 -1 1 -6.123234e-17 124.6426 46.1812)" class="st13 st27">0.000</text>
	</g>
	<g style="clip-path:url(#SVGID_00000001636538613633741330000006337152203430959764_);">
		<text transform="matrix(-6.123234e-17 -1 1 -6.123234e-17 124.6426 37.8628)" class="st13 st27">0.001</text>
	</g>
	<g style="clip-path:url(#SVGID_00000001636538613633741330000006337152203430959764_);">
		<text transform="matrix(-6.123234e-17 -1 1 -6.123234e-17 124.6426 29.5415)" class="st13 st27">0.002</text>
	</g>
	<g style="clip-path:url(#SVGID_00000001636538613633741330000006337152203430959764_);">
		<text transform="matrix(-6.123234e-17 -1 1 -6.123234e-17 124.6426 21.2212)" class="st13 st27">0.003</text>
	</g>
	
		<polyline style="clip-path:url(#SVGID_00000001636538613633741330000006337152203430959764_);fill:none;stroke:#000000;stroke-width:0.4899;stroke-linecap:round;stroke-linejoin:round;stroke-miterlimit:10;" points="
		129.2,15 129.2,74 227.8,74 	"/>
	<g style="clip-path:url(#SVGID_00000001636538613633741330000006337152203430959764_);">
		<text transform="matrix(1 0 0 1 177.8398 88.4419)" class="st13 st28">u</text>
	</g>
	<g style="clip-path:url(#SVGID_00000001636538613633741330000006337152203430959764_);">
		<defs>
			<rect id="SVGID_00000086681396649947116880000001146382905338697614_" x="129.2" y="15" width="98.6" height="59"/>
		</defs>
		<clipPath id="SVGID_00000020400440300769483930000004222641331215106740_">
			<use xlink:href="#SVGID_00000086681396649947116880000001146382905338697614_"  style="overflow:visible;"/>
		</clipPath>
		
			<polyline style="clip-path:url(#SVGID_00000020400440300769483930000004222641331215106740_);fill:none;stroke:#FF0000;stroke-width:0.9798;stroke-linecap:round;stroke-linejoin:round;stroke-miterlimit:10;stroke-dasharray:0,3.9191;" points="
			132.9,68.9 133,68.7 133,68.5 133.1,68.3 133.2,68.1 133.3,67.9 133.4,67.7 133.5,67.5 133.6,67.4 133.7,67.2 133.8,67 
			133.9,66.8 134,66.6 134,66.4 134.1,66.2 134.2,66 134.3,65.8 134.4,65.6 134.5,65.4 134.6,65.2 134.7,65.1 134.8,64.9 
			134.9,64.7 135,64.5 135.1,64.3 135.1,64.1 135.2,63.9 135.3,63.7 135.4,63.6 135.5,63.4 135.6,63.2 135.7,63 135.8,62.8 
			135.9,62.6 136,62.4 136.1,62.3 136.1,62.1 136.2,61.9 136.3,61.7 136.4,61.5 136.5,61.3 136.6,61.2 136.7,61 136.8,60.8 
			136.9,60.6 137,60.4 137.1,60.3 137.2,60.1 137.2,59.9 137.3,59.7 137.4,59.5 137.5,59.4 137.6,59.2 137.7,59 137.8,58.8 
			137.9,58.7 138,58.5 138.1,58.3 138.2,58.1 138.2,58 138.3,57.8 138.4,57.6 138.5,57.4 138.6,57.3 138.7,57.1 138.8,56.9 
			138.9,56.8 139,56.6 139.1,56.4 139.2,56.2 139.3,56.1 139.3,55.9 139.4,55.7 139.5,55.6 139.6,55.4 139.7,55.2 139.8,55.1 
			139.9,54.9 140,54.7 140.1,54.6 140.2,54.4 140.3,54.2 140.3,54.1 140.4,53.9 140.5,53.7 140.6,53.6 140.7,53.4 140.8,53.2 
			140.9,53.1 141,52.9 141.1,52.7 141.2,52.6 141.3,52.4 141.4,52.3 141.4,52.1 141.5,51.9 141.6,51.8 141.7,51.6 141.8,51.5 
			141.9,51.3 142,51.1 142.1,51 142.2,50.8 142.3,50.7 142.4,50.5 142.4,50.3 142.5,50.2 142.6,50 142.7,49.9 142.8,49.7 
			142.9,49.6 143,49.4 143.1,49.3 143.2,49.1 143.3,48.9 143.4,48.8 143.4,48.6 143.5,48.5 143.6,48.3 143.7,48.2 143.8,48 
			143.9,47.9 144,47.7 144.1,47.6 144.2,47.4 144.3,47.3 144.4,47.1 144.5,47 144.5,46.8 144.6,46.7 144.7,46.5 144.8,46.4 
			144.9,46.2 145,46.1 145.1,46 145.2,45.8 145.3,45.7 145.4,45.5 145.5,45.4 145.5,45.2 145.6,45.1 145.7,44.9 145.8,44.8 
			145.9,44.7 146,44.5 146.1,44.4 146.2,44.2 146.3,44.1 146.4,44 146.5,43.8 146.6,43.7 146.6,43.5 146.7,43.4 146.8,43.2 
			146.9,43.1 147,43 147.1,42.8 147.2,42.7 147.3,42.6 147.4,42.4 147.5,42.3 147.6,42.2 147.6,42 147.7,41.9 147.8,41.7 
			147.9,41.6 148,41.5 148.1,41.3 148.2,41.2 148.3,41.1 148.4,40.9 148.5,40.8 148.6,40.7 148.7,40.6 148.7,40.4 148.8,40.3 
			148.9,40.2 149,40 149.1,39.9 149.2,39.8 149.3,39.6 149.4,39.5 149.5,39.4 149.6,39.3 149.7,39.1 149.7,39 149.8,38.9 
			149.9,38.8 150,38.6 150.1,38.5 150.2,38.4 150.3,38.3 150.4,38.1 150.5,38 150.6,37.9 150.7,37.8 150.8,37.6 150.8,37.5 
			150.9,37.4 151,37.3 151.1,37.2 151.2,37 151.3,36.9 151.4,36.8 151.5,36.7 151.6,36.6 151.7,36.4 151.8,36.3 151.8,36.2 
			151.9,36.1 152,36 152.1,35.8 152.2,35.7 152.3,35.6 152.4,35.5 152.5,35.4 152.6,35.3 152.7,35.2 152.8,35 152.9,34.9 
			152.9,34.8 153,34.7 153.1,34.6 153.2,34.5 153.3,34.4 153.4,34.2 153.5,34.1 153.6,34 153.7,33.9 153.8,33.8 153.9,33.7 
			153.9,33.6 154,33.5 154.1,33.4 154.2,33.3 154.3,33.2 154.4,33 154.5,32.9 154.6,32.8 154.7,32.7 154.8,32.6 154.9,32.5 
			155,32.4 155,32.3 155.1,32.2 155.2,32.1 155.3,32 155.4,31.9 155.5,31.8 155.6,31.7 155.7,31.6 155.8,31.5 155.9,31.4 156,31.3 
			156,31.2 156.1,31.1 156.2,31 156.3,30.9 156.4,30.8 156.5,30.7 156.6,30.6 156.7,30.5 156.8,30.4 156.9,30.3 157,30.2 
			157.1,30.1 157.1,30 157.2,29.9 157.3,29.8 157.4,29.7 157.5,29.6 157.6,29.5 157.7,29.4 157.8,29.3 157.9,29.3 158,29.2 
			158.1,29.1 158.1,29 158.2,28.9 158.3,28.8 158.4,28.7 158.5,28.6 158.6,28.5 158.7,28.4 158.8,28.3 158.9,28.3 159,28.2 
			159.1,28.1 159.2,28 159.2,27.9 159.3,27.8 159.4,27.7 159.5,27.6 159.6,27.6 159.7,27.5 159.8,27.4 159.9,27.3 160,27.2 
			160.1,27.1 160.2,27 160.2,27 160.3,26.9 160.4,26.8 160.5,26.7 160.6,26.6 160.7,26.6 160.8,26.5 160.9,26.4 161,26.3 
			161.1,26.2 161.2,26.2 161.2,26.1 161.3,26 161.4,25.9 161.5,25.8 161.6,25.8 161.7,25.7 161.8,25.6 161.9,25.5 162,25.5 
			162.1,25.4 162.2,25.3 162.3,25.2 162.3,25.2 162.4,25.1 162.5,25 162.6,24.9 162.7,24.9 162.8,24.8 162.9,24.7 163,24.7 
			163.1,24.6 163.2,24.5 163.3,24.4 163.3,24.4 163.4,24.3 163.5,24.2 163.6,24.2 163.7,24.1 163.8,24 163.9,24 164,23.9 
			164.1,23.8 164.2,23.8 164.3,23.7 164.4,23.6 164.4,23.6 164.5,23.5 164.6,23.4 164.7,23.4 164.8,23.3 164.9,23.2 165,23.2 
			165.1,23.1 165.2,23 165.3,23 165.4,22.9 165.4,22.9 165.5,22.8 165.6,22.7 165.7,22.7 165.8,22.6 165.9,22.6 166,22.5 
			166.1,22.4 166.2,22.4 166.3,22.3 166.4,22.3 166.5,22.2 166.5,22.2 166.6,22.1 166.7,22 166.8,22 166.9,21.9 167,21.9 
			167.1,21.8 167.2,21.8 167.3,21.7 167.4,21.7 167.5,21.6 167.5,21.6 167.6,21.5 167.7,21.4 167.8,21.4 167.9,21.3 168,21.3 
			168.1,21.2 168.2,21.2 168.3,21.1 168.4,21.1 168.5,21 168.6,21 168.6,21 168.7,20.9 168.8,20.9 168.9,20.8 169,20.8 169.1,20.7 
			169.2,20.7 169.3,20.6 169.4,20.6 169.5,20.5 169.6,20.5 169.6,20.4 169.7,20.4 169.8,20.4 169.9,20.3 170,20.3 170.1,20.2 
			170.2,20.2 170.3,20.1 170.4,20.1 170.5,20.1 170.6,20 170.7,20 170.7,19.9 170.8,19.9 170.9,19.9 171,19.8 171.1,19.8 
			171.2,19.8 171.3,19.7 171.4,19.7 171.5,19.6 171.6,19.6 171.7,19.6 171.7,19.5 171.8,19.5 171.9,19.5 172,19.4 172.1,19.4 
			172.2,19.4 172.3,19.3 172.4,19.3 172.5,19.3 172.6,19.2 172.7,19.2 172.8,19.2 172.8,19.1 172.9,19.1 173,19.1 173.1,19.1 
			173.2,19 173.3,19 173.4,19 173.5,18.9 173.6,18.9 173.7,18.9 173.8,18.9 173.8,18.8 173.9,18.8 174,18.8 174.1,18.8 174.2,18.7 
			174.3,18.7 174.4,18.7 174.5,18.7 174.6,18.6 174.7,18.6 174.8,18.6 174.9,18.6 174.9,18.5 175,18.5 175.1,18.5 175.2,18.5 
			175.3,18.5 175.4,18.4 175.5,18.4 175.6,18.4 175.7,18.4 175.8,18.4 175.9,18.3 175.9,18.3 176,18.3 176.1,18.3 176.2,18.3 
			176.3,18.3 176.4,18.2 176.5,18.2 176.6,18.2 176.7,18.2 176.8,18.2 176.9,18.2 177,18.2 177,18.1 177.1,18.1 177.2,18.1 
			177.3,18.1 177.4,18.1 177.5,18.1 177.6,18.1 177.7,18.1 177.8,18.1 177.9,18 178,18 178,18 178.1,18 178.2,18 178.3,18 178.4,18 
			178.5,18 178.6,18 178.7,18 178.8,18 178.9,18 179,18 179,18 179.1,17.9 179.2,17.9 179.3,17.9 179.4,17.9 179.5,17.9 179.6,17.9 
			179.7,17.9 179.8,17.9 179.9,17.9 180,17.9 180.1,17.9 180.1,17.9 180.2,17.9 180.3,17.9 180.4,17.9 180.5,17.9 180.6,17.9 
			180.7,17.9 180.8,17.9 180.9,17.9 181,17.9 181.1,17.9 181.1,17.9 181.2,18 181.3,18 181.4,18 181.5,18 181.6,18 181.7,18 
			181.8,18 181.9,18 182,18 182.1,18 182.2,18 182.2,18 182.3,18 182.4,18 182.5,18 182.6,18.1 182.7,18.1 182.8,18.1 182.9,18.1 
			183,18.1 183.1,18.1 183.2,18.1 183.2,18.1 183.3,18.2 183.4,18.2 183.5,18.2 183.6,18.2 183.7,18.2 183.8,18.2 183.9,18.2 
			184,18.3 184.1,18.3 184.2,18.3 184.3,18.3 184.3,18.3 184.4,18.3 184.5,18.4 184.6,18.4 184.7,18.4 184.8,18.4 184.9,18.4 
			185,18.5 185.1,18.5 185.2,18.5 185.3,18.5 185.3,18.5 185.4,18.6 185.5,18.6 185.6,18.6 185.7,18.6 185.8,18.6 185.9,18.7 
			186,18.7 186.1,18.7 186.2,18.7 186.3,18.8 186.4,18.8 186.4,18.8 186.5,18.8 186.6,18.9 186.7,18.9 186.8,18.9 186.9,19 187,19 
			187.1,19 187.2,19 187.3,19.1 187.4,19.1 187.4,19.1 187.5,19.2 187.6,19.2 187.7,19.2 187.8,19.3 187.9,19.3 188,19.3 
			188.1,19.4 188.2,19.4 188.3,19.4 188.4,19.5 188.5,19.5 188.5,19.5 188.6,19.6 188.7,19.6 188.8,19.6 188.9,19.7 189,19.7 
			189.1,19.7 189.2,19.8 189.3,19.8 189.4,19.9 189.5,19.9 189.5,19.9 189.6,20 189.7,20 189.8,20 189.9,20.1 190,20.1 190.1,20.2 
			190.2,20.2 190.3,20.3 190.4,20.3 190.5,20.3 190.5,20.4 190.6,20.4 190.7,20.5 190.8,20.5 190.9,20.6 191,20.6 191.1,20.6 
			191.2,20.7 191.3,20.7 191.4,20.8 191.5,20.8 191.6,20.9 191.6,20.9 191.7,21 191.8,21 191.9,21.1 192,21.1 192.1,21.2 
			192.2,21.2 192.3,21.3 192.4,21.3 192.5,21.4 192.6,21.4 192.7,21.5 192.7,21.5 192.8,21.6 192.9,21.6 193,21.7 193.1,21.7 
			193.2,21.8 193.3,21.8 193.4,21.9 193.5,22 193.6,22 193.7,22.1 193.7,22.1 193.8,22.2 193.9,22.2 194,22.3 194.1,22.4 
			194.2,22.4 194.3,22.5 194.4,22.5 194.5,22.6 194.6,22.6 194.7,22.7 194.8,22.8 194.8,22.8 194.9,22.9 195,23 195.1,23 
			195.2,23.1 195.3,23.1 195.4,23.2 195.5,23.3 195.6,23.3 195.7,23.4 195.8,23.5 195.8,23.5 195.9,23.6 196,23.7 196.1,23.7 
			196.2,23.8 196.3,23.9 196.4,23.9 196.5,24 196.6,24.1 196.7,24.1 196.8,24.2 196.8,24.3 196.9,24.3 197,24.4 197.1,24.5 
			197.2,24.5 197.3,24.6 197.4,24.7 197.5,24.8 197.6,24.8 197.7,24.9 197.8,25 197.9,25.1 197.9,25.1 198,25.2 198.1,25.3 
			198.2,25.3 198.3,25.4 198.4,25.5 198.5,25.6 198.6,25.7 198.7,25.7 198.8,25.8 198.9,25.9 198.9,26 199,26 199.1,26.1 
			199.2,26.2 199.3,26.3 199.4,26.4 199.5,26.4 199.6,26.5 199.7,26.6 199.8,26.7 199.9,26.8 200,26.8 200,26.9 200.1,27 
			200.2,27.1 200.3,27.2 200.4,27.3 200.5,27.3 200.6,27.4 200.7,27.5 200.8,27.6 200.9,27.7 201,27.8 201,27.9 201.1,27.9 
			201.2,28 201.3,28.1 201.4,28.2 201.5,28.3 201.6,28.4 201.7,28.5 201.8,28.6 201.9,28.7 202,28.7 202.1,28.8 202.1,28.9 
			202.2,29 202.3,29.1 202.4,29.2 202.5,29.3 202.6,29.4 202.7,29.5 202.8,29.6 202.9,29.7 203,29.8 203.1,29.9 203.1,30 
			203.2,30.1 203.3,30.1 203.4,30.2 203.5,30.3 203.6,30.4 203.7,30.5 203.8,30.6 203.9,30.7 204,30.8 204.1,30.9 204.2,31 
			204.2,31.1 204.3,31.2 204.4,31.3 204.5,31.4 204.6,31.5 204.7,31.6 204.8,31.7 204.9,31.8 205,31.9 205.1,32 205.2,32.2 
			205.2,32.3 205.3,32.4 205.4,32.5 205.5,32.6 205.6,32.7 205.7,32.8 205.8,32.9 205.9,33 206,33.1 206.1,33.2 206.2,33.3 
			206.3,33.4 206.3,33.5 206.4,33.6 206.5,33.8 206.6,33.9 206.7,34 206.8,34.1 206.9,34.2 207,34.3 207.1,34.4 207.2,34.5 
			207.3,34.6 207.3,34.8 207.4,34.9 207.5,35 207.6,35.1 207.7,35.2 207.8,35.3 207.9,35.4 208,35.6 208.1,35.7 208.2,35.8 
			208.3,35.9 208.3,36 208.4,36.1 208.5,36.3 208.6,36.4 208.7,36.5 208.8,36.6 208.9,36.7 209,36.9 209.1,37 209.2,37.1 
			209.3,37.2 209.4,37.3 209.4,37.5 209.5,37.6 209.6,37.7 209.7,37.8 209.8,37.9 209.9,38.1 210,38.2 210.1,38.3 210.2,38.4 
			210.3,38.6 210.4,38.7 210.5,38.8 210.5,38.9 210.6,39.1 210.7,39.2 210.8,39.3 210.9,39.5 211,39.6 211.1,39.7 211.2,39.8 
			211.3,40 211.4,40.1 211.5,40.2 211.5,40.4 211.6,40.5 211.7,40.6 211.8,40.8 211.9,40.9 212,41 212.1,41.1 212.2,41.3 
			212.3,41.4 212.4,41.5 212.5,41.7 212.5,41.8 212.6,42 212.7,42.1 212.8,42.2 212.9,42.4 213,42.5 213.1,42.6 213.2,42.8 
			213.3,42.9 213.4,43 213.5,43.2 213.6,43.3 213.6,43.5 213.7,43.6 213.8,43.7 213.9,43.9 214,44 214.1,44.2 214.2,44.3 
			214.3,44.4 214.4,44.6 214.5,44.7 214.6,44.9 214.6,45 214.7,45.2 214.8,45.3 214.9,45.4 215,45.6 215.1,45.7 215.2,45.9 
			215.3,46 215.4,46.2 215.5,46.3 215.6,46.5 215.7,46.6 215.7,46.8 215.8,46.9 215.9,47.1 216,47.2 216.1,47.4 216.2,47.5 
			216.3,47.7 216.4,47.8 216.5,48 216.6,48.1 216.7,48.3 216.7,48.4 216.8,48.6 216.9,48.7 217,48.9 217.1,49 217.2,49.2 
			217.3,49.3 217.4,49.5 217.5,49.6 217.6,49.8 217.7,50 217.8,50.1 217.8,50.3 217.9,50.4 218,50.6 218.1,50.7 218.2,50.9 
			218.3,51.1 218.4,51.2 218.5,51.4 218.6,51.5 218.7,51.7 218.8,51.9 218.8,52 218.9,52.2 219,52.3 219.1,52.5 219.2,52.7 
			219.3,52.8 219.4,53 219.5,53.2 219.6,53.3 219.7,53.5 219.8,53.6 219.9,53.8 219.9,54 220,54.1 220.1,54.3 220.2,54.5 
			220.3,54.6 220.4,54.8 220.5,55 220.6,55.1 220.7,55.3 220.8,55.5 220.9,55.6 220.9,55.8 221,56 221.1,56.2 221.2,56.3 
			221.3,56.5 221.4,56.7 221.5,56.8 221.6,57 221.7,57.2 221.8,57.4 221.9,57.5 222,57.7 222,57.9 222.1,58.1 222.2,58.2 
			222.3,58.4 222.4,58.6 222.5,58.8 222.6,58.9 222.7,59.1 222.8,59.3 222.9,59.5 223,59.6 223,59.8 223.1,60 223.2,60.2 
			223.3,60.4 223.4,60.5 223.5,60.7 223.6,60.9 223.7,61.1 223.8,61.3 223.9,61.4 224,61.6 224.1,61.8 224.1,62 		"/>
		
			<line style="clip-path:url(#SVGID_00000020400440300769483930000004222641331215106740_);fill:none;stroke:#000000;stroke-width:0.4899;stroke-linecap:round;stroke-linejoin:round;stroke-miterlimit:10;" x1="130.6" y1="16.9" x2="133.5" y2="16.9"/>
		
			<line style="clip-path:url(#SVGID_00000020400440300769483930000004222641331215106740_);fill:none;stroke:#FF0000;stroke-width:0.4899;stroke-linecap:round;stroke-linejoin:round;stroke-miterlimit:10;stroke-dasharray:0,1.9595;" x1="130.6" y1="18.8" x2="133.5" y2="18.8"/>
		<g style="clip-path:url(#SVGID_00000020400440300769483930000004222641331215106740_);">
			<text transform="matrix(1 0 0 1 134.9199 17.4517)" class="st13 st33">DGP 2</text>
		</g>
		<g style="clip-path:url(#SVGID_00000020400440300769483930000004222641331215106740_);">
			<text transform="matrix(1 0 0 1 134.9199 19.354)"><tspan x="0" y="0" class="st13 st33">T</tspan><tspan x="0.8" y="0" class="st13 st33">w</tspan><tspan x="1.9" y="0" class="st13 st33">o−cell appr</tspan><tspan x="9.7" y="0" class="st13 st33">o</tspan><tspan x="10.5" y="0" class="st13 st33">ximation</tspan></text>
		</g>
	</g>
</g>
</svg>
